# Tiled2Unity generated file. Do not modify by hand.
# Wavefront file for 'Safehouse_mesh_0008.obj'

# Vertices (Count = 584)
v -24 -1 0
v -25 -1 0
v -25 0 0
v -24 0 0
v -23 -1 0
v -24 -1 0
v -24 0 0
v -23 0 0
v -22 -1 0
v -23 -1 0
v -23 0 0
v -22 0 0
v -21 -1 0
v -22 -1 0
v -22 0 0
v -21 0 0
v -20 -1 0
v -21 -1 0
v -21 0 0
v -20 0 0
v -19 -1 0
v -20 -1 0
v -20 0 0
v -19 0 0
v -18 -1 0
v -19 -1 0
v -19 0 0
v -18 0 0
v -17 -1 0
v -18 -1 0
v -18 0 0
v -17 0 0
v -16 -1 0
v -17 -1 0
v -17 0 0
v -16 0 0
v -15 -1 0
v -16 -1 0
v -16 0 0
v -15 0 0
v -14 -1 0
v -15 -1 0
v -15 0 0
v -14 0 0
v -13 -1 0
v -14 -1 0
v -14 0 0
v -13 0 0
v -12 -1 0
v -13 -1 0
v -13 0 0
v -12 0 0
v -11 -1 0
v -12 -1 0
v -12 0 0
v -11 0 0
v -10 -1 0
v -11 -1 0
v -11 0 0
v -10 0 0
v -9 -1 0
v -10 -1 0
v -10 0 0
v -9 0 0
v -8 -1 0
v -9 -1 0
v -9 0 0
v -8 0 0
v -7 -1 0
v -8 -1 0
v -8 0 0
v -7 0 0
v -6 -1 0
v -7 -1 0
v -7 0 0
v -6 0 0
v -5 -1 0
v -6 -1 0
v -6 0 0
v -5 0 0
v -4 -1 0
v -5 -1 0
v -5 0 0
v -4 0 0
v -3 -1 0
v -4 -1 0
v -4 0 0
v -3 0 0
v -2 -1 0
v -3 -1 0
v -3 0 0
v -2 0 0
v -1 -1 0
v -2 -1 0
v -2 0 0
v -1 0 0
v 0 -1 0
v -1 -1 0
v -1 0 0
v 0 0 0
v -24 -2 0
v -25 -2 0
v -25 -1 0
v -24 -1 0
v -14 -2 0
v -15 -2 0
v -15 -1 0
v -14 -1 0
v -9 -2 0
v -10 -2 0
v -10 -1 0
v -9 -1 0
v -5 -2 0
v -6 -2 0
v -6 -1 0
v -5 -1 0
v 0 -2 0
v -1 -2 0
v -1 -1 0
v 0 -1 0
v -24 -3 0
v -25 -3 0
v -25 -2 0
v -24 -2 0
v -14 -3 0
v -15 -3 0
v -15 -2 0
v -14 -2 0
v -9 -3 0
v -10 -3 0
v -10 -2 0
v -9 -2 0
v -5 -3 0
v -6 -3 0
v -6 -2 0
v -5 -2 0
v 0 -3 0
v -1 -3 0
v -1 -2 0
v 0 -2 0
v -24 -4 0
v -25 -4 0
v -25 -3 0
v -24 -3 0
v -14 -4 0
v -15 -4 0
v -15 -3 0
v -14 -3 0
v 0 -4 0
v -1 -4 0
v -1 -3 0
v 0 -3 0
v -24 -5 0
v -25 -5 0
v -25 -4 0
v -24 -4 0
v -14 -5 0
v -15 -5 0
v -15 -4 0
v -14 -4 0
v 0 -5 0
v -1 -5 0
v -1 -4 0
v 0 -4 0
v -24 -6 0
v -25 -6 0
v -25 -5 0
v -24 -5 0
v -14 -6 0
v -15 -6 0
v -15 -5 0
v -14 -5 0
v -13 -6 0
v -14 -6 0
v -14 -5 0
v -13 -5 0
v -12 -6 0
v -13 -6 0
v -13 -5 0
v -12 -5 0
v -11 -6 0
v -12 -6 0
v -12 -5 0
v -11 -5 0
v -10 -6 0
v -11 -6 0
v -11 -5 0
v -10 -5 0
v -9 -6 0
v -10 -6 0
v -10 -5 0
v -9 -5 0
v -7 -6 0
v -8 -6 0
v -8 -5 0
v -7 -5 0
v -6 -6 0
v -7 -6 0
v -7 -5 0
v -6 -5 0
v -5 -6 0
v -6 -6 0
v -6 -5 0
v -5 -5 0
v -4 -6 0
v -5 -6 0
v -5 -5 0
v -4 -5 0
v -3 -6 0
v -4 -6 0
v -4 -5 0
v -3 -5 0
v -2 -6 0
v -3 -6 0
v -3 -5 0
v -2 -5 0
v -1 -6 0
v -2 -6 0
v -2 -5 0
v -1 -5 0
v 0 -6 0
v -1 -6 0
v -1 -5 0
v 0 -5 0
v -24 -7 0
v -25 -7 0
v -25 -6 0
v -24 -6 0
v 0 -7 0
v -1 -7 0
v -1 -6 0
v 0 -6 0
v -24 -8 0
v -25 -8 0
v -25 -7 0
v -24 -7 0
v 0 -8 0
v -1 -8 0
v -1 -7 0
v 0 -7 0
v -24 -9 0
v -25 -9 0
v -25 -8 0
v -24 -8 0
v 0 -9 0
v -1 -9 0
v -1 -8 0
v 0 -8 0
v -24 -10 0
v -25 -10 0
v -25 -9 0
v -24 -9 0
v 0 -10 0
v -1 -10 0
v -1 -9 0
v 0 -9 0
v -24 -11 0
v -25 -11 0
v -25 -10 0
v -24 -10 0
v -23 -11 0
v -24 -11 0
v -24 -10 0
v -23 -10 0
v -22 -11 0
v -23 -11 0
v -23 -10 0
v -22 -10 0
v -21 -11 0
v -22 -11 0
v -22 -10 0
v -21 -10 0
v -20 -11 0
v -21 -11 0
v -21 -10 0
v -20 -10 0
v -19 -11 0
v -20 -11 0
v -20 -10 0
v -19 -10 0
v -18 -11 0
v -19 -11 0
v -19 -10 0
v -18 -10 0
v -17 -11 0
v -18 -11 0
v -18 -10 0
v -17 -10 0
v -16 -11 0
v -17 -11 0
v -17 -10 0
v -16 -10 0
v -15 -11 0
v -16 -11 0
v -16 -10 0
v -15 -10 0
v -5 -11 0
v -6 -11 0
v -6 -10 0
v -5 -10 0
v -4 -11 0
v -5 -11 0
v -5 -10 0
v -4 -10 0
v -3 -11 0
v -4 -11 0
v -4 -10 0
v -3 -10 0
v -2 -11 0
v -3 -11 0
v -3 -10 0
v -2 -10 0
v -1 -11 0
v -2 -11 0
v -2 -10 0
v -1 -10 0
v 0 -11 0
v -1 -11 0
v -1 -10 0
v 0 -10 0
v -24 -12 0
v -25 -12 0
v -25 -11 0
v -24 -11 0
v -15 -12 0
v -16 -12 0
v -16 -11 0
v -15 -11 0
v -5 -12 0
v -6 -12 0
v -6 -11 0
v -5 -11 0
v 0 -12 0
v -1 -12 0
v -1 -11 0
v 0 -11 0
v -24 -13 0
v -25 -13 0
v -25 -12 0
v -24 -12 0
v -15 -13 0
v -16 -13 0
v -16 -12 0
v -15 -12 0
v -5 -13 0
v -6 -13 0
v -6 -12 0
v -5 -12 0
v 0 -13 0
v -1 -13 0
v -1 -12 0
v 0 -12 0
v -24 -14 0
v -25 -14 0
v -25 -13 0
v -24 -13 0
v -15 -14 0
v -16 -14 0
v -16 -13 0
v -15 -13 0
v 0 -14 0
v -1 -14 0
v -1 -13 0
v 0 -13 0
v -24 -15 0
v -25 -15 0
v -25 -14 0
v -24 -14 0
v -15 -15 0
v -16 -15 0
v -16 -14 0
v -15 -14 0
v 0 -15 0
v -1 -15 0
v -1 -14 0
v 0 -14 0
v -24 -16 0
v -25 -16 0
v -25 -15 0
v -24 -15 0
v -15 -16 0
v -16 -16 0
v -16 -15 0
v -15 -15 0
v -5 -16 0
v -6 -16 0
v -6 -15 0
v -5 -15 0
v 0 -16 0
v -1 -16 0
v -1 -15 0
v 0 -15 0
v -24 -17 0
v -25 -17 0
v -25 -16 0
v -24 -16 0
v -5 -17 0
v -6 -17 0
v -6 -16 0
v -5 -16 0
v -4 -17 0
v -5 -17 0
v -5 -16 0
v -4 -16 0
v -3 -17 0
v -4 -17 0
v -4 -16 0
v -3 -16 0
v -1 -17 0
v -2 -17 0
v -2 -16 0
v -1 -16 0
v 0 -17 0
v -1 -17 0
v -1 -16 0
v 0 -16 0
v -24 -18 0
v -25 -18 0
v -25 -17 0
v -24 -17 0
v -5 -18 0
v -6 -18 0
v -6 -17 0
v -5 -17 0
v 0 -18 0
v -1 -18 0
v -1 -17 0
v 0 -17 0
v -24 -19 0
v -25 -19 0
v -25 -18 0
v -24 -18 0
v -5 -19 0
v -6 -19 0
v -6 -18 0
v -5 -18 0
v 0 -19 0
v -1 -19 0
v -1 -18 0
v 0 -18 0
v -24 -20 0
v -25 -20 0
v -25 -19 0
v -24 -19 0
v -15 -20 0
v -16 -20 0
v -16 -19 0
v -15 -19 0
v -5 -20 0
v -6 -20 0
v -6 -19 0
v -5 -19 0
v 0 -20 0
v -1 -20 0
v -1 -19 0
v 0 -19 0
v -24 -21 0
v -25 -21 0
v -25 -20 0
v -24 -20 0
v -15 -21 0
v -16 -21 0
v -16 -20 0
v -15 -20 0
v -5 -21 0
v -6 -21 0
v -6 -20 0
v -5 -20 0
v 0 -21 0
v -1 -21 0
v -1 -20 0
v 0 -20 0
v -24 -22 0
v -25 -22 0
v -25 -21 0
v -24 -21 0
v -15 -22 0
v -16 -22 0
v -16 -21 0
v -15 -21 0
v -5 -22 0
v -6 -22 0
v -6 -21 0
v -5 -21 0
v 0 -22 0
v -1 -22 0
v -1 -21 0
v 0 -21 0
v -24 -23 0
v -25 -23 0
v -25 -22 0
v -24 -22 0
v -15 -23 0
v -16 -23 0
v -16 -22 0
v -15 -22 0
v -5 -23 0
v -6 -23 0
v -6 -22 0
v -5 -22 0
v 0 -23 0
v -1 -23 0
v -1 -22 0
v 0 -22 0
v -24 -24 0
v -25 -24 0
v -25 -23 0
v -24 -23 0
v -23 -24 0
v -24 -24 0
v -24 -23 0
v -23 -23 0
v -22 -24 0
v -23 -24 0
v -23 -23 0
v -22 -23 0
v -21 -24 0
v -22 -24 0
v -22 -23 0
v -21 -23 0
v -20 -24 0
v -21 -24 0
v -21 -23 0
v -20 -23 0
v -19 -24 0
v -20 -24 0
v -20 -23 0
v -19 -23 0
v -18 -24 0
v -19 -24 0
v -19 -23 0
v -18 -23 0
v -17 -24 0
v -18 -24 0
v -18 -23 0
v -17 -23 0
v -16 -24 0
v -17 -24 0
v -17 -23 0
v -16 -23 0
v -15 -24 0
v -16 -24 0
v -16 -23 0
v -15 -23 0
v -14 -24 0
v -15 -24 0
v -15 -23 0
v -14 -23 0
v -8 -24 0
v -9 -24 0
v -9 -23 0
v -8 -23 0
v -7 -24 0
v -8 -24 0
v -8 -23 0
v -7 -23 0
v -6 -24 0
v -7 -24 0
v -7 -23 0
v -6 -23 0
v -5 -24 0
v -6 -24 0
v -6 -23 0
v -5 -23 0
v -4 -24 0
v -5 -24 0
v -5 -23 0
v -4 -23 0
v -3 -24 0
v -4 -24 0
v -4 -23 0
v -3 -23 0
v -2 -24 0
v -3 -24 0
v -3 -23 0
v -2 -23 0
v -1 -24 0
v -2 -24 0
v -2 -23 0
v -1 -23 0
v 0 -24 0
v -1 -24 0
v -1 -23 0
v 0 -23 0

# Texture cooridinates (Count = 24)
vt 0.0625 0.6875
vt 0.125 0.6875
vt 0.125 0.75
vt 0.0625 0.75
vt 0.0625 0.5625
vt 0.125 0.5625
vt 0.125 0.625
vt 0.0625 0.625
vt 0.1875 0.5625
vt 0.1875 0.625
vt 0.1875 0.6875
vt 0 0.6875
vt 0 0.75
vt 0 0.5625
vt 0 0.625
vt 0.25 0.5625
vt 0.25 0.625
vt 0.25 0.6875
vt 0.3125 0.6875
vt 0.3125 0.75
vt 0.25 0.75
vt 0.3125 0.625
vt 0.1875 0.75
vt 0.3125 0.5625

# Normal
vn 0 0 -1

# Mesh description
g Safehouse_mesh_0008

# Faces
f 1/1/1 2/2/1 3/3/1 4/4/1
f 5/5/1 6/6/1 7/7/1 8/8/1
f 9/5/1 10/6/1 11/7/1 12/8/1
f 13/5/1 14/6/1 15/7/1 16/8/1
f 17/5/1 18/6/1 19/7/1 20/8/1
f 21/5/1 22/6/1 23/7/1 24/8/1
f 25/5/1 26/6/1 27/7/1 28/8/1
f 29/5/1 30/6/1 31/7/1 32/8/1
f 33/5/1 34/6/1 35/7/1 36/8/1
f 37/5/1 38/6/1 39/7/1 40/8/1
f 41/6/1 42/9/1 43/10/1 44/7/1
f 45/5/1 46/6/1 47/7/1 48/8/1
f 49/5/1 50/6/1 51/7/1 52/8/1
f 53/5/1 54/6/1 55/7/1 56/8/1
f 57/5/1 58/6/1 59/7/1 60/8/1
f 61/6/1 62/9/1 63/10/1 64/7/1
f 65/5/1 66/6/1 67/7/1 68/8/1
f 69/5/1 70/6/1 71/7/1 72/8/1
f 73/5/1 74/6/1 75/7/1 76/8/1
f 77/7/1 78/10/1 79/11/1 80/2/1
f 81/5/1 82/6/1 83/7/1 84/8/1
f 85/5/1 86/6/1 87/7/1 88/8/1
f 89/5/1 90/6/1 91/7/1 92/8/1
f 93/5/1 94/6/1 95/7/1 96/8/1
f 97/12/1 98/1/1 99/4/1 100/13/1
f 101/14/1 102/5/1 103/8/1 104/15/1
f 105/14/1 106/5/1 107/8/1 108/15/1
f 109/14/1 110/5/1 111/8/1 112/15/1
f 113/14/1 114/5/1 115/8/1 116/15/1
f 117/14/1 118/5/1 119/8/1 120/15/1
f 121/14/1 122/5/1 123/8/1 124/15/1
f 125/14/1 126/5/1 127/8/1 128/15/1
f 129/14/1 130/5/1 131/8/1 132/15/1
f 133/9/1 134/16/1 135/17/1 136/10/1
f 137/14/1 138/5/1 139/8/1 140/15/1
f 141/14/1 142/5/1 143/8/1 144/15/1
f 145/14/1 146/5/1 147/8/1 148/15/1
f 149/14/1 150/5/1 151/8/1 152/15/1
f 153/14/1 154/5/1 155/8/1 156/15/1
f 157/14/1 158/5/1 159/8/1 160/15/1
f 161/14/1 162/5/1 163/8/1 164/15/1
f 165/14/1 166/5/1 167/8/1 168/15/1
f 169/8/1 170/7/1 171/2/1 172/1/1
f 173/5/1 174/6/1 175/7/1 176/8/1
f 177/5/1 178/6/1 179/7/1 180/8/1
f 181/5/1 182/6/1 183/7/1 184/8/1
f 185/5/1 186/6/1 187/7/1 188/8/1
f 189/18/1 190/19/1 191/20/1 192/21/1
f 193/17/1 194/22/1 195/19/1 196/18/1
f 197/5/1 198/6/1 199/7/1 200/8/1
f 201/17/1 202/22/1 203/19/1 204/18/1
f 205/5/1 206/6/1 207/7/1 208/8/1
f 209/5/1 210/6/1 211/7/1 212/8/1
f 213/5/1 214/6/1 215/7/1 216/8/1
f 217/5/1 218/6/1 219/7/1 220/8/1
f 221/14/1 222/5/1 223/8/1 224/15/1
f 225/14/1 226/5/1 227/8/1 228/15/1
f 229/14/1 230/5/1 231/8/1 232/15/1
f 233/14/1 234/5/1 235/8/1 236/15/1
f 237/14/1 238/5/1 239/8/1 240/15/1
f 241/14/1 242/5/1 243/8/1 244/15/1
f 245/14/1 246/5/1 247/8/1 248/15/1
f 249/14/1 250/5/1 251/8/1 252/15/1
f 253/14/1 254/5/1 255/8/1 256/15/1
f 257/14/1 258/5/1 259/8/1 260/15/1
f 261/5/1 262/6/1 263/7/1 264/8/1
f 265/5/1 266/6/1 267/7/1 268/8/1
f 269/5/1 270/6/1 271/7/1 272/8/1
f 273/5/1 274/6/1 275/7/1 276/8/1
f 277/5/1 278/6/1 279/7/1 280/8/1
f 281/5/1 282/6/1 283/7/1 284/8/1
f 285/5/1 286/6/1 287/7/1 288/8/1
f 289/5/1 290/6/1 291/7/1 292/8/1
f 293/12/1 294/1/1 295/4/1 296/13/1
f 297/1/1 298/2/1 299/3/1 300/4/1
f 301/5/1 302/6/1 303/7/1 304/8/1
f 305/5/1 306/6/1 307/7/1 308/8/1
f 309/5/1 310/6/1 311/7/1 312/8/1
f 313/5/1 314/6/1 315/7/1 316/8/1
f 317/2/1 318/11/1 319/23/1 320/3/1
f 321/14/1 322/5/1 323/8/1 324/15/1
f 325/14/1 326/5/1 327/8/1 328/15/1
f 329/14/1 330/5/1 331/8/1 332/15/1
f 333/14/1 334/5/1 335/8/1 336/15/1
f 337/14/1 338/5/1 339/8/1 340/15/1
f 341/14/1 342/5/1 343/8/1 344/15/1
f 345/9/1 346/16/1 347/17/1 348/10/1
f 349/14/1 350/5/1 351/8/1 352/15/1
f 353/14/1 354/5/1 355/8/1 356/15/1
f 357/14/1 358/5/1 359/8/1 360/15/1
f 361/14/1 362/5/1 363/8/1 364/15/1
f 365/14/1 366/5/1 367/8/1 368/15/1
f 369/14/1 370/5/1 371/8/1 372/15/1
f 373/14/1 374/5/1 375/8/1 376/15/1
f 377/14/1 378/5/1 379/8/1 380/15/1
f 381/14/1 382/5/1 383/8/1 384/15/1
f 385/16/1 386/24/1 387/22/1 388/17/1
f 389/14/1 390/5/1 391/8/1 392/15/1
f 393/14/1 394/5/1 395/8/1 396/15/1
f 397/14/1 398/5/1 399/8/1 400/15/1
f 401/5/1 402/6/1 403/7/1 404/8/1
f 405/18/1 406/19/1 407/20/1 408/21/1
f 409/17/1 410/22/1 411/19/1 412/18/1
f 413/2/1 414/11/1 415/23/1 416/3/1
f 417/14/1 418/5/1 419/8/1 420/15/1
f 421/14/1 422/5/1 423/8/1 424/15/1
f 425/14/1 426/5/1 427/8/1 428/15/1
f 429/14/1 430/5/1 431/8/1 432/15/1
f 433/14/1 434/5/1 435/8/1 436/15/1
f 437/14/1 438/5/1 439/8/1 440/15/1
f 441/14/1 442/5/1 443/8/1 444/15/1
f 445/14/1 446/5/1 447/8/1 448/15/1
f 449/14/1 450/5/1 451/8/1 452/15/1
f 453/14/1 454/5/1 455/8/1 456/15/1
f 457/14/1 458/5/1 459/8/1 460/15/1
f 461/14/1 462/5/1 463/8/1 464/15/1
f 465/14/1 466/5/1 467/8/1 468/15/1
f 469/14/1 470/5/1 471/8/1 472/15/1
f 473/14/1 474/5/1 475/8/1 476/15/1
f 477/14/1 478/5/1 479/8/1 480/15/1
f 481/14/1 482/5/1 483/8/1 484/15/1
f 485/14/1 486/5/1 487/8/1 488/15/1
f 489/14/1 490/5/1 491/8/1 492/15/1
f 493/14/1 494/5/1 495/8/1 496/15/1
f 497/14/1 498/5/1 499/8/1 500/15/1
f 501/14/1 502/5/1 503/8/1 504/15/1
f 505/8/1 506/7/1 507/2/1 508/1/1
f 509/5/1 510/6/1 511/7/1 512/8/1
f 513/5/1 514/6/1 515/7/1 516/8/1
f 517/5/1 518/6/1 519/7/1 520/8/1
f 521/5/1 522/6/1 523/7/1 524/8/1
f 525/5/1 526/6/1 527/7/1 528/8/1
f 529/5/1 530/6/1 531/7/1 532/8/1
f 533/5/1 534/6/1 535/7/1 536/8/1
f 537/5/1 538/6/1 539/7/1 540/8/1
f 541/9/1 542/16/1 543/17/1 544/10/1
f 545/18/1 546/19/1 547/20/1 548/21/1
f 549/17/1 550/22/1 551/19/1 552/18/1
f 553/5/1 554/6/1 555/7/1 556/8/1
f 557/5/1 558/6/1 559/7/1 560/8/1
f 561/10/1 562/17/1 563/18/1 564/11/1
f 565/5/1 566/6/1 567/7/1 568/8/1
f 569/5/1 570/6/1 571/7/1 572/8/1
f 573/5/1 574/6/1 575/7/1 576/8/1
f 577/5/1 578/6/1 579/7/1 580/8/1
f 581/15/1 582/8/1 583/1/1 584/12/1

