# Tiled2Unity generated file. Do not modify by hand.
# Wavefront file for 'Safehouse_mesh_0002.obj'

# Vertices (Count = 20)
v -2 -10 0
v -3 -10 0
v -3 -9 0
v -2 -9 0
v -1 -10 0
v -2 -10 0
v -2 -9 0
v -1 -9 0
v -2 -9 0
v -3 -9 0
v -3 -8 0
v -2 -8 0
v -2 -8 0
v -3 -8 0
v -3 -7 0
v -2 -7 0
v -1 -8 0
v -2 -8 0
v -2 -7 0
v -1 -7 0

# Texture cooridinates (Count = 16)
vt 0.4 0.7
vt 0.5 0.7
vt 0.5 0.8
vt 0.4 0.8
vt 0.1 0.8
vt 0.2 0.8
vt 0.2 0.9
vt 0.1 0.9
vt 0 0.7
vt 0.1 0.7
vt 0 0.8
vt 0.5 0.9
vt 0.4 0.9
vt 0.1 0.6
vt 0.2 0.6
vt 0.2 0.7

# Normal
vn 0 0 -1

# Mesh description
g Safehouse_mesh_0002

# Faces
f 1/1/1 2/2/1 3/3/1 4/4/1
f 5/5/1 6/6/1 7/7/1 8/8/1
f 9/9/1 10/10/1 11/5/1 12/11/1
f 13/4/1 14/3/1 15/12/1 16/13/1
f 17/14/1 18/15/1 19/16/1 20/10/1

