# Tiled2Unity generated file. Do not modify by hand.
# Wavefront file for 'Safehouse_mesh_0009.obj'

# Vertices (Count = 476)
v -14 -1 0
v -15 -1 0
v -15 0 0
v -14 0 0
v -13 -1 0
v -14 -1 0
v -14 0 0
v -13 0 0
v -12 -1 0
v -13 -1 0
v -13 0 0
v -12 0 0
v -11 -1 0
v -12 -1 0
v -12 0 0
v -11 0 0
v -10 -1 0
v -11 -1 0
v -11 0 0
v -10 0 0
v -9 -1 0
v -10 -1 0
v -10 0 0
v -9 0 0
v -8 -1 0
v -9 -1 0
v -9 0 0
v -8 0 0
v -7 -1 0
v -8 -1 0
v -8 0 0
v -7 0 0
v -6 -1 0
v -7 -1 0
v -7 0 0
v -6 0 0
v -5 -1 0
v -6 -1 0
v -6 0 0
v -5 0 0
v -4 -1 0
v -5 -1 0
v -5 0 0
v -4 0 0
v -3 -1 0
v -4 -1 0
v -4 0 0
v -3 0 0
v -2 -1 0
v -3 -1 0
v -3 0 0
v -2 0 0
v -1 -1 0
v -2 -1 0
v -2 0 0
v -1 0 0
v 0 -1 0
v -1 -1 0
v -1 0 0
v 0 0 0
v -14 -2 0
v -15 -2 0
v -15 -1 0
v -14 -1 0
v -9 -2 0
v -10 -2 0
v -10 -1 0
v -9 -1 0
v -5 -2 0
v -6 -2 0
v -6 -1 0
v -5 -1 0
v 0 -2 0
v -1 -2 0
v -1 -1 0
v 0 -1 0
v -14 -3 0
v -15 -3 0
v -15 -2 0
v -14 -2 0
v -9 -3 0
v -10 -3 0
v -10 -2 0
v -9 -2 0
v -5 -3 0
v -6 -3 0
v -6 -2 0
v -5 -2 0
v 0 -3 0
v -1 -3 0
v -1 -2 0
v 0 -2 0
v -14 -4 0
v -15 -4 0
v -15 -3 0
v -14 -3 0
v 0 -4 0
v -1 -4 0
v -1 -3 0
v 0 -3 0
v -14 -5 0
v -15 -5 0
v -15 -4 0
v -14 -4 0
v 0 -5 0
v -1 -5 0
v -1 -4 0
v 0 -4 0
v -14 -6 0
v -15 -6 0
v -15 -5 0
v -14 -5 0
v -13 -6 0
v -14 -6 0
v -14 -5 0
v -13 -5 0
v -12 -6 0
v -13 -6 0
v -13 -5 0
v -12 -5 0
v -11 -6 0
v -12 -6 0
v -12 -5 0
v -11 -5 0
v -10 -6 0
v -11 -6 0
v -11 -5 0
v -10 -5 0
v -9 -6 0
v -10 -6 0
v -10 -5 0
v -9 -5 0
v -7 -6 0
v -8 -6 0
v -8 -5 0
v -7 -5 0
v -6 -6 0
v -7 -6 0
v -7 -5 0
v -6 -5 0
v -5 -6 0
v -6 -6 0
v -6 -5 0
v -5 -5 0
v -4 -6 0
v -5 -6 0
v -5 -5 0
v -4 -5 0
v -3 -6 0
v -4 -6 0
v -4 -5 0
v -3 -5 0
v -2 -6 0
v -3 -6 0
v -3 -5 0
v -2 -5 0
v -1 -6 0
v -2 -6 0
v -2 -5 0
v -1 -5 0
v 0 -6 0
v -1 -6 0
v -1 -5 0
v 0 -5 0
v -24 -11 0
v -25 -11 0
v -25 -10 0
v -24 -10 0
v -23 -11 0
v -24 -11 0
v -24 -10 0
v -23 -10 0
v -22 -11 0
v -23 -11 0
v -23 -10 0
v -22 -10 0
v -21 -11 0
v -22 -11 0
v -22 -10 0
v -21 -10 0
v -20 -11 0
v -21 -11 0
v -21 -10 0
v -20 -10 0
v -19 -11 0
v -20 -11 0
v -20 -10 0
v -19 -10 0
v -18 -11 0
v -19 -11 0
v -19 -10 0
v -18 -10 0
v -17 -11 0
v -18 -11 0
v -18 -10 0
v -17 -10 0
v -16 -11 0
v -17 -11 0
v -17 -10 0
v -16 -10 0
v -15 -11 0
v -16 -11 0
v -16 -10 0
v -15 -10 0
v -5 -11 0
v -6 -11 0
v -6 -10 0
v -5 -10 0
v -4 -11 0
v -5 -11 0
v -5 -10 0
v -4 -10 0
v -3 -11 0
v -4 -11 0
v -4 -10 0
v -3 -10 0
v -2 -11 0
v -3 -11 0
v -3 -10 0
v -2 -10 0
v -1 -11 0
v -2 -11 0
v -2 -10 0
v -1 -10 0
v 0 -11 0
v -1 -11 0
v -1 -10 0
v 0 -10 0
v -24 -12 0
v -25 -12 0
v -25 -11 0
v -24 -11 0
v -15 -12 0
v -16 -12 0
v -16 -11 0
v -15 -11 0
v -5 -12 0
v -6 -12 0
v -6 -11 0
v -5 -11 0
v 0 -12 0
v -1 -12 0
v -1 -11 0
v 0 -11 0
v -24 -13 0
v -25 -13 0
v -25 -12 0
v -24 -12 0
v -15 -13 0
v -16 -13 0
v -16 -12 0
v -15 -12 0
v -5 -13 0
v -6 -13 0
v -6 -12 0
v -5 -12 0
v 0 -13 0
v -1 -13 0
v -1 -12 0
v 0 -12 0
v -24 -14 0
v -25 -14 0
v -25 -13 0
v -24 -13 0
v -15 -14 0
v -16 -14 0
v -16 -13 0
v -15 -13 0
v 0 -14 0
v -1 -14 0
v -1 -13 0
v 0 -13 0
v -24 -15 0
v -25 -15 0
v -25 -14 0
v -24 -14 0
v -15 -15 0
v -16 -15 0
v -16 -14 0
v -15 -14 0
v 0 -15 0
v -1 -15 0
v -1 -14 0
v 0 -14 0
v -24 -16 0
v -25 -16 0
v -25 -15 0
v -24 -15 0
v -15 -16 0
v -16 -16 0
v -16 -15 0
v -15 -15 0
v -5 -16 0
v -6 -16 0
v -6 -15 0
v -5 -15 0
v 0 -16 0
v -1 -16 0
v -1 -15 0
v 0 -15 0
v -24 -17 0
v -25 -17 0
v -25 -16 0
v -24 -16 0
v -5 -17 0
v -6 -17 0
v -6 -16 0
v -5 -16 0
v -4 -17 0
v -5 -17 0
v -5 -16 0
v -4 -16 0
v -3 -17 0
v -4 -17 0
v -4 -16 0
v -3 -16 0
v -1 -17 0
v -2 -17 0
v -2 -16 0
v -1 -16 0
v 0 -17 0
v -1 -17 0
v -1 -16 0
v 0 -16 0
v -24 -18 0
v -25 -18 0
v -25 -17 0
v -24 -17 0
v -5 -18 0
v -6 -18 0
v -6 -17 0
v -5 -17 0
v 0 -18 0
v -1 -18 0
v -1 -17 0
v 0 -17 0
v -24 -19 0
v -25 -19 0
v -25 -18 0
v -24 -18 0
v -5 -19 0
v -6 -19 0
v -6 -18 0
v -5 -18 0
v 0 -19 0
v -1 -19 0
v -1 -18 0
v 0 -18 0
v -24 -20 0
v -25 -20 0
v -25 -19 0
v -24 -19 0
v -15 -20 0
v -16 -20 0
v -16 -19 0
v -15 -19 0
v -5 -20 0
v -6 -20 0
v -6 -19 0
v -5 -19 0
v 0 -20 0
v -1 -20 0
v -1 -19 0
v 0 -19 0
v -24 -21 0
v -25 -21 0
v -25 -20 0
v -24 -20 0
v -15 -21 0
v -16 -21 0
v -16 -20 0
v -15 -20 0
v -5 -21 0
v -6 -21 0
v -6 -20 0
v -5 -20 0
v 0 -21 0
v -1 -21 0
v -1 -20 0
v 0 -20 0
v -24 -22 0
v -25 -22 0
v -25 -21 0
v -24 -21 0
v -15 -22 0
v -16 -22 0
v -16 -21 0
v -15 -21 0
v -5 -22 0
v -6 -22 0
v -6 -21 0
v -5 -21 0
v 0 -22 0
v -1 -22 0
v -1 -21 0
v 0 -21 0
v -24 -23 0
v -25 -23 0
v -25 -22 0
v -24 -22 0
v -15 -23 0
v -16 -23 0
v -16 -22 0
v -15 -22 0
v -5 -23 0
v -6 -23 0
v -6 -22 0
v -5 -22 0
v 0 -23 0
v -1 -23 0
v -1 -22 0
v 0 -22 0
v -24 -24 0
v -25 -24 0
v -25 -23 0
v -24 -23 0
v -23 -24 0
v -24 -24 0
v -24 -23 0
v -23 -23 0
v -22 -24 0
v -23 -24 0
v -23 -23 0
v -22 -23 0
v -21 -24 0
v -22 -24 0
v -22 -23 0
v -21 -23 0
v -20 -24 0
v -21 -24 0
v -21 -23 0
v -20 -23 0
v -19 -24 0
v -20 -24 0
v -20 -23 0
v -19 -23 0
v -18 -24 0
v -19 -24 0
v -19 -23 0
v -18 -23 0
v -17 -24 0
v -18 -24 0
v -18 -23 0
v -17 -23 0
v -16 -24 0
v -17 -24 0
v -17 -23 0
v -16 -23 0
v -15 -24 0
v -16 -24 0
v -16 -23 0
v -15 -23 0
v -5 -24 0
v -6 -24 0
v -6 -23 0
v -5 -23 0
v -4 -24 0
v -5 -24 0
v -5 -23 0
v -4 -23 0
v -3 -24 0
v -4 -24 0
v -4 -23 0
v -3 -23 0
v -2 -24 0
v -3 -24 0
v -3 -23 0
v -2 -23 0
v -1 -24 0
v -2 -24 0
v -2 -23 0
v -1 -23 0
v 0 -24 0
v -1 -24 0
v -1 -23 0
v 0 -23 0

# Texture cooridinates (Count = 24)
vt 0.0625 0.6875
vt 0.125 0.6875
vt 0.125 0.75
vt 0.0625 0.75
vt 0.0625 0.5625
vt 0.125 0.5625
vt 0.125 0.625
vt 0.0625 0.625
vt 0.1875 0.5625
vt 0.1875 0.625
vt 0.1875 0.6875
vt 0 0.6875
vt 0 0.75
vt 0 0.5625
vt 0 0.625
vt 0.25 0.5625
vt 0.25 0.625
vt 0.25 0.6875
vt 0.3125 0.6875
vt 0.3125 0.75
vt 0.25 0.75
vt 0.3125 0.625
vt 0.3125 0.5625
vt 0.1875 0.75

# Normal
vn 0 0 -1

# Mesh description
g Safehouse_mesh_0009

# Faces
f 1/1/1 2/2/1 3/3/1 4/4/1
f 5/5/1 6/6/1 7/7/1 8/8/1
f 9/5/1 10/6/1 11/7/1 12/8/1
f 13/5/1 14/6/1 15/7/1 16/8/1
f 17/5/1 18/6/1 19/7/1 20/8/1
f 21/6/1 22/9/1 23/10/1 24/7/1
f 25/5/1 26/6/1 27/7/1 28/8/1
f 29/5/1 30/6/1 31/7/1 32/8/1
f 33/5/1 34/6/1 35/7/1 36/8/1
f 37/7/1 38/10/1 39/11/1 40/2/1
f 41/5/1 42/6/1 43/7/1 44/8/1
f 45/5/1 46/6/1 47/7/1 48/8/1
f 49/5/1 50/6/1 51/7/1 52/8/1
f 53/5/1 54/6/1 55/7/1 56/8/1
f 57/12/1 58/1/1 59/4/1 60/13/1
f 61/14/1 62/5/1 63/8/1 64/15/1
f 65/14/1 66/5/1 67/8/1 68/15/1
f 69/14/1 70/5/1 71/8/1 72/15/1
f 73/14/1 74/5/1 75/8/1 76/15/1
f 77/14/1 78/5/1 79/8/1 80/15/1
f 81/14/1 82/5/1 83/8/1 84/15/1
f 85/9/1 86/16/1 87/17/1 88/10/1
f 89/14/1 90/5/1 91/8/1 92/15/1
f 93/14/1 94/5/1 95/8/1 96/15/1
f 97/14/1 98/5/1 99/8/1 100/15/1
f 101/14/1 102/5/1 103/8/1 104/15/1
f 105/14/1 106/5/1 107/8/1 108/15/1
f 109/8/1 110/7/1 111/2/1 112/1/1
f 113/5/1 114/6/1 115/7/1 116/8/1
f 117/5/1 118/6/1 119/7/1 120/8/1
f 121/5/1 122/6/1 123/7/1 124/8/1
f 125/5/1 126/6/1 127/7/1 128/8/1
f 129/18/1 130/19/1 131/20/1 132/21/1
f 133/17/1 134/22/1 135/19/1 136/18/1
f 137/5/1 138/6/1 139/7/1 140/8/1
f 141/17/1 142/22/1 143/19/1 144/18/1
f 145/5/1 146/6/1 147/7/1 148/8/1
f 149/5/1 150/6/1 151/7/1 152/8/1
f 153/5/1 154/6/1 155/7/1 156/8/1
f 157/5/1 158/6/1 159/7/1 160/8/1
f 161/15/1 162/8/1 163/1/1 164/12/1
f 165/1/1 166/2/1 167/3/1 168/4/1
f 169/5/1 170/6/1 171/7/1 172/8/1
f 173/5/1 174/6/1 175/7/1 176/8/1
f 177/5/1 178/6/1 179/7/1 180/8/1
f 181/5/1 182/6/1 183/7/1 184/8/1
f 185/5/1 186/6/1 187/7/1 188/8/1
f 189/5/1 190/6/1 191/7/1 192/8/1
f 193/5/1 194/6/1 195/7/1 196/8/1
f 197/5/1 198/6/1 199/7/1 200/8/1
f 201/12/1 202/1/1 203/4/1 204/13/1
f 205/1/1 206/2/1 207/3/1 208/4/1
f 209/5/1 210/6/1 211/7/1 212/8/1
f 213/5/1 214/6/1 215/7/1 216/8/1
f 217/5/1 218/6/1 219/7/1 220/8/1
f 221/5/1 222/6/1 223/7/1 224/8/1
f 225/12/1 226/1/1 227/4/1 228/13/1
f 229/14/1 230/5/1 231/8/1 232/15/1
f 233/14/1 234/5/1 235/8/1 236/15/1
f 237/14/1 238/5/1 239/8/1 240/15/1
f 241/14/1 242/5/1 243/8/1 244/15/1
f 245/14/1 246/5/1 247/8/1 248/15/1
f 249/14/1 250/5/1 251/8/1 252/15/1
f 253/9/1 254/16/1 255/17/1 256/10/1
f 257/14/1 258/5/1 259/8/1 260/15/1
f 261/14/1 262/5/1 263/8/1 264/15/1
f 265/14/1 266/5/1 267/8/1 268/15/1
f 269/14/1 270/5/1 271/8/1 272/15/1
f 273/14/1 274/5/1 275/8/1 276/15/1
f 277/14/1 278/5/1 279/8/1 280/15/1
f 281/14/1 282/5/1 283/8/1 284/15/1
f 285/14/1 286/5/1 287/8/1 288/15/1
f 289/14/1 290/5/1 291/8/1 292/15/1
f 293/16/1 294/23/1 295/22/1 296/17/1
f 297/14/1 298/5/1 299/8/1 300/15/1
f 301/14/1 302/5/1 303/8/1 304/15/1
f 305/14/1 306/5/1 307/8/1 308/15/1
f 309/5/1 310/6/1 311/7/1 312/8/1
f 313/18/1 314/19/1 315/20/1 316/21/1
f 317/17/1 318/22/1 319/19/1 320/18/1
f 321/2/1 322/11/1 323/24/1 324/3/1
f 325/14/1 326/5/1 327/8/1 328/15/1
f 329/14/1 330/5/1 331/8/1 332/15/1
f 333/14/1 334/5/1 335/8/1 336/15/1
f 337/14/1 338/5/1 339/8/1 340/15/1
f 341/14/1 342/5/1 343/8/1 344/15/1
f 345/14/1 346/5/1 347/8/1 348/15/1
f 349/14/1 350/5/1 351/8/1 352/15/1
f 353/14/1 354/5/1 355/8/1 356/15/1
f 357/14/1 358/5/1 359/8/1 360/15/1
f 361/14/1 362/5/1 363/8/1 364/15/1
f 365/14/1 366/5/1 367/8/1 368/15/1
f 369/14/1 370/5/1 371/8/1 372/15/1
f 373/14/1 374/5/1 375/8/1 376/15/1
f 377/14/1 378/5/1 379/8/1 380/15/1
f 381/14/1 382/5/1 383/8/1 384/15/1
f 385/14/1 386/5/1 387/8/1 388/15/1
f 389/14/1 390/5/1 391/8/1 392/15/1
f 393/14/1 394/5/1 395/8/1 396/15/1
f 397/14/1 398/5/1 399/8/1 400/15/1
f 401/14/1 402/5/1 403/8/1 404/15/1
f 405/14/1 406/5/1 407/8/1 408/15/1
f 409/14/1 410/5/1 411/8/1 412/15/1
f 413/8/1 414/7/1 415/2/1 416/1/1
f 417/5/1 418/6/1 419/7/1 420/8/1
f 421/5/1 422/6/1 423/7/1 424/8/1
f 425/5/1 426/6/1 427/7/1 428/8/1
f 429/5/1 430/6/1 431/7/1 432/8/1
f 433/5/1 434/6/1 435/7/1 436/8/1
f 437/5/1 438/6/1 439/7/1 440/8/1
f 441/5/1 442/6/1 443/7/1 444/8/1
f 445/5/1 446/6/1 447/7/1 448/8/1
f 449/15/1 450/8/1 451/1/1 452/12/1
f 453/8/1 454/7/1 455/2/1 456/1/1
f 457/5/1 458/6/1 459/7/1 460/8/1
f 461/5/1 462/6/1 463/7/1 464/8/1
f 465/5/1 466/6/1 467/7/1 468/8/1
f 469/5/1 470/6/1 471/7/1 472/8/1
f 473/15/1 474/8/1 475/1/1 476/12/1

