# Tiled2Unity generated file. Do not modify by hand.
# Wavefront file for 'Safehouse_mesh_0005.obj'

# Vertices (Count = 64)
v -3 -15 0
v -4 -15 0
v -4 -14 0
v -3 -14 0
v -8 -13 0
v -9 -13 0
v -9 -12 0
v -8 -12 0
v -7 -13 0
v -8 -13 0
v -8 -12 0
v -7 -12 0
v -13 -11 0
v -14 -11 0
v -14 -10 0
v -13 -10 0
v -12 -11 0
v -13 -11 0
v -13 -10 0
v -12 -10 0
v -11 -11 0
v -12 -11 0
v -12 -10 0
v -11 -10 0
v -7 -11 0
v -8 -11 0
v -8 -10 0
v -7 -10 0
v -13 -10 0
v -14 -10 0
v -14 -9 0
v -13 -9 0
v -7 -10 0
v -8 -10 0
v -8 -9 0
v -7 -9 0
v -7 -9 0
v -8 -9 0
v -8 -8 0
v -7 -8 0
v -3 -3 0
v -4 -3 0
v -4 -2 0
v -3 -2 0
v -2 -3 0
v -3 -3 0
v -3 -2 0
v -2 -2 0
v -1 -3 0
v -2 -3 0
v -2 -2 0
v -1 -2 0
v -3 -2 0
v -4 -2 0
v -4 -1 0
v -3 -1 0
v -2 -2 0
v -3 -2 0
v -3 -1 0
v -2 -1 0
v -1 -2 0
v -2 -2 0
v -2 -1 0
v -1 -1 0

# Texture cooridinates (Count = 36)
vt 0.1 0.6
vt 0.2 0.6
vt 0.2 0.7
vt 0.1 0.7
vt 0.9 0.3
vt 1 0.3
vt 1 0.4
vt 0.9 0.4
vt 0.8 0.3
vt 0.8 0.4
vt 0.6 0.9
vt 0.7 0.9
vt 0.7 1
vt 0.6 1
vt 0.5 0.9
vt 0.5 1
vt 0.4 0.9
vt 0.4 1
vt 1 0.5
vt 0.9 0.5
vt 0.3 0.9
vt 0.3 1
vt 1 0.6
vt 0.9 0.6
vt 1 0.7
vt 0.9 0.7
vt 0.9 0.8
vt 1 0.8
vt 1 0.9
vt 0.9 0.9
vt 0.8 0.8
vt 0.8 0.9
vt 0.7 0.8
vt 1 1
vt 0.9 1
vt 0.8 1

# Normal
vn 0 0 -1

# Mesh description
g Safehouse_mesh_0005

# Faces
f 1/1/1 2/2/1 3/3/1 4/4/1
f 5/5/1 6/6/1 7/7/1 8/8/1
f 9/9/1 10/5/1 11/8/1 12/10/1
f 13/11/1 14/12/1 15/13/1 16/14/1
f 17/15/1 18/11/1 19/14/1 20/16/1
f 21/17/1 22/15/1 23/16/1 24/18/1
f 25/8/1 26/7/1 27/19/1 28/20/1
f 29/21/1 30/17/1 31/18/1 32/22/1
f 33/20/1 34/19/1 35/23/1 36/24/1
f 37/24/1 38/23/1 39/25/1 40/26/1
f 41/27/1 42/28/1 43/29/1 44/30/1
f 45/31/1 46/27/1 47/30/1 48/32/1
f 49/33/1 50/31/1 51/32/1 52/12/1
f 53/30/1 54/29/1 55/34/1 56/35/1
f 57/32/1 58/30/1 59/35/1 60/36/1
f 61/12/1 62/32/1 63/36/1 64/13/1

