# Tiled2Unity generated file. Do not modify by hand.
# Wavefront file for 'Safehouse_mesh_0005.obj'

# Vertices (Count = 160)
v -13 -2 0
v -14 -2 0
v -14 -1 0
v -13 -1 0
v -12 -2 0
v -13 -2 0
v -13 -1 0
v -12 -1 0
v -11 -2 0
v -12 -2 0
v -12 -1 0
v -11 -1 0
v -10 -2 0
v -11 -2 0
v -11 -1 0
v -10 -1 0
v -8 -2 0
v -9 -2 0
v -9 -1 0
v -8 -1 0
v -4 -2 0
v -5 -2 0
v -5 -1 0
v -4 -1 0
v -13 -3 0
v -14 -3 0
v -14 -2 0
v -13 -2 0
v -12 -3 0
v -13 -3 0
v -13 -2 0
v -12 -2 0
v -11 -3 0
v -12 -3 0
v -12 -2 0
v -11 -2 0
v -10 -3 0
v -11 -3 0
v -11 -2 0
v -10 -2 0
v -8 -3 0
v -9 -3 0
v -9 -2 0
v -8 -2 0
v -7 -3 0
v -8 -3 0
v -8 -2 0
v -7 -2 0
v -6 -3 0
v -7 -3 0
v -7 -2 0
v -6 -2 0
v -4 -3 0
v -5 -3 0
v -5 -2 0
v -4 -2 0
v -3 -3 0
v -4 -3 0
v -4 -2 0
v -3 -2 0
v -2 -3 0
v -3 -3 0
v -3 -2 0
v -2 -2 0
v -1 -3 0
v -2 -3 0
v -2 -2 0
v -1 -2 0
v -1 -4 0
v -2 -4 0
v -2 -3 0
v -1 -3 0
v -13 -8 0
v -14 -8 0
v -14 -7 0
v -13 -7 0
v -1 -8 0
v -2 -8 0
v -2 -7 0
v -1 -7 0
v -13 -9 0
v -14 -9 0
v -14 -8 0
v -13 -8 0
v -1 -9 0
v -2 -9 0
v -2 -8 0
v -1 -8 0
v -10 -10 0
v -11 -10 0
v -11 -9 0
v -10 -9 0
v -1 -10 0
v -2 -10 0
v -2 -9 0
v -1 -9 0
v -1 -11 0
v -2 -11 0
v -2 -10 0
v -1 -10 0
v -1 -12 0
v -2 -12 0
v -2 -11 0
v -1 -11 0
v -1 -13 0
v -2 -13 0
v -2 -12 0
v -1 -12 0
v -4 -14 0
v -5 -14 0
v -5 -13 0
v -4 -13 0
v -3 -14 0
v -4 -14 0
v -4 -13 0
v -3 -13 0
v -1 -14 0
v -2 -14 0
v -2 -13 0
v -1 -13 0
v -1 -15 0
v -2 -15 0
v -2 -14 0
v -1 -14 0
v -1 -16 0
v -2 -16 0
v -2 -15 0
v -1 -15 0
v -4 -19 0
v -5 -19 0
v -5 -18 0
v -4 -18 0
v -3 -19 0
v -4 -19 0
v -4 -18 0
v -3 -18 0
v -1 -19 0
v -2 -19 0
v -2 -18 0
v -1 -18 0
v -2 -21 0
v -3 -21 0
v -3 -20 0
v -2 -20 0
v -1 -21 0
v -2 -21 0
v -2 -20 0
v -1 -20 0
v -4 -23 0
v -5 -23 0
v -5 -22 0
v -4 -22 0
v -2 -23 0
v -3 -23 0
v -3 -22 0
v -2 -22 0
v -1 -23 0
v -2 -23 0
v -2 -22 0
v -1 -22 0

# Texture cooridinates (Count = 61)
vt 0.9 0.9
vt 1 0.9
vt 1 1
vt 0.9 1
vt 0.3 0.4
vt 0.4 0.4
vt 0.4 0.5
vt 0.3 0.5
vt 0.5 0.4
vt 0.6 0.4
vt 0.6 0.5
vt 0.5 0.5
vt 0.3 0.9
vt 0.4 0.9
vt 0.4 1
vt 0.3 1
vt 0.9 0.8
vt 1 0.8
vt 0.3 0.3
vt 0.4 0.3
vt 0.5 0.3
vt 0.6 0.3
vt 0.8 0.8
vt 0.8 0.9
vt 0.7 0.8
vt 0.7 0.9
vt 0.3 0.8
vt 0.4 0.8
vt 0.5 0.8
vt 0.5 0.9
vt 0.8 0
vt 0.9 0
vt 0.9 0.1
vt 0.8 0.1
vt 0.1 0.7
vt 0.2 0.7
vt 0.2 0.8
vt 0.1 0.8
vt 0.1 0.6
vt 0.2 0.6
vt 0.6 0.8
vt 0.6 0.9
vt 0.1 0.2
vt 0.2 0.2
vt 0.2 0.3
vt 0.1 0.3
vt 0.6 0.7
vt 0.7 0.7
vt 0.1 0.1
vt 0.2 0.1
vt 0.6 0.1
vt 0.7 0.1
vt 0.7 0.2
vt 0.6 0.2
vt 0.6 0
vt 0.7 0
vt 0.2 0.9
vt 0 0.8
vt 0.1 0.9
vt 0 0.9
vt 0.5 0.7

# Normal
vn 0 0 -1

# Mesh description
g Safehouse_mesh_0005

# Faces
f 1/1/1 2/2/1 3/3/1 4/4/1
f 5/1/1 6/2/1 7/3/1 8/4/1
f 9/5/1 10/6/1 11/7/1 12/8/1
f 13/5/1 14/6/1 15/7/1 16/8/1
f 17/9/1 18/10/1 19/11/1 20/12/1
f 21/13/1 22/14/1 23/15/1 24/16/1
f 25/17/1 26/18/1 27/2/1 28/1/1
f 29/17/1 30/18/1 31/2/1 32/1/1
f 33/19/1 34/20/1 35/6/1 36/5/1
f 37/19/1 38/20/1 39/6/1 40/5/1
f 41/21/1 42/22/1 43/10/1 44/9/1
f 45/23/1 46/17/1 47/1/1 48/24/1
f 49/25/1 50/23/1 51/24/1 52/26/1
f 53/27/1 54/28/1 55/14/1 56/13/1
f 57/28/1 58/29/1 59/30/1 60/14/1
f 61/31/1 62/32/1 63/33/1 64/34/1
f 65/35/1 66/36/1 67/37/1 68/38/1
f 69/39/1 70/40/1 71/36/1 72/35/1
f 73/41/1 74/25/1 75/26/1 76/42/1
f 77/43/1 78/44/1 79/45/1 80/46/1
f 81/47/1 82/48/1 83/25/1 84/41/1
f 85/49/1 86/50/1 87/44/1 88/43/1
f 89/28/1 90/29/1 91/30/1 92/14/1
f 93/43/1 94/44/1 95/45/1 96/46/1
f 97/49/1 98/50/1 99/44/1 100/43/1
f 101/51/1 102/52/1 103/53/1 104/54/1
f 105/55/1 106/56/1 107/52/1 108/51/1
f 109/37/1 110/27/1 111/13/1 112/57/1
f 113/58/1 114/38/1 115/59/1 116/60/1
f 117/28/1 118/29/1 119/30/1 120/14/1
f 121/29/1 122/41/1 123/42/1 124/30/1
f 125/61/1 126/47/1 127/41/1 128/29/1
f 129/37/1 130/27/1 131/13/1 132/57/1
f 133/58/1 134/38/1 135/59/1 136/60/1
f 137/28/1 138/29/1 139/30/1 140/14/1
f 141/37/1 142/27/1 143/13/1 144/57/1
f 145/58/1 146/38/1 147/59/1 148/60/1
f 149/28/1 150/29/1 151/30/1 152/14/1
f 153/37/1 154/27/1 155/13/1 156/57/1
f 157/58/1 158/38/1 159/59/1 160/60/1

