# Tiled2Unity generated file. Do not modify by hand.
# Wavefront file for 'Motel1_mesh_0004.obj'

# Vertices (Count = 216)
v -15 -5 0
v -16 -5 0
v -16 -4 0
v -15 -4 0
v -14 -5 0
v -15 -5 0
v -15 -4 0
v -14 -4 0
v -13 -5 0
v -14 -5 0
v -14 -4 0
v -13 -4 0
v -12 -5 0
v -13 -5 0
v -13 -4 0
v -12 -4 0
v -10 -5 0
v -11 -5 0
v -11 -4 0
v -10 -4 0
v -9 -5 0
v -10 -5 0
v -10 -4 0
v -9 -4 0
v -7 -5 0
v -8 -5 0
v -8 -4 0
v -7 -4 0
v -6 -5 0
v -7 -5 0
v -7 -4 0
v -6 -4 0
v -5 -5 0
v -6 -5 0
v -6 -4 0
v -5 -4 0
v -4 -5 0
v -5 -5 0
v -5 -4 0
v -4 -4 0
v -11 -6 0
v -12 -6 0
v -12 -5 0
v -11 -5 0
v -8 -6 0
v -9 -6 0
v -9 -5 0
v -8 -5 0
v -15 -10 0
v -16 -10 0
v -16 -9 0
v -15 -9 0
v -14 -10 0
v -15 -10 0
v -15 -9 0
v -14 -9 0
v -13 -10 0
v -14 -10 0
v -14 -9 0
v -13 -9 0
v -12 -10 0
v -13 -10 0
v -13 -9 0
v -12 -9 0
v -7 -10 0
v -8 -10 0
v -8 -9 0
v -7 -9 0
v -6 -10 0
v -7 -10 0
v -7 -9 0
v -6 -9 0
v -5 -10 0
v -6 -10 0
v -6 -9 0
v -5 -9 0
v -4 -10 0
v -5 -10 0
v -5 -9 0
v -4 -9 0
v -11 -11 0
v -12 -11 0
v -12 -10 0
v -11 -10 0
v -8 -11 0
v -9 -11 0
v -9 -10 0
v -8 -10 0
v -15 -15 0
v -16 -15 0
v -16 -14 0
v -15 -14 0
v -14 -15 0
v -15 -15 0
v -15 -14 0
v -14 -14 0
v -13 -15 0
v -14 -15 0
v -14 -14 0
v -13 -14 0
v -12 -15 0
v -13 -15 0
v -13 -14 0
v -12 -14 0
v -7 -15 0
v -8 -15 0
v -8 -14 0
v -7 -14 0
v -6 -15 0
v -7 -15 0
v -7 -14 0
v -6 -14 0
v -5 -15 0
v -6 -15 0
v -6 -14 0
v -5 -14 0
v -4 -15 0
v -5 -15 0
v -5 -14 0
v -4 -14 0
v -11 -16 0
v -12 -16 0
v -12 -15 0
v -11 -15 0
v -8 -16 0
v -9 -16 0
v -9 -15 0
v -8 -15 0
v -20 -17 0
v -21 -17 0
v -21 -16 0
v -20 -16 0
v -19 -17 0
v -20 -17 0
v -20 -16 0
v -19 -16 0
v -18 -17 0
v -19 -17 0
v -19 -16 0
v -18 -16 0
v -17 -17 0
v -18 -17 0
v -18 -16 0
v -17 -16 0
v -16 -19 0
v -17 -19 0
v -17 -18 0
v -16 -18 0
v -7 -20 0
v -8 -20 0
v -8 -19 0
v -7 -19 0
v -6 -20 0
v -7 -20 0
v -7 -19 0
v -6 -19 0
v -5 -20 0
v -6 -20 0
v -6 -19 0
v -5 -19 0
v -4 -20 0
v -5 -20 0
v -5 -19 0
v -4 -19 0
v -3 -20 0
v -4 -20 0
v -4 -19 0
v -3 -19 0
v -21 -22 0
v -22 -22 0
v -22 -21 0
v -21 -21 0
v -20 -22 0
v -21 -22 0
v -21 -21 0
v -20 -21 0
v -19 -22 0
v -20 -22 0
v -20 -21 0
v -19 -21 0
v -18 -22 0
v -19 -22 0
v -19 -21 0
v -18 -21 0
v -17 -22 0
v -18 -22 0
v -18 -21 0
v -17 -21 0
v -16 -22 0
v -17 -22 0
v -17 -21 0
v -16 -21 0
v -15 -22 0
v -16 -22 0
v -16 -21 0
v -15 -21 0
v -14 -22 0
v -15 -22 0
v -15 -21 0
v -14 -21 0
v -11 -22 0
v -12 -22 0
v -12 -21 0
v -11 -21 0
v -10 -22 0
v -11 -22 0
v -11 -21 0
v -10 -21 0
v -9 -22 0
v -10 -22 0
v -10 -21 0
v -9 -21 0
v -8 -22 0
v -9 -22 0
v -9 -21 0
v -8 -21 0

# Texture cooridinates (Count = 22)
vt 0.0625 0.4375
vt 0.125 0.4375
vt 0.125 0.5
vt 0.0625 0.5
vt 0.0625 0.25
vt 0.125 0.25
vt 0.125 0.3125
vt 0.0625 0.3125
vt 0.1875 0.25
vt 0.25 0.25
vt 0.25 0.3125
vt 0.1875 0.3125
vt 0.125 0.375
vt 0.0625 0.375
vt 0.1875 0.5
vt 0.25 0.5
vt 0.25 0.5625
vt 0.1875 0.5625
vt 0.125 0.5625
vt 0.0625 0.5625
vt 0 0.5
vt 0 0.5625

# Normal
vn 0 0 -1

# Mesh description
g Motel1_mesh_0004

# Faces
f 1/1/1 2/2/1 3/3/1 4/4/1
f 5/1/1 6/2/1 7/3/1 8/4/1
f 9/1/1 10/2/1 11/3/1 12/4/1
f 13/1/1 14/2/1 15/3/1 16/4/1
f 17/5/1 18/6/1 19/7/1 20/8/1
f 21/5/1 22/6/1 23/7/1 24/8/1
f 25/1/1 26/2/1 27/3/1 28/4/1
f 29/1/1 30/2/1 31/3/1 32/4/1
f 33/1/1 34/2/1 35/3/1 36/4/1
f 37/1/1 38/2/1 39/3/1 40/4/1
f 41/9/1 42/10/1 43/11/1 44/12/1
f 45/9/1 46/10/1 47/11/1 48/12/1
f 49/1/1 50/2/1 51/3/1 52/4/1
f 53/1/1 54/2/1 55/3/1 56/4/1
f 57/1/1 58/2/1 59/3/1 60/4/1
f 61/1/1 62/2/1 63/3/1 64/4/1
f 65/1/1 66/2/1 67/3/1 68/4/1
f 69/1/1 70/2/1 71/3/1 72/4/1
f 73/1/1 74/2/1 75/3/1 76/4/1
f 77/1/1 78/2/1 79/3/1 80/4/1
f 81/9/1 82/10/1 83/11/1 84/12/1
f 85/9/1 86/10/1 87/11/1 88/12/1
f 89/5/1 90/6/1 91/7/1 92/8/1
f 93/5/1 94/6/1 95/7/1 96/8/1
f 97/5/1 98/6/1 99/7/1 100/8/1
f 101/5/1 102/6/1 103/7/1 104/8/1
f 105/1/1 106/2/1 107/3/1 108/4/1
f 109/1/1 110/2/1 111/3/1 112/4/1
f 113/1/1 114/2/1 115/3/1 116/4/1
f 117/1/1 118/2/1 119/3/1 120/4/1
f 121/9/1 122/10/1 123/11/1 124/12/1
f 125/9/1 126/10/1 127/11/1 128/12/1
f 129/8/1 130/7/1 131/13/1 132/14/1
f 133/8/1 134/7/1 135/13/1 136/14/1
f 137/8/1 138/7/1 139/13/1 140/14/1
f 141/8/1 142/7/1 143/13/1 144/14/1
f 145/15/1 146/16/1 147/17/1 148/18/1
f 149/4/1 150/3/1 151/19/1 152/20/1
f 153/4/1 154/3/1 155/19/1 156/20/1
f 157/4/1 158/3/1 159/19/1 160/20/1
f 161/4/1 162/3/1 163/19/1 164/20/1
f 165/21/1 166/4/1 167/20/1 168/22/1
f 169/3/1 170/15/1 171/18/1 172/19/1
f 173/4/1 174/3/1 175/19/1 176/20/1
f 177/4/1 178/3/1 179/19/1 180/20/1
f 181/4/1 182/3/1 183/19/1 184/20/1
f 185/4/1 186/3/1 187/19/1 188/20/1
f 189/4/1 190/3/1 191/19/1 192/20/1
f 193/4/1 194/3/1 195/19/1 196/20/1
f 197/21/1 198/4/1 199/20/1 200/22/1
f 201/3/1 202/15/1 203/18/1 204/19/1
f 205/4/1 206/3/1 207/19/1 208/20/1
f 209/4/1 210/3/1 211/19/1 212/20/1
f 213/21/1 214/4/1 215/20/1 216/22/1

