# Tiled2Unity generated file. Do not modify by hand.
# Wavefront file for 'Motel1_mesh_0012.obj'

# Vertices (Count = 12)
v -17 -7 0
v -18 -7 0
v -18 -6 0
v -17 -6 0
v -17 -9 0
v -18 -9 0
v -18 -8 0
v -17 -8 0
v -15 -17 0
v -16 -17 0
v -16 -16 0
v -15 -16 0

# Texture cooridinates (Count = 8)
vt 0.1 0.2
vt 0.2 0.2
vt 0.2 0.3
vt 0.1 0.3
vt 0.7 0.6
vt 0.8 0.6
vt 0.8 0.7
vt 0.7 0.7

# Normal
vn 0 0 -1

# Mesh description
g Motel1_mesh_0012

# Faces
f 1/1/1 2/2/1 3/3/1 4/4/1
f 5/1/1 6/2/1 7/3/1 8/4/1
f 9/5/1 10/6/1 11/7/1 12/8/1

