# Tiled2Unity generated file. Do not modify by hand.
# Wavefront file for 'Motel1_mesh_0005.obj'

# Vertices (Count = 192)
v -15 -5 0
v -16 -5 0
v -16 -4 0
v -15 -4 0
v -12 -5 0
v -13 -5 0
v -13 -4 0
v -12 -4 0
v -7 -5 0
v -8 -5 0
v -8 -4 0
v -7 -4 0
v -4 -5 0
v -5 -5 0
v -5 -4 0
v -4 -4 0
v -15 -6 0
v -16 -6 0
v -16 -5 0
v -15 -5 0
v -14 -6 0
v -15 -6 0
v -15 -5 0
v -14 -5 0
v -12 -6 0
v -13 -6 0
v -13 -5 0
v -12 -5 0
v -7 -6 0
v -8 -6 0
v -8 -5 0
v -7 -5 0
v -5 -6 0
v -6 -6 0
v -6 -5 0
v -5 -5 0
v -4 -6 0
v -5 -6 0
v -5 -5 0
v -4 -5 0
v -15 -7 0
v -16 -7 0
v -16 -6 0
v -15 -6 0
v -4 -7 0
v -5 -7 0
v -5 -6 0
v -4 -6 0
v -17 -8 0
v -18 -8 0
v -18 -7 0
v -17 -7 0
v -17 -10 0
v -18 -10 0
v -18 -9 0
v -17 -9 0
v -15 -10 0
v -16 -10 0
v -16 -9 0
v -15 -9 0
v -12 -10 0
v -13 -10 0
v -13 -9 0
v -12 -9 0
v -7 -10 0
v -8 -10 0
v -8 -9 0
v -7 -9 0
v -4 -10 0
v -5 -10 0
v -5 -9 0
v -4 -9 0
v -15 -11 0
v -16 -11 0
v -16 -10 0
v -15 -10 0
v -14 -11 0
v -15 -11 0
v -15 -10 0
v -14 -10 0
v -12 -11 0
v -13 -11 0
v -13 -10 0
v -12 -10 0
v -7 -11 0
v -8 -11 0
v -8 -10 0
v -7 -10 0
v -5 -11 0
v -6 -11 0
v -6 -10 0
v -5 -10 0
v -4 -11 0
v -5 -11 0
v -5 -10 0
v -4 -10 0
v -15 -12 0
v -16 -12 0
v -16 -11 0
v -15 -11 0
v -4 -12 0
v -5 -12 0
v -5 -11 0
v -4 -11 0
v -15 -15 0
v -16 -15 0
v -16 -14 0
v -15 -14 0
v -14 -15 0
v -15 -15 0
v -15 -14 0
v -14 -14 0
v -12 -15 0
v -13 -15 0
v -13 -14 0
v -12 -14 0
v -7 -15 0
v -8 -15 0
v -8 -14 0
v -7 -14 0
v -4 -15 0
v -5 -15 0
v -5 -14 0
v -4 -14 0
v -15 -16 0
v -16 -16 0
v -16 -15 0
v -15 -15 0
v -14 -16 0
v -15 -16 0
v -15 -15 0
v -14 -15 0
v -13 -16 0
v -14 -16 0
v -14 -15 0
v -13 -15 0
v -12 -16 0
v -13 -16 0
v -13 -15 0
v -12 -15 0
v -7 -16 0
v -8 -16 0
v -8 -15 0
v -7 -15 0
v -5 -16 0
v -6 -16 0
v -6 -15 0
v -5 -15 0
v -4 -16 0
v -5 -16 0
v -5 -15 0
v -4 -15 0
v -18 -17 0
v -19 -17 0
v -19 -16 0
v -18 -16 0
v -17 -17 0
v -18 -17 0
v -18 -16 0
v -17 -16 0
v -4 -17 0
v -5 -17 0
v -5 -16 0
v -4 -16 0
v -20 -18 0
v -21 -18 0
v -21 -17 0
v -20 -17 0
v -19 -18 0
v -20 -18 0
v -20 -17 0
v -19 -17 0
v -18 -18 0
v -19 -18 0
v -19 -17 0
v -18 -17 0
v -17 -18 0
v -18 -18 0
v -18 -17 0
v -17 -17 0
v -15 -18 0
v -16 -18 0
v -16 -17 0
v -15 -17 0
v -14 -18 0
v -15 -18 0
v -15 -17 0
v -14 -17 0
v -13 -18 0
v -14 -18 0
v -14 -17 0
v -13 -17 0

# Texture cooridinates (Count = 49)
vt 0.3 0.9
vt 0.4 0.9
vt 0.4 1
vt 0.3 1
vt 0.5 0.6
vt 0.6 0.6
vt 0.6 0.7
vt 0.5 0.7
vt 0.1 0.7
vt 0.2 0.7
vt 0.2 0.8
vt 0.1 0.8
vt 0.7 0.5
vt 0.8 0.5
vt 0.8 0.6
vt 0.7 0.6
vt 0.5 0.5
vt 0.6 0.5
vt 0 0.7
vt 0 0.8
vt 0.1 0.6
vt 0.2 0.6
vt 0 0.6
vt 0.1 0.1
vt 0.2 0.1
vt 0.2 0.2
vt 0.1 0.2
vt 0.3 0.7
vt 0.4 0.7
vt 0.4 0.8
vt 0.3 0.8
vt 0.3 0.6
vt 0.4 0.6
vt 0.6 0.4
vt 0.7 0.4
vt 0.6 0.3
vt 0.7 0.3
vt 0.4 0.4
vt 0.5 0.4
vt 0.4 0.5
vt 0.9 0.8
vt 1 0.8
vt 1 0.9
vt 0.9 0.9
vt 0.4 0.3
vt 0.5 0.3
vt 0.2 0.9
vt 0.1 0.9
vt 0 0.9

# Normal
vn 0 0 -1

# Mesh description
g Motel1_mesh_0005

# Faces
f 1/1/1 2/2/1 3/3/1 4/4/1
f 5/5/1 6/6/1 7/7/1 8/8/1
f 9/5/1 10/6/1 11/7/1 12/8/1
f 13/1/1 14/2/1 15/3/1 16/4/1
f 17/9/1 18/10/1 19/11/1 20/12/1
f 21/13/1 22/14/1 23/15/1 24/16/1
f 25/17/1 26/18/1 27/6/1 28/5/1
f 29/17/1 30/18/1 31/6/1 32/5/1
f 33/13/1 34/14/1 35/15/1 36/16/1
f 37/19/1 38/9/1 39/12/1 40/20/1
f 41/21/1 42/22/1 43/10/1 44/9/1
f 45/23/1 46/21/1 47/9/1 48/19/1
f 49/24/1 50/25/1 51/26/1 52/27/1
f 53/24/1 54/25/1 55/26/1 56/27/1
f 57/1/1 58/2/1 59/3/1 60/4/1
f 61/5/1 62/6/1 63/7/1 64/8/1
f 65/5/1 66/6/1 67/7/1 68/8/1
f 69/1/1 70/2/1 71/3/1 72/4/1
f 73/28/1 74/29/1 75/30/1 76/31/1
f 77/13/1 78/14/1 79/15/1 80/16/1
f 81/17/1 82/18/1 83/6/1 84/5/1
f 85/17/1 86/18/1 87/6/1 88/5/1
f 89/13/1 90/14/1 91/15/1 92/16/1
f 93/9/1 94/10/1 95/11/1 96/12/1
f 97/32/1 98/33/1 99/29/1 100/28/1
f 101/21/1 102/22/1 103/10/1 104/9/1
f 105/1/1 106/2/1 107/3/1 108/4/1
f 109/34/1 110/35/1 111/13/1 112/18/1
f 113/34/1 114/35/1 115/13/1 116/18/1
f 117/5/1 118/6/1 119/7/1 120/8/1
f 121/1/1 122/2/1 123/3/1 124/4/1
f 125/31/1 126/30/1 127/2/1 128/1/1
f 129/36/1 130/37/1 131/35/1 132/34/1
f 133/18/1 134/13/1 135/16/1 136/6/1
f 137/36/1 138/37/1 139/35/1 140/34/1
f 141/17/1 142/18/1 143/6/1 144/5/1
f 145/13/1 146/14/1 147/15/1 148/16/1
f 149/10/1 150/28/1 151/31/1 152/11/1
f 153/38/1 154/39/1 155/17/1 156/40/1
f 157/38/1 158/39/1 159/17/1 160/40/1
f 161/22/1 162/32/1 163/28/1 164/10/1
f 165/41/1 166/42/1 167/43/1 168/44/1
f 169/41/1 170/42/1 171/43/1 172/44/1
f 173/45/1 174/46/1 175/39/1 176/38/1
f 177/45/1 178/46/1 179/39/1 180/38/1
f 181/11/1 182/31/1 183/1/1 184/47/1
f 185/12/1 186/11/1 187/47/1 188/48/1
f 189/20/1 190/12/1 191/48/1 192/49/1

