# Tiled2Unity generated file. Do not modify by hand.
# Wavefront file for 'Motel1_mesh_0010.obj'

# Vertices (Count = 36)
v -5 -10 0
v -6 -10 0
v -6 -9 0
v -5 -9 0
v -14 -11 0
v -15 -11 0
v -15 -10 0
v -14 -10 0
v -5 -11 0
v -6 -11 0
v -6 -10 0
v -5 -10 0
v -13 -15 0
v -14 -15 0
v -14 -14 0
v -13 -14 0
v -13 -16 0
v -14 -16 0
v -14 -15 0
v -13 -15 0
v -6 -16 0
v -7 -16 0
v -7 -15 0
v -6 -15 0
v -15 -18 0
v -16 -18 0
v -16 -17 0
v -15 -17 0
v -17 -19 0
v -18 -19 0
v -18 -18 0
v -17 -18 0
v -19 -20 0
v -20 -20 0
v -20 -19 0
v -19 -19 0

# Texture cooridinates (Count = 12)
vt 0.9 0.8
vt 1 0.8
vt 1 0.9
vt 0.9 0.9
vt 0.8 0.7
vt 0.9 0.7
vt 0.8 0.8
vt 1 0.7
vt 0.7 0.7
vt 0.7 0.8
vt 0.6 0.7
vt 0.6 0.8

# Normal
vn 0 0 -1

# Mesh description
g Motel1_mesh_0010

# Faces
f 1/1/1 2/2/1 3/3/1 4/4/1
f 5/5/1 6/6/1 7/1/1 8/7/1
f 9/6/1 10/8/1 11/2/1 12/1/1
f 13/1/1 14/2/1 15/3/1 16/4/1
f 17/5/1 18/6/1 19/1/1 20/7/1
f 21/9/1 22/5/1 23/7/1 24/10/1
f 25/5/1 26/6/1 27/1/1 28/7/1
f 29/11/1 30/9/1 31/10/1 32/12/1
f 33/9/1 34/5/1 35/7/1 36/10/1

