# Tiled2Unity generated file. Do not modify by hand.
# Wavefront file for 'Motel1_mesh_0010.obj'

# Vertices (Count = 32)
v -5 -6 0
v -6 -6 0
v -6 -5 0
v -5 -5 0
v -5 -10 0
v -6 -10 0
v -6 -9 0
v -5 -9 0
v -13 -15 0
v -14 -15 0
v -14 -14 0
v -13 -14 0
v -13 -16 0
v -14 -16 0
v -14 -15 0
v -13 -15 0
v -6 -16 0
v -7 -16 0
v -7 -15 0
v -6 -15 0
v -15 -18 0
v -16 -18 0
v -16 -17 0
v -15 -17 0
v -17 -19 0
v -18 -19 0
v -18 -18 0
v -17 -18 0
v -19 -20 0
v -20 -20 0
v -20 -19 0
v -19 -19 0

# Texture cooridinates (Count = 11)
vt 0.8 0.7
vt 0.9 0.7
vt 0.9 0.8
vt 0.8 0.8
vt 1 0.8
vt 1 0.9
vt 0.9 0.9
vt 0.7 0.7
vt 0.7 0.8
vt 0.6 0.7
vt 0.6 0.8

# Normal
vn 0 0 -1

# Mesh description
g Motel1_mesh_0010

# Faces
f 1/1/1 2/2/1 3/3/1 4/4/1
f 5/3/1 6/5/1 7/6/1 8/7/1
f 9/3/1 10/5/1 11/6/1 12/7/1
f 13/1/1 14/2/1 15/3/1 16/4/1
f 17/8/1 18/1/1 19/4/1 20/9/1
f 21/1/1 22/2/1 23/3/1 24/4/1
f 25/10/1 26/8/1 27/9/1 28/11/1
f 29/8/1 30/1/1 31/4/1 32/9/1

