# Tiled2Unity generated file. Do not modify by hand.
# Wavefront file for 'Motel1_mesh_0005.obj'

# Vertices (Count = 124)
v -15 -5 0
v -16 -5 0
v -16 -4 0
v -15 -4 0
v -4 -5 0
v -5 -5 0
v -5 -4 0
v -4 -4 0
v -15 -6 0
v -16 -6 0
v -16 -5 0
v -15 -5 0
v -4 -6 0
v -5 -6 0
v -5 -5 0
v -4 -5 0
v -15 -8 0
v -16 -8 0
v -16 -7 0
v -15 -7 0
v -14 -8 0
v -15 -8 0
v -15 -7 0
v -14 -7 0
v -5 -8 0
v -6 -8 0
v -6 -7 0
v -5 -7 0
v -4 -8 0
v -5 -8 0
v -5 -7 0
v -4 -7 0
v -17 -9 0
v -18 -9 0
v -18 -8 0
v -17 -8 0
v -17 -10 0
v -18 -10 0
v -18 -9 0
v -17 -9 0
v -15 -10 0
v -16 -10 0
v -16 -9 0
v -15 -9 0
v -4 -10 0
v -5 -10 0
v -5 -9 0
v -4 -9 0
v -15 -11 0
v -16 -11 0
v -16 -10 0
v -15 -10 0
v -4 -11 0
v -5 -11 0
v -5 -10 0
v -4 -10 0
v -15 -13 0
v -16 -13 0
v -16 -12 0
v -15 -12 0
v -14 -13 0
v -15 -13 0
v -15 -12 0
v -14 -12 0
v -5 -13 0
v -6 -13 0
v -6 -12 0
v -5 -12 0
v -4 -13 0
v -5 -13 0
v -5 -12 0
v -4 -12 0
v -13 -15 0
v -14 -15 0
v -14 -14 0
v -13 -14 0
v -12 -15 0
v -13 -15 0
v -13 -14 0
v -12 -14 0
v -4 -15 0
v -5 -15 0
v -5 -14 0
v -4 -14 0
v -13 -16 0
v -14 -16 0
v -14 -15 0
v -13 -15 0
v -12 -16 0
v -13 -16 0
v -13 -15 0
v -12 -15 0
v -4 -16 0
v -5 -16 0
v -5 -15 0
v -4 -15 0
v -15 -17 0
v -16 -17 0
v -16 -16 0
v -15 -16 0
v -15 -18 0
v -16 -18 0
v -16 -17 0
v -15 -17 0
v -14 -18 0
v -15 -18 0
v -15 -17 0
v -14 -17 0
v -13 -18 0
v -14 -18 0
v -14 -17 0
v -13 -17 0
v -12 -18 0
v -13 -18 0
v -13 -17 0
v -12 -17 0
v -5 -18 0
v -6 -18 0
v -6 -17 0
v -5 -17 0
v -4 -18 0
v -5 -18 0
v -5 -17 0
v -4 -17 0

# Texture cooridinates (Count = 32)
vt 0 0.9
vt 0.1 0.9
vt 0.1 1
vt 0 1
vt 0 0.8
vt 0.1 0.8
vt 0.9 0.2
vt 1 0.2
vt 1 0.3
vt 0.9 0.3
vt 0.8 0.2
vt 0.8 0.3
vt 1 0.4
vt 0.9 0.4
vt 0.8 0.4
vt 0.1 0.1
vt 0.2 0.1
vt 0.2 0.2
vt 0.1 0.2
vt 0.2 0.9
vt 0.2 1
vt 0.2 0.8
vt 0.3 0.9
vt 0.4 0.9
vt 0.4 1
vt 0.3 1
vt 0.6 0.9
vt 0.7 0.9
vt 0.7 1
vt 0.6 1
vt 0.5 0.9
vt 0.5 1

# Normal
vn 0 0 -1

# Mesh description
g Motel1_mesh_0005

# Faces
f 1/1/1 2/2/1 3/3/1 4/4/1
f 5/1/1 6/2/1 7/3/1 8/4/1
f 9/5/1 10/6/1 11/2/1 12/1/1
f 13/5/1 14/6/1 15/2/1 16/1/1
f 17/7/1 18/8/1 19/9/1 20/10/1
f 21/11/1 22/7/1 23/10/1 24/12/1
f 25/10/1 26/9/1 27/13/1 28/14/1
f 29/12/1 30/10/1 31/14/1 32/15/1
f 33/16/1 34/17/1 35/18/1 36/19/1
f 37/16/1 38/17/1 39/18/1 40/19/1
f 41/1/1 42/2/1 43/3/1 44/4/1
f 45/1/1 46/2/1 47/3/1 48/4/1
f 49/5/1 50/6/1 51/2/1 52/1/1
f 53/5/1 54/6/1 55/2/1 56/1/1
f 57/7/1 58/8/1 59/9/1 60/10/1
f 61/11/1 62/7/1 63/10/1 64/12/1
f 65/10/1 66/9/1 67/13/1 68/14/1
f 69/12/1 70/10/1 71/14/1 72/15/1
f 73/2/1 74/20/1 75/21/1 76/3/1
f 77/1/1 78/2/1 79/3/1 80/4/1
f 81/1/1 82/2/1 83/3/1 84/4/1
f 85/6/1 86/22/1 87/20/1 88/2/1
f 89/5/1 90/6/1 91/2/1 92/1/1
f 93/5/1 94/6/1 95/2/1 96/1/1
f 97/23/1 98/24/1 99/25/1 100/26/1
f 101/27/1 102/28/1 103/29/1 104/30/1
f 105/24/1 106/31/1 107/32/1 108/25/1
f 109/31/1 110/27/1 111/30/1 112/32/1
f 113/24/1 114/31/1 115/32/1 116/25/1
f 117/10/1 118/9/1 119/13/1 120/14/1
f 121/12/1 122/10/1 123/14/1 124/15/1

