# Tiled2Unity generated file. Do not modify by hand.
# Wavefront file for 'dev_town_mesh_0002.obj'

# Vertices (Count = 48)
v -7 -6 0
v -8 -6 0
v -8 -5 0
v -7 -5 0
v -6 -6 0
v -7 -6 0
v -7 -5 0
v -6 -5 0
v -5 -6 0
v -6 -6 0
v -6 -5 0
v -5 -5 0
v -7 -7 0
v -8 -7 0
v -8 -6 0
v -7 -6 0
v -6 -7 0
v -7 -7 0
v -7 -6 0
v -6 -6 0
v -5 -7 0
v -6 -7 0
v -6 -6 0
v -5 -6 0
v -4 -7 0
v -5 -7 0
v -5 -6 0
v -4 -6 0
v -6 -8 0
v -7 -8 0
v -7 -7 0
v -6 -7 0
v -5 -8 0
v -6 -8 0
v -6 -7 0
v -5 -7 0
v -4 -8 0
v -5 -8 0
v -5 -7 0
v -4 -7 0
v -5 -9 0
v -6 -9 0
v -6 -8 0
v -5 -8 0
v -4 -9 0
v -5 -9 0
v -5 -8 0
v -4 -8 0

# Texture cooridinates (Count = 16)
vt 0.2 0.8
vt 0.3 0.8
vt 0.3 0.9
vt 0.2 0.9
vt 0.1 0.8
vt 0.1 0.9
vt 0 0.8
vt 0 0.9
vt 0.2 0.7
vt 0.3 0.7
vt 0.1 0.7
vt 0.2 0.6
vt 0.3 0.6
vt 0 0.7
vt 0 0.6
vt 0.1 0.6

# Normal
vn 0 0 -1

# Mesh description
g dev_town_mesh_0002

# Faces
f 1/1/1 2/2/1 3/3/1 4/4/1
f 5/5/1 6/1/1 7/4/1 8/6/1
f 9/7/1 10/5/1 11/6/1 12/8/1
f 13/9/1 14/10/1 15/2/1 16/1/1
f 17/11/1 18/9/1 19/1/1 20/5/1
f 21/11/1 22/9/1 23/1/1 24/5/1
f 25/7/1 26/5/1 27/6/1 28/8/1
f 29/12/1 30/13/1 31/10/1 32/9/1
f 33/11/1 34/9/1 35/1/1 36/5/1
f 37/14/1 38/11/1 39/5/1 40/7/1
f 41/12/1 42/13/1 43/10/1 44/9/1
f 45/15/1 46/16/1 47/11/1 48/14/1

