# Tiled2Unity generated file. Do not modify by hand.
# Wavefront file for 'dev_town_mesh_0003.obj'

# Vertices (Count = 96)
v -17 -1 0
v -18 -1 0
v -18 0 0
v -17 0 0
v -3 -1 0
v -4 -1 0
v -4 0 0
v -3 0 0
v -17 -2 0
v -18 -2 0
v -18 -1 0
v -17 -1 0
v -13 -2 0
v -14 -2 0
v -14 -1 0
v -13 -1 0
v -6 -2 0
v -7 -2 0
v -7 -1 0
v -6 -1 0
v -3 -2 0
v -4 -2 0
v -4 -1 0
v -3 -1 0
v -13 -3 0
v -14 -3 0
v -14 -2 0
v -13 -2 0
v -6 -3 0
v -7 -3 0
v -7 -2 0
v -6 -2 0
v -22 -4 0
v -23 -4 0
v -23 -3 0
v -22 -3 0
v -22 -5 0
v -23 -5 0
v -23 -4 0
v -22 -4 0
v -2 -7 0
v -3 -7 0
v -3 -6 0
v -2 -6 0
v -23 -8 0
v -24 -8 0
v -24 -7 0
v -23 -7 0
v -2 -8 0
v -3 -8 0
v -3 -7 0
v -2 -7 0
v -23 -9 0
v -24 -9 0
v -24 -8 0
v -23 -8 0
v -22 -10 0
v -23 -10 0
v -23 -9 0
v -22 -9 0
v -22 -11 0
v -23 -11 0
v -23 -10 0
v -22 -10 0
v -5 -11 0
v -6 -11 0
v -6 -10 0
v -5 -10 0
v -5 -12 0
v -6 -12 0
v -6 -11 0
v -5 -11 0
v -24 -13 0
v -25 -13 0
v -25 -12 0
v -24 -12 0
v -24 -14 0
v -25 -14 0
v -25 -13 0
v -24 -13 0
v -2 -14 0
v -3 -14 0
v -3 -13 0
v -2 -13 0
v -2 -15 0
v -3 -15 0
v -3 -14 0
v -2 -14 0
v -18 -16 0
v -19 -16 0
v -19 -15 0
v -18 -15 0
v -18 -17 0
v -19 -17 0
v -19 -16 0
v -18 -16 0

# Texture cooridinates (Count = 6)
vt 0.8 0.1
vt 0.9 0.1
vt 0.9 0.2
vt 0.8 0.2
vt 0.8 0
vt 0.9 0

# Normal
vn 0 0 -1

# Mesh description
g dev_town_mesh_0003

# Faces
f 1/1/1 2/2/1 3/3/1 4/4/1
f 5/1/1 6/2/1 7/3/1 8/4/1
f 9/5/1 10/6/1 11/2/1 12/1/1
f 13/1/1 14/2/1 15/3/1 16/4/1
f 17/1/1 18/2/1 19/3/1 20/4/1
f 21/5/1 22/6/1 23/2/1 24/1/1
f 25/5/1 26/6/1 27/2/1 28/1/1
f 29/5/1 30/6/1 31/2/1 32/1/1
f 33/1/1 34/2/1 35/3/1 36/4/1
f 37/5/1 38/6/1 39/2/1 40/1/1
f 41/1/1 42/2/1 43/3/1 44/4/1
f 45/1/1 46/2/1 47/3/1 48/4/1
f 49/5/1 50/6/1 51/2/1 52/1/1
f 53/5/1 54/6/1 55/2/1 56/1/1
f 57/1/1 58/2/1 59/3/1 60/4/1
f 61/5/1 62/6/1 63/2/1 64/1/1
f 65/1/1 66/2/1 67/3/1 68/4/1
f 69/5/1 70/6/1 71/2/1 72/1/1
f 73/1/1 74/2/1 75/3/1 76/4/1
f 77/5/1 78/6/1 79/2/1 80/1/1
f 81/1/1 82/2/1 83/3/1 84/4/1
f 85/5/1 86/6/1 87/2/1 88/1/1
f 89/1/1 90/2/1 91/3/1 92/4/1
f 93/5/1 94/6/1 95/2/1 96/1/1

