# Tiled2Unity generated file. Do not modify by hand.
# Wavefront file for 'dev_map_mesh_0006.obj'

# Vertices (Count = 116)
v -69 -61 0
v -70 -61 0
v -70 -60 0
v -69 -60 0
v -68 -61 0
v -69 -61 0
v -69 -60 0
v -68 -60 0
v -67 -61 0
v -68 -61 0
v -68 -60 0
v -67 -60 0
v -66 -61 0
v -67 -61 0
v -67 -60 0
v -66 -60 0
v -65 -61 0
v -66 -61 0
v -66 -60 0
v -65 -60 0
v -64 -61 0
v -65 -61 0
v -65 -60 0
v -64 -60 0
v -9 -19 0
v -10 -19 0
v -10 -18 0
v -9 -18 0
v -9 -18 0
v -10 -18 0
v -10 -17 0
v -9 -17 0
v -34 -16 0
v -35 -16 0
v -35 -15 0
v -34 -15 0
v -16 -16 0
v -17 -16 0
v -17 -15 0
v -16 -15 0
v -15 -16 0
v -16 -16 0
v -16 -15 0
v -15 -15 0
v -10 -16 0
v -11 -16 0
v -11 -15 0
v -10 -15 0
v -7 -16 0
v -8 -16 0
v -8 -15 0
v -7 -15 0
v -45 -15 0
v -46 -15 0
v -46 -14 0
v -45 -14 0
v -40 -15 0
v -41 -15 0
v -41 -14 0
v -40 -14 0
v -16 -15 0
v -17 -15 0
v -17 -14 0
v -16 -14 0
v -15 -15 0
v -16 -15 0
v -16 -14 0
v -15 -14 0
v -10 -15 0
v -11 -15 0
v -11 -14 0
v -10 -14 0
v -7 -15 0
v -8 -15 0
v -8 -14 0
v -7 -14 0
v -45 -14 0
v -46 -14 0
v -46 -13 0
v -45 -13 0
v -40 -14 0
v -41 -14 0
v -41 -13 0
v -40 -13 0
v -12 -11 0
v -13 -11 0
v -13 -10 0
v -12 -10 0
v -34 -10 0
v -35 -10 0
v -35 -9 0
v -34 -9 0
v -16 -10 0
v -17 -10 0
v -17 -9 0
v -16 -9 0
v -12 -10 0
v -13 -10 0
v -13 -9 0
v -12 -9 0
v -34 -9 0
v -35 -9 0
v -35 -8 0
v -34 -8 0
v -16 -9 0
v -17 -9 0
v -17 -8 0
v -16 -8 0
v -37 -5 0
v -38 -5 0
v -38 -4 0
v -37 -4 0
v -37 -4 0
v -38 -4 0
v -38 -3 0
v -37 -3 0

# Texture cooridinates (Count = 37)
vt 0.6 0.9
vt 0.7 0.9
vt 0.7 1
vt 0.6 1
vt 0.5 0.9
vt 0.5 1
vt 0.4 0.9
vt 0.4 1
vt 0 0.4
vt 0.1 0.4
vt 0.1 0.5
vt 0 0.5
vt 0.1 0.6
vt 0 0.6
vt 0.2 0.8
vt 0.3 0.8
vt 0.3 0.9
vt 0.2 0.9
vt 0.9 0.8
vt 1 0.8
vt 1 0.9
vt 0.9 0.9
vt 0.7 0.8
vt 0.8 0.8
vt 0.8 0.9
vt 0.1 0.8
vt 0.1 0.9
vt 0 0.8
vt 0 0.9
vt 1 1
vt 0.9 1
vt 0.8 1
vt 0.2 1
vt 0.1 1
vt 0 1
vt 0.1 0.7
vt 0 0.7

# Normal
vn 0 0 -1

# Mesh description
g dev_map_mesh_0006

# Faces
f 1/1/1 2/2/1 3/3/1 4/4/1
f 5/5/1 6/1/1 7/4/1 8/6/1
f 9/5/1 10/1/1 11/4/1 12/6/1
f 13/5/1 14/1/1 15/4/1 16/6/1
f 17/5/1 18/1/1 19/4/1 20/6/1
f 21/7/1 22/5/1 23/6/1 24/8/1
f 25/9/1 26/10/1 27/11/1 28/12/1
f 29/12/1 30/11/1 31/13/1 32/14/1
f 33/15/1 34/16/1 35/17/1 36/18/1
f 37/19/1 38/20/1 39/21/1 40/22/1
f 41/23/1 42/24/1 43/25/1 44/2/1
f 45/26/1 46/15/1 47/18/1 48/27/1
f 49/28/1 50/26/1 51/27/1 52/29/1
f 53/26/1 54/15/1 55/18/1 56/27/1
f 57/26/1 58/15/1 59/18/1 60/27/1
f 61/22/1 62/21/1 63/30/1 64/31/1
f 65/2/1 66/25/1 67/32/1 68/3/1
f 69/27/1 70/18/1 71/33/1 72/34/1
f 73/29/1 74/27/1 75/34/1 76/35/1
f 77/27/1 78/18/1 79/33/1 80/34/1
f 81/27/1 82/18/1 83/33/1 84/34/1
f 85/14/1 86/13/1 87/36/1 88/37/1
f 89/26/1 90/15/1 91/18/1 92/27/1
f 93/28/1 94/26/1 95/27/1 96/29/1
f 97/37/1 98/36/1 99/26/1 100/28/1
f 101/27/1 102/18/1 103/33/1 104/34/1
f 105/29/1 106/27/1 107/34/1 108/35/1
f 109/26/1 110/15/1 111/18/1 112/27/1
f 113/27/1 114/18/1 115/33/1 116/34/1

