# Tiled2Unity generated file. Do not modify by hand.
# Wavefront file for 'dev_map_north_mesh_0002.obj'

# Vertices (Count = 120)
v -30 -96 0
v -31 -96 0
v -31 -95 0
v -30 -95 0
v -29 -96 0
v -30 -96 0
v -30 -95 0
v -29 -95 0
v -28 -96 0
v -29 -96 0
v -29 -95 0
v -28 -95 0
v -27 -96 0
v -28 -96 0
v -28 -95 0
v -27 -95 0
v -26 -96 0
v -27 -96 0
v -27 -95 0
v -26 -95 0
v -25 -96 0
v -26 -96 0
v -26 -95 0
v -25 -95 0
v -30 -97 0
v -31 -97 0
v -31 -96 0
v -30 -96 0
v -29 -97 0
v -30 -97 0
v -30 -96 0
v -29 -96 0
v -28 -97 0
v -29 -97 0
v -29 -96 0
v -28 -96 0
v -27 -97 0
v -28 -97 0
v -28 -96 0
v -27 -96 0
v -26 -97 0
v -27 -97 0
v -27 -96 0
v -26 -96 0
v -25 -97 0
v -26 -97 0
v -26 -96 0
v -25 -96 0
v -30 -98 0
v -31 -98 0
v -31 -97 0
v -30 -97 0
v -29 -98 0
v -30 -98 0
v -30 -97 0
v -29 -97 0
v -28 -98 0
v -29 -98 0
v -29 -97 0
v -28 -97 0
v -27 -98 0
v -28 -98 0
v -28 -97 0
v -27 -97 0
v -26 -98 0
v -27 -98 0
v -27 -97 0
v -26 -97 0
v -25 -98 0
v -26 -98 0
v -26 -97 0
v -25 -97 0
v -30 -99 0
v -31 -99 0
v -31 -98 0
v -30 -98 0
v -29 -99 0
v -30 -99 0
v -30 -98 0
v -29 -98 0
v -28 -99 0
v -29 -99 0
v -29 -98 0
v -28 -98 0
v -27 -99 0
v -28 -99 0
v -28 -98 0
v -27 -98 0
v -26 -99 0
v -27 -99 0
v -27 -98 0
v -26 -98 0
v -25 -99 0
v -26 -99 0
v -26 -98 0
v -25 -98 0
v -30 -100 0
v -31 -100 0
v -31 -99 0
v -30 -99 0
v -29 -100 0
v -30 -100 0
v -30 -99 0
v -29 -99 0
v -28 -100 0
v -29 -100 0
v -29 -99 0
v -28 -99 0
v -27 -100 0
v -28 -100 0
v -28 -99 0
v -27 -99 0
v -26 -100 0
v -27 -100 0
v -27 -99 0
v -26 -99 0
v -25 -100 0
v -26 -100 0
v -26 -99 0
v -25 -99 0

# Texture cooridinates (Count = 18)
vt 0.7 0.5
vt 0.8 0.5
vt 0.8 0.6
vt 0.7 0.6
vt 0.6 0.5
vt 0.6 0.6
vt 0.5 0.5
vt 0.5 0.6
vt 0.7 0.4
vt 0.8 0.4
vt 0.6 0.4
vt 0.7 0.9
vt 0.8 0.9
vt 0.8 1
vt 0.7 1
vt 0.6 0.9
vt 0.6 1
vt 0.5 0.4

# Normal
vn 0 0 -1

# Mesh description
g dev_map_north_mesh_0002

# Faces
f 1/1/1 2/2/1 3/3/1 4/4/1
f 5/5/1 6/1/1 7/4/1 8/6/1
f 9/5/1 10/1/1 11/4/1 12/6/1
f 13/5/1 14/1/1 15/4/1 16/6/1
f 17/5/1 18/1/1 19/4/1 20/6/1
f 21/7/1 22/5/1 23/6/1 24/8/1
f 25/9/1 26/10/1 27/2/1 28/1/1
f 29/11/1 30/9/1 31/1/1 32/5/1
f 33/12/1 34/13/1 35/14/1 36/15/1
f 37/16/1 38/12/1 39/15/1 40/17/1
f 41/11/1 42/9/1 43/1/1 44/5/1
f 45/18/1 46/11/1 47/5/1 48/7/1
f 49/9/1 50/10/1 51/2/1 52/1/1
f 53/11/1 54/9/1 55/1/1 56/5/1
f 57/12/1 58/13/1 59/14/1 60/15/1
f 61/16/1 62/12/1 63/15/1 64/17/1
f 65/11/1 66/9/1 67/1/1 68/5/1
f 69/18/1 70/11/1 71/5/1 72/7/1
f 73/9/1 74/10/1 75/2/1 76/1/1
f 77/11/1 78/9/1 79/1/1 80/5/1
f 81/12/1 82/13/1 83/14/1 84/15/1
f 85/16/1 86/12/1 87/15/1 88/17/1
f 89/11/1 90/9/1 91/1/1 92/5/1
f 93/18/1 94/11/1 95/5/1 96/7/1
f 97/9/1 98/10/1 99/2/1 100/1/1
f 101/11/1 102/9/1 103/1/1 104/5/1
f 105/12/1 106/13/1 107/14/1 108/15/1
f 109/16/1 110/12/1 111/15/1 112/17/1
f 113/11/1 114/9/1 115/1/1 116/5/1
f 117/18/1 118/11/1 119/5/1 120/7/1

