# Tiled2Unity generated file. Do not modify by hand.
# Wavefront file for 'School1_mesh_0006.obj'

# Vertices (Count = 208)
v -10 -5 0
v -11 -5 0
v -11 -4 0
v -10 -4 0
v -9 -5 0
v -10 -5 0
v -10 -4 0
v -9 -4 0
v -8 -5 0
v -9 -5 0
v -9 -4 0
v -8 -4 0
v -6 -5 0
v -7 -5 0
v -7 -4 0
v -6 -4 0
v -10 -6 0
v -11 -6 0
v -11 -5 0
v -10 -5 0
v -9 -6 0
v -10 -6 0
v -10 -5 0
v -9 -5 0
v -8 -6 0
v -9 -6 0
v -9 -5 0
v -8 -5 0
v -6 -6 0
v -7 -6 0
v -7 -5 0
v -6 -5 0
v -20 -8 0
v -21 -8 0
v -21 -7 0
v -20 -7 0
v -20 -9 0
v -21 -9 0
v -21 -8 0
v -20 -8 0
v -19 -9 0
v -20 -9 0
v -20 -8 0
v -19 -8 0
v -20 -10 0
v -21 -10 0
v -21 -9 0
v -20 -9 0
v -19 -10 0
v -20 -10 0
v -20 -9 0
v -19 -9 0
v -16 -10 0
v -17 -10 0
v -17 -9 0
v -16 -9 0
v -15 -10 0
v -16 -10 0
v -16 -9 0
v -15 -9 0
v -10 -10 0
v -11 -10 0
v -11 -9 0
v -10 -9 0
v -20 -11 0
v -21 -11 0
v -21 -10 0
v -20 -10 0
v -19 -11 0
v -20 -11 0
v -20 -10 0
v -19 -10 0
v -16 -11 0
v -17 -11 0
v -17 -10 0
v -16 -10 0
v -15 -11 0
v -16 -11 0
v -16 -10 0
v -15 -10 0
v -20 -12 0
v -21 -12 0
v -21 -11 0
v -20 -11 0
v -19 -12 0
v -20 -12 0
v -20 -11 0
v -19 -11 0
v -16 -12 0
v -17 -12 0
v -17 -11 0
v -16 -11 0
v -15 -12 0
v -16 -12 0
v -16 -11 0
v -15 -11 0
v -20 -13 0
v -21 -13 0
v -21 -12 0
v -20 -12 0
v -19 -13 0
v -20 -13 0
v -20 -12 0
v -19 -12 0
v -16 -13 0
v -17 -13 0
v -17 -12 0
v -16 -12 0
v -15 -13 0
v -16 -13 0
v -16 -12 0
v -15 -12 0
v -20 -15 0
v -21 -15 0
v -21 -14 0
v -20 -14 0
v -20 -16 0
v -21 -16 0
v -21 -15 0
v -20 -15 0
v -17 -16 0
v -18 -16 0
v -18 -15 0
v -17 -15 0
v -20 -17 0
v -21 -17 0
v -21 -16 0
v -20 -16 0
v -19 -17 0
v -20 -17 0
v -20 -16 0
v -19 -16 0
v -4 -17 0
v -5 -17 0
v -5 -16 0
v -4 -16 0
v -20 -18 0
v -21 -18 0
v -21 -17 0
v -20 -17 0
v -19 -18 0
v -20 -18 0
v -20 -17 0
v -19 -17 0
v -16 -18 0
v -17 -18 0
v -17 -17 0
v -16 -17 0
v -15 -18 0
v -16 -18 0
v -16 -17 0
v -15 -17 0
v -11 -18 0
v -12 -18 0
v -12 -17 0
v -11 -17 0
v -10 -18 0
v -11 -18 0
v -11 -17 0
v -10 -17 0
v -9 -18 0
v -10 -18 0
v -10 -17 0
v -9 -17 0
v -8 -18 0
v -9 -18 0
v -9 -17 0
v -8 -17 0
v -7 -18 0
v -8 -18 0
v -8 -17 0
v -7 -17 0
v -4 -18 0
v -5 -18 0
v -5 -17 0
v -4 -17 0
v -20 -19 0
v -21 -19 0
v -21 -18 0
v -20 -18 0
v -19 -19 0
v -20 -19 0
v -20 -18 0
v -19 -18 0
v -16 -19 0
v -17 -19 0
v -17 -18 0
v -16 -18 0
v -15 -19 0
v -16 -19 0
v -16 -18 0
v -15 -18 0
v -20 -20 0
v -21 -20 0
v -21 -19 0
v -20 -19 0
v -19 -20 0
v -20 -20 0
v -20 -19 0
v -19 -19 0
v -16 -20 0
v -17 -20 0
v -17 -19 0
v -16 -19 0
v -15 -20 0
v -16 -20 0
v -16 -19 0
v -15 -19 0

# Texture cooridinates (Count = 34)
vt 0.9 0.9
vt 1 0.9
vt 1 1
vt 0.9 1
vt 0.4 0.4
vt 0.5 0.4
vt 0.5 0.5
vt 0.4 0.5
vt 0.3 0.9
vt 0.4 0.9
vt 0.4 1
vt 0.3 1
vt 0.9 0.8
vt 1 0.8
vt 0.4 0.3
vt 0.5 0.3
vt 0.6 0.5
vt 0.7 0.5
vt 0.7 0.6
vt 0.6 0.6
vt 0.8 0.5
vt 0.8 0.6
vt 0.8 0.9
vt 0.8 1
vt 0.7 0.9
vt 0.7 1
vt 0.8 0.3
vt 0.9 0.3
vt 0.9 0.4
vt 0.8 0.4
vt 0.3 0.8
vt 0.4 0.8
vt 1 0.3
vt 1 0.4

# Normal
vn 0 0 -1

# Mesh description
g School1_mesh_0006

# Faces
f 1/1/1 2/2/1 3/3/1 4/4/1
f 5/5/1 6/6/1 7/7/1 8/8/1
f 9/5/1 10/6/1 11/7/1 12/8/1
f 13/9/1 14/10/1 15/11/1 16/12/1
f 17/13/1 18/14/1 19/2/1 20/1/1
f 21/15/1 22/16/1 23/6/1 24/5/1
f 25/15/1 26/16/1 27/6/1 28/5/1
f 29/17/1 30/18/1 31/19/1 32/20/1
f 33/18/1 34/21/1 35/22/1 36/19/1
f 37/23/1 38/1/1 39/4/1 40/24/1
f 41/25/1 42/23/1 43/24/1 44/26/1
f 45/23/1 46/1/1 47/4/1 48/24/1
f 49/25/1 50/23/1 51/24/1 52/26/1
f 53/23/1 54/1/1 55/4/1 56/24/1
f 57/25/1 58/23/1 59/24/1 60/26/1
f 61/27/1 62/28/1 63/29/1 64/30/1
f 65/23/1 66/1/1 67/4/1 68/24/1
f 69/25/1 70/23/1 71/24/1 72/26/1
f 73/23/1 74/1/1 75/4/1 76/24/1
f 77/25/1 78/23/1 79/24/1 80/26/1
f 81/23/1 82/1/1 83/4/1 84/24/1
f 85/25/1 86/23/1 87/24/1 88/26/1
f 89/23/1 90/1/1 91/4/1 92/24/1
f 93/25/1 94/23/1 95/24/1 96/26/1
f 97/23/1 98/1/1 99/4/1 100/24/1
f 101/25/1 102/23/1 103/24/1 104/26/1
f 105/23/1 106/1/1 107/4/1 108/24/1
f 109/25/1 110/23/1 111/24/1 112/26/1
f 113/9/1 114/10/1 115/11/1 116/12/1
f 117/31/1 118/32/1 119/10/1 120/9/1
f 121/18/1 122/21/1 123/22/1 124/19/1
f 125/23/1 126/1/1 127/4/1 128/24/1
f 129/25/1 130/23/1 131/24/1 132/26/1
f 133/9/1 134/10/1 135/11/1 136/12/1
f 137/23/1 138/1/1 139/4/1 140/24/1
f 141/25/1 142/23/1 143/24/1 144/26/1
f 145/23/1 146/1/1 147/4/1 148/24/1
f 149/25/1 150/23/1 151/24/1 152/26/1
f 153/28/1 154/33/1 155/34/1 156/29/1
f 157/28/1 158/33/1 159/34/1 160/29/1
f 161/28/1 162/33/1 163/34/1 164/29/1
f 165/28/1 166/33/1 167/34/1 168/29/1
f 169/28/1 170/33/1 171/34/1 172/29/1
f 173/31/1 174/32/1 175/10/1 176/9/1
f 177/23/1 178/1/1 179/4/1 180/24/1
f 181/25/1 182/23/1 183/24/1 184/26/1
f 185/23/1 186/1/1 187/4/1 188/24/1
f 189/25/1 190/23/1 191/24/1 192/26/1
f 193/23/1 194/1/1 195/4/1 196/24/1
f 197/25/1 198/23/1 199/24/1 200/26/1
f 201/23/1 202/1/1 203/4/1 204/24/1
f 205/25/1 206/23/1 207/24/1 208/26/1

