# Tiled2Unity generated file. Do not modify by hand.
# Wavefront file for 'School1_mesh_0009.obj'

# Vertices (Count = 432)
v -14 -4 0
v -15 -4 0
v -15 -3 0
v -14 -3 0
v -13 -4 0
v -14 -4 0
v -14 -3 0
v -13 -3 0
v -12 -4 0
v -13 -4 0
v -13 -3 0
v -12 -3 0
v -11 -4 0
v -12 -4 0
v -12 -3 0
v -11 -3 0
v -10 -4 0
v -11 -4 0
v -11 -3 0
v -10 -3 0
v -9 -4 0
v -10 -4 0
v -10 -3 0
v -9 -3 0
v -8 -4 0
v -9 -4 0
v -9 -3 0
v -8 -3 0
v -7 -4 0
v -8 -4 0
v -8 -3 0
v -7 -3 0
v -6 -4 0
v -7 -4 0
v -7 -3 0
v -6 -3 0
v -5 -4 0
v -6 -4 0
v -6 -3 0
v -5 -3 0
v -4 -4 0
v -5 -4 0
v -5 -3 0
v -4 -3 0
v -3 -4 0
v -4 -4 0
v -4 -3 0
v -3 -3 0
v -14 -5 0
v -15 -5 0
v -15 -4 0
v -14 -4 0
v -11 -5 0
v -12 -5 0
v -12 -4 0
v -11 -4 0
v -7 -5 0
v -8 -5 0
v -8 -4 0
v -7 -4 0
v -3 -5 0
v -4 -5 0
v -4 -4 0
v -3 -4 0
v -21 -6 0
v -22 -6 0
v -22 -5 0
v -21 -5 0
v -20 -6 0
v -21 -6 0
v -21 -5 0
v -20 -5 0
v -19 -6 0
v -20 -6 0
v -20 -5 0
v -19 -5 0
v -18 -6 0
v -19 -6 0
v -19 -5 0
v -18 -5 0
v -17 -6 0
v -18 -6 0
v -18 -5 0
v -17 -5 0
v -16 -6 0
v -17 -6 0
v -17 -5 0
v -16 -5 0
v -15 -6 0
v -16 -6 0
v -16 -5 0
v -15 -5 0
v -14 -6 0
v -15 -6 0
v -15 -5 0
v -14 -5 0
v -7 -6 0
v -8 -6 0
v -8 -5 0
v -7 -5 0
v -3 -6 0
v -4 -6 0
v -4 -5 0
v -3 -5 0
v -21 -7 0
v -22 -7 0
v -22 -6 0
v -21 -6 0
v -7 -7 0
v -8 -7 0
v -8 -6 0
v -7 -6 0
v -3 -7 0
v -4 -7 0
v -4 -6 0
v -3 -6 0
v -21 -8 0
v -22 -8 0
v -22 -7 0
v -21 -7 0
v -11 -8 0
v -12 -8 0
v -12 -7 0
v -11 -7 0
v -10 -8 0
v -11 -8 0
v -11 -7 0
v -10 -7 0
v -9 -8 0
v -10 -8 0
v -10 -7 0
v -9 -7 0
v -8 -8 0
v -9 -8 0
v -9 -7 0
v -8 -7 0
v -7 -8 0
v -8 -8 0
v -8 -7 0
v -7 -7 0
v -6 -8 0
v -7 -8 0
v -7 -7 0
v -6 -7 0
v -5 -8 0
v -6 -8 0
v -6 -7 0
v -5 -7 0
v -3 -8 0
v -4 -8 0
v -4 -7 0
v -3 -7 0
v -21 -9 0
v -22 -9 0
v -22 -8 0
v -21 -8 0
v -14 -9 0
v -15 -9 0
v -15 -8 0
v -14 -8 0
v -11 -9 0
v -12 -9 0
v -12 -8 0
v -11 -8 0
v -3 -9 0
v -4 -9 0
v -4 -8 0
v -3 -8 0
v -21 -10 0
v -22 -10 0
v -22 -9 0
v -21 -9 0
v -14 -10 0
v -15 -10 0
v -15 -9 0
v -14 -9 0
v -11 -10 0
v -12 -10 0
v -12 -9 0
v -11 -9 0
v -3 -10 0
v -4 -10 0
v -4 -9 0
v -3 -9 0
v -21 -11 0
v -22 -11 0
v -22 -10 0
v -21 -10 0
v -14 -11 0
v -15 -11 0
v -15 -10 0
v -14 -10 0
v -11 -11 0
v -12 -11 0
v -12 -10 0
v -11 -10 0
v -3 -11 0
v -4 -11 0
v -4 -10 0
v -3 -10 0
v -21 -12 0
v -22 -12 0
v -22 -11 0
v -21 -11 0
v -14 -12 0
v -15 -12 0
v -15 -11 0
v -14 -11 0
v -11 -12 0
v -12 -12 0
v -12 -11 0
v -11 -11 0
v -3 -12 0
v -4 -12 0
v -4 -11 0
v -3 -11 0
v -21 -13 0
v -22 -13 0
v -22 -12 0
v -21 -12 0
v -14 -13 0
v -15 -13 0
v -15 -12 0
v -14 -12 0
v -11 -13 0
v -12 -13 0
v -12 -12 0
v -11 -12 0
v -3 -13 0
v -4 -13 0
v -4 -12 0
v -3 -12 0
v -21 -14 0
v -22 -14 0
v -22 -13 0
v -21 -13 0
v -20 -14 0
v -21 -14 0
v -21 -13 0
v -20 -13 0
v -19 -14 0
v -20 -14 0
v -20 -13 0
v -19 -13 0
v -18 -14 0
v -19 -14 0
v -19 -13 0
v -18 -13 0
v -17 -14 0
v -18 -14 0
v -18 -13 0
v -17 -13 0
v -16 -14 0
v -17 -14 0
v -17 -13 0
v -16 -13 0
v -15 -14 0
v -16 -14 0
v -16 -13 0
v -15 -13 0
v -14 -14 0
v -15 -14 0
v -15 -13 0
v -14 -13 0
v -11 -14 0
v -12 -14 0
v -12 -13 0
v -11 -13 0
v -3 -14 0
v -4 -14 0
v -4 -13 0
v -3 -13 0
v -21 -15 0
v -22 -15 0
v -22 -14 0
v -21 -14 0
v -11 -15 0
v -12 -15 0
v -12 -14 0
v -11 -14 0
v -3 -15 0
v -4 -15 0
v -4 -14 0
v -3 -14 0
v -21 -16 0
v -22 -16 0
v -22 -15 0
v -21 -15 0
v -11 -16 0
v -12 -16 0
v -12 -15 0
v -11 -15 0
v -10 -16 0
v -11 -16 0
v -11 -15 0
v -10 -15 0
v -9 -16 0
v -10 -16 0
v -10 -15 0
v -9 -15 0
v -8 -16 0
v -9 -16 0
v -9 -15 0
v -8 -15 0
v -7 -16 0
v -8 -16 0
v -8 -15 0
v -7 -15 0
v -4 -16 0
v -5 -16 0
v -5 -15 0
v -4 -15 0
v -3 -16 0
v -4 -16 0
v -4 -15 0
v -3 -15 0
v -21 -17 0
v -22 -17 0
v -22 -16 0
v -21 -16 0
v -14 -17 0
v -15 -17 0
v -15 -16 0
v -14 -16 0
v -3 -17 0
v -4 -17 0
v -4 -16 0
v -3 -16 0
v -21 -18 0
v -22 -18 0
v -22 -17 0
v -21 -17 0
v -14 -18 0
v -15 -18 0
v -15 -17 0
v -14 -17 0
v -3 -18 0
v -4 -18 0
v -4 -17 0
v -3 -17 0
v -21 -19 0
v -22 -19 0
v -22 -18 0
v -21 -18 0
v -14 -19 0
v -15 -19 0
v -15 -18 0
v -14 -18 0
v -3 -19 0
v -4 -19 0
v -4 -18 0
v -3 -18 0
v -21 -20 0
v -22 -20 0
v -22 -19 0
v -21 -19 0
v -14 -20 0
v -15 -20 0
v -15 -19 0
v -14 -19 0
v -3 -20 0
v -4 -20 0
v -4 -19 0
v -3 -19 0
v -21 -21 0
v -22 -21 0
v -22 -20 0
v -21 -20 0
v -20 -21 0
v -21 -21 0
v -21 -20 0
v -20 -20 0
v -19 -21 0
v -20 -21 0
v -20 -20 0
v -19 -20 0
v -18 -21 0
v -19 -21 0
v -19 -20 0
v -18 -20 0
v -17 -21 0
v -18 -21 0
v -18 -20 0
v -17 -20 0
v -16 -21 0
v -17 -21 0
v -17 -20 0
v -16 -20 0
v -15 -21 0
v -16 -21 0
v -16 -20 0
v -15 -20 0
v -14 -21 0
v -15 -21 0
v -15 -20 0
v -14 -20 0
v -13 -21 0
v -14 -21 0
v -14 -20 0
v -13 -20 0
v -12 -21 0
v -13 -21 0
v -13 -20 0
v -12 -20 0
v -11 -21 0
v -12 -21 0
v -12 -20 0
v -11 -20 0
v -10 -21 0
v -11 -21 0
v -11 -20 0
v -10 -20 0
v -9 -21 0
v -10 -21 0
v -10 -20 0
v -9 -20 0
v -8 -21 0
v -9 -21 0
v -9 -20 0
v -8 -20 0
v -7 -21 0
v -8 -21 0
v -8 -20 0
v -7 -20 0
v -4 -21 0
v -5 -21 0
v -5 -20 0
v -4 -20 0
v -3 -21 0
v -4 -21 0
v -4 -20 0
v -3 -20 0

# Texture cooridinates (Count = 24)
vt 0.0625 0.6875
vt 0.125 0.6875
vt 0.125 0.75
vt 0.0625 0.75
vt 0.0625 0.5625
vt 0.125 0.5625
vt 0.125 0.625
vt 0.0625 0.625
vt 0.1875 0.625
vt 0.1875 0.6875
vt 0.1875 0.5625
vt 0 0.6875
vt 0 0.75
vt 0 0.5625
vt 0 0.625
vt 0.25 0.5625
vt 0.25 0.625
vt 0.25 0.6875
vt 0.3125 0.6875
vt 0.3125 0.75
vt 0.25 0.75
vt 0.3125 0.5625
vt 0.3125 0.625
vt 0.1875 0.75

# Normal
vn 0 0 -1

# Mesh description
g School1_mesh_0009

# Faces
f 1/1/1 2/2/1 3/3/1 4/4/1
f 5/5/1 6/6/1 7/7/1 8/8/1
f 9/5/1 10/6/1 11/7/1 12/8/1
f 13/7/1 14/9/1 15/10/1 16/2/1
f 17/5/1 18/6/1 19/7/1 20/8/1
f 21/5/1 22/6/1 23/7/1 24/8/1
f 25/5/1 26/6/1 27/7/1 28/8/1
f 29/6/1 30/11/1 31/9/1 32/7/1
f 33/5/1 34/6/1 35/7/1 36/8/1
f 37/5/1 38/6/1 39/7/1 40/8/1
f 41/5/1 42/6/1 43/7/1 44/8/1
f 45/12/1 46/1/1 47/4/1 48/13/1
f 49/14/1 50/5/1 51/8/1 52/15/1
f 53/11/1 54/16/1 55/17/1 56/9/1
f 57/14/1 58/5/1 59/8/1 60/15/1
f 61/14/1 62/5/1 63/8/1 64/15/1
f 65/1/1 66/2/1 67/3/1 68/4/1
f 69/5/1 70/6/1 71/7/1 72/8/1
f 73/5/1 74/6/1 75/7/1 76/8/1
f 77/5/1 78/6/1 79/7/1 80/8/1
f 81/5/1 82/6/1 83/7/1 84/8/1
f 85/5/1 86/6/1 87/7/1 88/8/1
f 89/5/1 90/6/1 91/7/1 92/8/1
f 93/15/1 94/8/1 95/1/1 96/12/1
f 97/14/1 98/5/1 99/8/1 100/15/1
f 101/14/1 102/5/1 103/8/1 104/15/1
f 105/14/1 106/5/1 107/8/1 108/15/1
f 109/14/1 110/5/1 111/8/1 112/15/1
f 113/14/1 114/5/1 115/8/1 116/15/1
f 117/14/1 118/5/1 119/8/1 120/15/1
f 121/14/1 122/5/1 123/8/1 124/15/1
f 125/5/1 126/6/1 127/7/1 128/8/1
f 129/5/1 130/6/1 131/7/1 132/8/1
f 133/5/1 134/6/1 135/7/1 136/8/1
f 137/9/1 138/17/1 139/18/1 140/10/1
f 141/5/1 142/6/1 143/7/1 144/8/1
f 145/18/1 146/19/1 147/20/1 148/21/1
f 149/14/1 150/5/1 151/8/1 152/15/1
f 153/14/1 154/5/1 155/8/1 156/15/1
f 157/16/1 158/22/1 159/23/1 160/17/1
f 161/14/1 162/5/1 163/8/1 164/15/1
f 165/14/1 166/5/1 167/8/1 168/15/1
f 169/14/1 170/5/1 171/8/1 172/15/1
f 173/14/1 174/5/1 175/8/1 176/15/1
f 177/14/1 178/5/1 179/8/1 180/15/1
f 181/14/1 182/5/1 183/8/1 184/15/1
f 185/14/1 186/5/1 187/8/1 188/15/1
f 189/14/1 190/5/1 191/8/1 192/15/1
f 193/14/1 194/5/1 195/8/1 196/15/1
f 197/14/1 198/5/1 199/8/1 200/15/1
f 201/14/1 202/5/1 203/8/1 204/15/1
f 205/14/1 206/5/1 207/8/1 208/15/1
f 209/14/1 210/5/1 211/8/1 212/15/1
f 213/14/1 214/5/1 215/8/1 216/15/1
f 217/14/1 218/5/1 219/8/1 220/15/1
f 221/14/1 222/5/1 223/8/1 224/15/1
f 225/14/1 226/5/1 227/8/1 228/15/1
f 229/14/1 230/5/1 231/8/1 232/15/1
f 233/10/1 234/18/1 235/21/1 236/24/1
f 237/5/1 238/6/1 239/7/1 240/8/1
f 241/5/1 242/6/1 243/7/1 244/8/1
f 245/5/1 246/6/1 247/7/1 248/8/1
f 249/5/1 250/6/1 251/7/1 252/8/1
f 253/5/1 254/6/1 255/7/1 256/8/1
f 257/5/1 258/6/1 259/7/1 260/8/1
f 261/15/1 262/8/1 263/1/1 264/12/1
f 265/14/1 266/5/1 267/8/1 268/15/1
f 269/14/1 270/5/1 271/8/1 272/15/1
f 273/14/1 274/5/1 275/8/1 276/15/1
f 277/14/1 278/5/1 279/8/1 280/15/1
f 281/14/1 282/5/1 283/8/1 284/15/1
f 285/14/1 286/5/1 287/8/1 288/15/1
f 289/8/1 290/7/1 291/2/1 292/1/1
f 293/5/1 294/6/1 295/7/1 296/8/1
f 297/5/1 298/6/1 299/7/1 300/8/1
f 301/5/1 302/6/1 303/7/1 304/8/1
f 305/18/1 306/19/1 307/20/1 308/21/1
f 309/17/1 310/23/1 311/19/1 312/18/1
f 313/2/1 314/10/1 315/24/1 316/3/1
f 317/14/1 318/5/1 319/8/1 320/15/1
f 321/16/1 322/22/1 323/23/1 324/17/1
f 325/14/1 326/5/1 327/8/1 328/15/1
f 329/14/1 330/5/1 331/8/1 332/15/1
f 333/14/1 334/5/1 335/8/1 336/15/1
f 337/14/1 338/5/1 339/8/1 340/15/1
f 341/14/1 342/5/1 343/8/1 344/15/1
f 345/14/1 346/5/1 347/8/1 348/15/1
f 349/14/1 350/5/1 351/8/1 352/15/1
f 353/14/1 354/5/1 355/8/1 356/15/1
f 357/14/1 358/5/1 359/8/1 360/15/1
f 361/14/1 362/5/1 363/8/1 364/15/1
f 365/8/1 366/7/1 367/2/1 368/1/1
f 369/5/1 370/6/1 371/7/1 372/8/1
f 373/5/1 374/6/1 375/7/1 376/8/1
f 377/5/1 378/6/1 379/7/1 380/8/1
f 381/5/1 382/6/1 383/7/1 384/8/1
f 385/5/1 386/6/1 387/7/1 388/8/1
f 389/5/1 390/6/1 391/7/1 392/8/1
f 393/9/1 394/17/1 395/18/1 396/10/1
f 397/5/1 398/6/1 399/7/1 400/8/1
f 401/5/1 402/6/1 403/7/1 404/8/1
f 405/5/1 406/6/1 407/7/1 408/8/1
f 409/5/1 410/6/1 411/7/1 412/8/1
f 413/5/1 414/6/1 415/7/1 416/8/1
f 417/5/1 418/6/1 419/7/1 420/8/1
f 421/18/1 422/19/1 423/20/1 424/21/1
f 425/17/1 426/23/1 427/19/1 428/18/1
f 429/15/1 430/8/1 431/1/1 432/12/1

