# Tiled2Unity generated file. Do not modify by hand.
# Wavefront file for 'School1_mesh_0007.obj'

# Vertices (Count = 28)
v -10 -5 0
v -11 -5 0
v -11 -4 0
v -10 -4 0
v -18 -7 0
v -19 -7 0
v -19 -6 0
v -18 -6 0
v -17 -7 0
v -18 -7 0
v -18 -6 0
v -17 -6 0
v -20 -8 0
v -21 -8 0
v -21 -7 0
v -20 -7 0
v -7 -9 0
v -8 -9 0
v -8 -8 0
v -7 -8 0
v -20 -17 0
v -21 -17 0
v -21 -16 0
v -20 -16 0
v -16 -18 0
v -17 -18 0
v -17 -17 0
v -16 -17 0

# Texture cooridinates (Count = 18)
vt 0 0.9
vt 0.1 0.9
vt 0.1 1
vt 0 1
vt 0.5 0.9
vt 0.6 0.9
vt 0.6 1
vt 0.5 1
vt 0.4 0.9
vt 0.4 1
vt 0.8 0.7
vt 0.9 0.7
vt 0.9 0.8
vt 0.8 0.8
vt 0 0.6
vt 0.1 0.6
vt 0.1 0.7
vt 0 0.7

# Normal
vn 0 0 -1

# Mesh description
g School1_mesh_0007

# Faces
f 1/1/1 2/2/1 3/3/1 4/4/1
f 5/5/1 6/6/1 7/7/1 8/8/1
f 9/9/1 10/5/1 11/8/1 12/10/1
f 13/11/1 14/12/1 15/13/1 16/14/1
f 17/15/1 18/16/1 19/17/1 20/18/1
f 21/11/1 22/12/1 23/13/1 24/14/1
f 25/11/1 26/12/1 27/13/1 28/14/1

