# Tiled2Unity generated file. Do not modify by hand.
# Wavefront file for 'TownHouse1_mesh_0010.obj'

# Vertices (Count = 20)
v -20 -7 0
v -21 -7 0
v -21 -6 0
v -20 -6 0
v -19 -13 0
v -20 -13 0
v -20 -12 0
v -19 -12 0
v -17 -13 0
v -18 -13 0
v -18 -12 0
v -17 -12 0
v -11 -13 0
v -12 -13 0
v -12 -12 0
v -11 -12 0
v -11 -14 0
v -12 -14 0
v -12 -13 0
v -11 -13 0

# Texture cooridinates (Count = 17)
vt 0.3 0.9
vt 0.4 0.9
vt 0.4 1
vt 0.3 1
vt 0 0.8
vt 0.1 0.8
vt 0.1 0.9
vt 0 0.9
vt 0.1 1
vt 0 1
vt 0.9 0.8
vt 1 0.8
vt 1 0.9
vt 0.9 0.9
vt 0.8 0.7
vt 0.9 0.7
vt 0.8 0.8

# Normal
vn 0 0 -1

# Mesh description
g TownHouse1_mesh_0010

# Faces
f 1/1/1 2/2/1 3/3/1 4/4/1
f 5/5/1 6/6/1 7/7/1 8/8/1
f 9/8/1 10/7/1 11/9/1 12/10/1
f 13/11/1 14/12/1 15/13/1 16/14/1
f 17/15/1 18/16/1 19/11/1 20/17/1

