# Tiled2Unity generated file. Do not modify by hand.
# Wavefront file for 'TownHouse1_mesh_0006.obj'

# Vertices (Count = 160)
v -18 -7 0
v -19 -7 0
v -19 -6 0
v -18 -6 0
v -9 -7 0
v -10 -7 0
v -10 -6 0
v -9 -6 0
v -7 -7 0
v -8 -7 0
v -8 -6 0
v -7 -6 0
v -20 -8 0
v -21 -8 0
v -21 -7 0
v -20 -7 0
v -18 -8 0
v -19 -8 0
v -19 -7 0
v -18 -7 0
v -15 -8 0
v -16 -8 0
v -16 -7 0
v -15 -7 0
v -11 -8 0
v -12 -8 0
v -12 -7 0
v -11 -7 0
v -10 -8 0
v -11 -8 0
v -11 -7 0
v -10 -7 0
v -9 -8 0
v -10 -8 0
v -10 -7 0
v -9 -7 0
v -20 -9 0
v -21 -9 0
v -21 -8 0
v -20 -8 0
v -15 -9 0
v -16 -9 0
v -16 -8 0
v -15 -8 0
v -20 -10 0
v -21 -10 0
v -21 -9 0
v -20 -9 0
v -20 -13 0
v -21 -13 0
v -21 -12 0
v -20 -12 0
v -18 -13 0
v -19 -13 0
v -19 -12 0
v -18 -12 0
v -17 -13 0
v -18 -13 0
v -18 -12 0
v -17 -12 0
v -15 -13 0
v -16 -13 0
v -16 -12 0
v -15 -12 0
v -14 -13 0
v -15 -13 0
v -15 -12 0
v -14 -12 0
v -13 -13 0
v -14 -13 0
v -14 -12 0
v -13 -12 0
v -9 -13 0
v -10 -13 0
v -10 -12 0
v -9 -12 0
v -8 -13 0
v -9 -13 0
v -9 -12 0
v -8 -12 0
v -7 -13 0
v -8 -13 0
v -8 -12 0
v -7 -12 0
v -6 -13 0
v -7 -13 0
v -7 -12 0
v -6 -12 0
v -5 -13 0
v -6 -13 0
v -6 -12 0
v -5 -12 0
v -4 -13 0
v -5 -13 0
v -5 -12 0
v -4 -12 0
v -20 -14 0
v -21 -14 0
v -21 -13 0
v -20 -13 0
v -18 -14 0
v -19 -14 0
v -19 -13 0
v -18 -13 0
v -17 -14 0
v -18 -14 0
v -18 -13 0
v -17 -13 0
v -15 -14 0
v -16 -14 0
v -16 -13 0
v -15 -13 0
v -14 -14 0
v -15 -14 0
v -15 -13 0
v -14 -13 0
v -13 -14 0
v -14 -14 0
v -14 -13 0
v -13 -13 0
v -11 -14 0
v -12 -14 0
v -12 -13 0
v -11 -13 0
v -9 -14 0
v -10 -14 0
v -10 -13 0
v -9 -13 0
v -8 -14 0
v -9 -14 0
v -9 -13 0
v -8 -13 0
v -7 -14 0
v -8 -14 0
v -8 -13 0
v -7 -13 0
v -6 -14 0
v -7 -14 0
v -7 -13 0
v -6 -13 0
v -5 -14 0
v -6 -14 0
v -6 -13 0
v -5 -13 0
v -4 -14 0
v -5 -14 0
v -5 -13 0
v -4 -13 0
v -20 -15 0
v -21 -15 0
v -21 -14 0
v -20 -14 0
v -7 -17 0
v -8 -17 0
v -8 -16 0
v -7 -16 0
v -6 -17 0
v -7 -17 0
v -7 -16 0
v -6 -16 0

# Texture cooridinates (Count = 68)
vt 0.5 0.6
vt 0.6 0.6
vt 0.6 0.7
vt 0.5 0.7
vt 0.3 0.9
vt 0.4 0.9
vt 0.4 1
vt 0.3 1
vt 0 0.1
vt 0.1 0.1
vt 0.1 0.2
vt 0 0.2
vt 0.6 0.5
vt 0.7 0.5
vt 0.7 0.6
vt 0.5 0.5
vt 0.6 0.8
vt 0.7 0.8
vt 0.7 0.9
vt 0.6 0.9
vt 0.7 1
vt 0.6 1
vt 0.5 0.9
vt 0.5 1
vt 0.1 0.7
vt 0.2 0.7
vt 0.2 0.8
vt 0.1 0.8
vt 0.7 0.7
vt 0.1 0.6
vt 0.2 0.6
vt 0 0.5
vt 0.1 0.5
vt 0 0.6
vt 0.2 0.4
vt 0.3 0.4
vt 0.3 0.5
vt 0.2 0.5
vt 0.9 0.9
vt 1 0.9
vt 1 1
vt 0.9 1
vt 0.5 0.1
vt 0.6 0.1
vt 0.6 0.2
vt 0.5 0.2
vt 0.4 0.1
vt 0.4 0.2
vt 0.3 0.1
vt 0.3 0.2
vt 0.5 0.4
vt 0.6 0.4
vt 0 0.4
vt 0.1 0.4
vt 0.2 0.3
vt 0.3 0.3
vt 0.9 0.8
vt 1 0.8
vt 0.5 0
vt 0.6 0
vt 0.4 0
vt 0.3 0
vt 0.5 0.3
vt 0.6 0.3
vt 0.8 0.8
vt 0.8 0.9
vt 0 0.3
vt 0.1 0.3

# Normal
vn 0 0 -1

# Mesh description
g TownHouse1_mesh_0006

# Faces
f 1/1/1 2/2/1 3/3/1 4/4/1
f 5/5/1 6/6/1 7/7/1 8/8/1
f 9/9/1 10/10/1 11/11/1 12/12/1
f 13/13/1 14/14/1 15/15/1 16/2/1
f 17/16/1 18/13/1 19/2/1 20/1/1
f 21/17/1 22/18/1 23/19/1 24/20/1
f 25/20/1 26/19/1 27/21/1 28/22/1
f 29/23/1 30/20/1 31/22/1 32/24/1
f 33/6/1 34/23/1 35/24/1 36/7/1
f 37/25/1 38/26/1 39/27/1 40/28/1
f 41/3/1 42/29/1 43/18/1 44/17/1
f 45/30/1 46/31/1 47/26/1 48/25/1
f 49/32/1 50/33/1 51/30/1 52/34/1
f 53/35/1 54/36/1 55/37/1 56/38/1
f 57/39/1 58/40/1 59/41/1 60/42/1
f 61/43/1 62/44/1 63/45/1 64/46/1
f 65/47/1 66/43/1 67/46/1 68/48/1
f 69/49/1 70/47/1 71/48/1 72/50/1
f 73/1/1 74/2/1 75/3/1 76/4/1
f 77/51/1 78/52/1 79/13/1 80/16/1
f 81/5/1 82/6/1 83/7/1 84/8/1
f 85/5/1 86/6/1 87/7/1 88/8/1
f 89/5/1 90/6/1 91/7/1 92/8/1
f 93/5/1 94/6/1 95/7/1 96/8/1
f 97/53/1 98/54/1 99/33/1 100/32/1
f 101/55/1 102/56/1 103/36/1 104/35/1
f 105/57/1 106/58/1 107/40/1 108/39/1
f 109/59/1 110/60/1 111/44/1 112/43/1
f 113/61/1 114/59/1 115/43/1 116/47/1
f 117/62/1 118/61/1 119/47/1 120/49/1
f 121/13/1 122/14/1 123/15/1 124/2/1
f 125/16/1 126/13/1 127/2/1 128/1/1
f 129/63/1 130/64/1 131/52/1 132/51/1
f 133/65/1 134/57/1 135/39/1 136/66/1
f 137/18/1 138/65/1 139/66/1 140/19/1
f 141/20/1 142/19/1 143/21/1 144/22/1
f 145/6/1 146/23/1 147/24/1 148/7/1
f 149/67/1 150/68/1 151/54/1 152/53/1
f 153/20/1 154/19/1 155/21/1 156/22/1
f 157/6/1 158/23/1 159/24/1 160/7/1

