# Tiled2Unity generated file. Do not modify by hand.
# Wavefront file for 'TownHouse1_mesh_0006.obj'

# Vertices (Count = 84)
v -20 -7 0
v -21 -7 0
v -21 -6 0
v -20 -6 0
v -19 -7 0
v -20 -7 0
v -20 -6 0
v -19 -6 0
v -18 -7 0
v -19 -7 0
v -19 -6 0
v -18 -6 0
v -7 -7 0
v -8 -7 0
v -8 -6 0
v -7 -6 0
v -20 -8 0
v -21 -8 0
v -21 -7 0
v -20 -7 0
v -19 -8 0
v -20 -8 0
v -20 -7 0
v -19 -7 0
v -9 -9 0
v -10 -9 0
v -10 -8 0
v -9 -8 0
v -9 -10 0
v -10 -10 0
v -10 -9 0
v -9 -9 0
v -9 -11 0
v -10 -11 0
v -10 -10 0
v -9 -10 0
v -15 -13 0
v -16 -13 0
v -16 -12 0
v -15 -12 0
v -7 -13 0
v -8 -13 0
v -8 -12 0
v -7 -12 0
v -6 -13 0
v -7 -13 0
v -7 -12 0
v -6 -12 0
v -5 -13 0
v -6 -13 0
v -6 -12 0
v -5 -12 0
v -4 -13 0
v -5 -13 0
v -5 -12 0
v -4 -12 0
v -15 -14 0
v -16 -14 0
v -16 -13 0
v -15 -13 0
v -9 -14 0
v -10 -14 0
v -10 -13 0
v -9 -13 0
v -8 -14 0
v -9 -14 0
v -9 -13 0
v -8 -13 0
v -7 -14 0
v -8 -14 0
v -8 -13 0
v -7 -13 0
v -6 -14 0
v -7 -14 0
v -7 -13 0
v -6 -13 0
v -5 -14 0
v -6 -14 0
v -6 -13 0
v -5 -13 0
v -4 -14 0
v -5 -14 0
v -5 -13 0
v -4 -13 0

# Texture cooridinates (Count = 40)
vt 0.9 0.2
vt 1 0.2
vt 1 0.3
vt 0.9 0.3
vt 0.8 0.2
vt 0.8 0.3
vt 0.4 0.8
vt 0.5 0.8
vt 0.5 0.9
vt 0.4 0.9
vt 0 0.1
vt 0.1 0.1
vt 0.1 0.2
vt 0 0.2
vt 0.9 0.1
vt 1 0.1
vt 0.8 0.1
vt 0.9 0.6
vt 1 0.6
vt 1 0.7
vt 0.9 0.7
vt 0.9 0.5
vt 1 0.5
vt 0.7 0.1
vt 0.7 0.2
vt 0.8 0.9
vt 0.9 0.9
vt 0.9 1
vt 0.8 1
vt 0.7 0.9
vt 0.7 1
vt 0.7 0
vt 0.8 0
vt 0.6 0.9
vt 0.6 1
vt 0.5 1
vt 0.4 1
vt 0.8 0.8
vt 0.9 0.8
vt 0.7 0.8

# Normal
vn 0 0 -1

# Mesh description
g TownHouse1_mesh_0006

# Faces
f 1/1/1 2/2/1 3/3/1 4/4/1
f 5/5/1 6/1/1 7/4/1 8/6/1
f 9/7/1 10/8/1 11/9/1 12/10/1
f 13/11/1 14/12/1 15/13/1 16/14/1
f 17/15/1 18/16/1 19/2/1 20/1/1
f 21/17/1 22/15/1 23/1/1 24/5/1
f 25/18/1 26/19/1 27/20/1 28/21/1
f 29/22/1 30/23/1 31/19/1 32/18/1
f 33/22/1 34/23/1 35/19/1 36/18/1
f 37/24/1 38/17/1 39/5/1 40/25/1
f 41/26/1 42/27/1 43/28/1 44/29/1
f 45/30/1 46/26/1 47/29/1 48/31/1
f 49/26/1 50/27/1 51/28/1 52/29/1
f 53/30/1 54/26/1 55/29/1 56/31/1
f 57/32/1 58/33/1 59/17/1 60/24/1
f 61/34/1 62/30/1 63/31/1 64/35/1
f 65/10/1 66/9/1 67/36/1 68/37/1
f 69/38/1 70/39/1 71/27/1 72/26/1
f 73/40/1 74/38/1 75/26/1 76/30/1
f 77/34/1 78/30/1 79/31/1 80/35/1
f 81/10/1 82/9/1 83/36/1 84/37/1

