# Tiled2Unity generated file. Do not modify by hand.
# Wavefront file for 'TownHouse1_mesh_0007.obj'

# Vertices (Count = 364)
v -21 -5 0
v -22 -5 0
v -22 -4 0
v -21 -4 0
v -20 -5 0
v -21 -5 0
v -21 -4 0
v -20 -4 0
v -19 -5 0
v -20 -5 0
v -20 -4 0
v -19 -4 0
v -18 -5 0
v -19 -5 0
v -19 -4 0
v -18 -4 0
v -17 -5 0
v -18 -5 0
v -18 -4 0
v -17 -4 0
v -16 -5 0
v -17 -5 0
v -17 -4 0
v -16 -4 0
v -15 -5 0
v -16 -5 0
v -16 -4 0
v -15 -4 0
v -14 -5 0
v -15 -5 0
v -15 -4 0
v -14 -4 0
v -13 -5 0
v -14 -5 0
v -14 -4 0
v -13 -4 0
v -12 -5 0
v -13 -5 0
v -13 -4 0
v -12 -4 0
v -11 -5 0
v -12 -5 0
v -12 -4 0
v -11 -4 0
v -10 -5 0
v -11 -5 0
v -11 -4 0
v -10 -4 0
v -9 -5 0
v -10 -5 0
v -10 -4 0
v -9 -4 0
v -8 -5 0
v -9 -5 0
v -9 -4 0
v -8 -4 0
v -21 -6 0
v -22 -6 0
v -22 -5 0
v -21 -5 0
v -17 -6 0
v -18 -6 0
v -18 -5 0
v -17 -5 0
v -8 -6 0
v -9 -6 0
v -9 -5 0
v -8 -5 0
v -21 -7 0
v -22 -7 0
v -22 -6 0
v -21 -6 0
v -17 -7 0
v -18 -7 0
v -18 -6 0
v -17 -6 0
v -8 -7 0
v -9 -7 0
v -9 -6 0
v -8 -6 0
v -21 -8 0
v -22 -8 0
v -22 -7 0
v -21 -7 0
v -17 -8 0
v -18 -8 0
v -18 -7 0
v -17 -7 0
v -8 -8 0
v -9 -8 0
v -9 -7 0
v -8 -7 0
v -4 -8 0
v -5 -8 0
v -5 -7 0
v -4 -7 0
v -21 -9 0
v -22 -9 0
v -22 -8 0
v -21 -8 0
v -17 -9 0
v -18 -9 0
v -18 -8 0
v -17 -8 0
v -8 -9 0
v -9 -9 0
v -9 -8 0
v -8 -8 0
v -4 -9 0
v -5 -9 0
v -5 -8 0
v -4 -8 0
v -21 -10 0
v -22 -10 0
v -22 -9 0
v -21 -9 0
v -8 -10 0
v -9 -10 0
v -9 -9 0
v -8 -9 0
v -21 -11 0
v -22 -11 0
v -22 -10 0
v -21 -10 0
v -8 -11 0
v -9 -11 0
v -9 -10 0
v -8 -10 0
v -21 -12 0
v -22 -12 0
v -22 -11 0
v -21 -11 0
v -20 -12 0
v -21 -12 0
v -21 -11 0
v -20 -11 0
v -19 -12 0
v -20 -12 0
v -20 -11 0
v -19 -11 0
v -18 -12 0
v -19 -12 0
v -19 -11 0
v -18 -11 0
v -17 -12 0
v -18 -12 0
v -18 -11 0
v -17 -11 0
v -16 -12 0
v -17 -12 0
v -17 -11 0
v -16 -11 0
v -15 -12 0
v -16 -12 0
v -16 -11 0
v -15 -11 0
v -14 -12 0
v -15 -12 0
v -15 -11 0
v -14 -11 0
v -13 -12 0
v -14 -12 0
v -14 -11 0
v -13 -11 0
v -11 -12 0
v -12 -12 0
v -12 -11 0
v -11 -11 0
v -10 -12 0
v -11 -12 0
v -11 -11 0
v -10 -11 0
v -9 -12 0
v -10 -12 0
v -10 -11 0
v -9 -11 0
v -8 -12 0
v -9 -12 0
v -9 -11 0
v -8 -11 0
v -7 -12 0
v -8 -12 0
v -8 -11 0
v -7 -11 0
v -6 -12 0
v -7 -12 0
v -7 -11 0
v -6 -11 0
v -5 -12 0
v -6 -12 0
v -6 -11 0
v -5 -11 0
v -4 -12 0
v -5 -12 0
v -5 -11 0
v -4 -11 0
v -3 -12 0
v -4 -12 0
v -4 -11 0
v -3 -11 0
v -21 -13 0
v -22 -13 0
v -22 -12 0
v -21 -12 0
v -16 -13 0
v -17 -13 0
v -17 -12 0
v -16 -12 0
v -3 -13 0
v -4 -13 0
v -4 -12 0
v -3 -12 0
v -21 -14 0
v -22 -14 0
v -22 -13 0
v -21 -13 0
v -16 -14 0
v -17 -14 0
v -17 -13 0
v -16 -13 0
v -3 -14 0
v -4 -14 0
v -4 -13 0
v -3 -13 0
v -21 -15 0
v -22 -15 0
v -22 -14 0
v -21 -14 0
v -16 -15 0
v -17 -15 0
v -17 -14 0
v -16 -14 0
v -8 -15 0
v -9 -15 0
v -9 -14 0
v -8 -14 0
v -3 -15 0
v -4 -15 0
v -4 -14 0
v -3 -14 0
v -21 -16 0
v -22 -16 0
v -22 -15 0
v -21 -15 0
v -16 -16 0
v -17 -16 0
v -17 -15 0
v -16 -15 0
v -8 -16 0
v -9 -16 0
v -9 -15 0
v -8 -15 0
v -3 -16 0
v -4 -16 0
v -4 -15 0
v -3 -15 0
v -21 -17 0
v -22 -17 0
v -22 -16 0
v -21 -16 0
v -16 -17 0
v -17 -17 0
v -17 -16 0
v -16 -16 0
v -8 -17 0
v -9 -17 0
v -9 -16 0
v -8 -16 0
v -3 -17 0
v -4 -17 0
v -4 -16 0
v -3 -16 0
v -21 -18 0
v -22 -18 0
v -22 -17 0
v -21 -17 0
v -8 -18 0
v -9 -18 0
v -9 -17 0
v -8 -17 0
v -3 -18 0
v -4 -18 0
v -4 -17 0
v -3 -17 0
v -21 -19 0
v -22 -19 0
v -22 -18 0
v -21 -18 0
v -8 -19 0
v -9 -19 0
v -9 -18 0
v -8 -18 0
v -7 -19 0
v -8 -19 0
v -8 -18 0
v -7 -18 0
v -6 -19 0
v -7 -19 0
v -7 -18 0
v -6 -18 0
v -5 -19 0
v -6 -19 0
v -6 -18 0
v -5 -18 0
v -4 -19 0
v -5 -19 0
v -5 -18 0
v -4 -18 0
v -3 -19 0
v -4 -19 0
v -4 -18 0
v -3 -18 0
v -21 -20 0
v -22 -20 0
v -22 -19 0
v -21 -19 0
v -20 -20 0
v -21 -20 0
v -21 -19 0
v -20 -19 0
v -19 -20 0
v -20 -20 0
v -20 -19 0
v -19 -19 0
v -18 -20 0
v -19 -20 0
v -19 -19 0
v -18 -19 0
v -17 -20 0
v -18 -20 0
v -18 -19 0
v -17 -19 0
v -16 -20 0
v -17 -20 0
v -17 -19 0
v -16 -19 0
v -15 -20 0
v -16 -20 0
v -16 -19 0
v -15 -19 0
v -14 -20 0
v -15 -20 0
v -15 -19 0
v -14 -19 0
v -13 -20 0
v -14 -20 0
v -14 -19 0
v -13 -19 0
v -11 -20 0
v -12 -20 0
v -12 -19 0
v -11 -19 0
v -10 -20 0
v -11 -20 0
v -11 -19 0
v -10 -19 0
v -9 -20 0
v -10 -20 0
v -10 -19 0
v -9 -19 0
v -8 -20 0
v -9 -20 0
v -9 -19 0
v -8 -19 0

# Texture cooridinates (Count = 30)
vt 0.3 0.5
vt 0.4 0.5
vt 0.4 0.6
vt 0.3 0.6
vt 0 0.5
vt 0.1 0.5
vt 0.1 0.6
vt 0 0.6
vt 0.2 0.4
vt 0.3 0.4
vt 0.2 0.5
vt 0.2 0.6
vt 0.8 0.2
vt 0.9 0.2
vt 0.9 0.3
vt 0.8 0.3
vt 0.2 0.3
vt 0.3 0.3
vt 0.8 0.1
vt 0.9 0.1
vt 0.1 0.4
vt 0.1 0.3
vt 0.4 0.3
vt 0.4 0.4
vt 0 0.4
vt 0 0.3
vt 0.5 0.5
vt 0.5 0.6
vt 0.5 0.3
vt 0.5 0.4

# Normal
vn 0 0 -1

# Mesh description
g TownHouse1_mesh_0007

# Faces
f 1/1/1 2/2/1 3/3/1 4/4/1
f 5/5/1 6/6/1 7/7/1 8/8/1
f 9/5/1 10/6/1 11/7/1 12/8/1
f 13/5/1 14/6/1 15/7/1 16/8/1
f 17/9/1 18/10/1 19/1/1 20/11/1
f 21/5/1 22/6/1 23/7/1 24/8/1
f 25/5/1 26/6/1 27/7/1 28/8/1
f 29/5/1 30/6/1 31/7/1 32/8/1
f 33/5/1 34/6/1 35/7/1 36/8/1
f 37/5/1 38/6/1 39/7/1 40/8/1
f 41/5/1 42/6/1 43/7/1 44/8/1
f 45/5/1 46/6/1 47/7/1 48/8/1
f 49/5/1 50/6/1 51/7/1 52/8/1
f 53/11/1 54/1/1 55/4/1 56/12/1
f 57/6/1 58/11/1 59/12/1 60/7/1
f 61/6/1 62/11/1 63/12/1 64/7/1
f 65/6/1 66/11/1 67/12/1 68/7/1
f 69/6/1 70/11/1 71/12/1 72/7/1
f 73/6/1 74/11/1 75/12/1 76/7/1
f 77/6/1 78/11/1 79/12/1 80/7/1
f 81/6/1 82/11/1 83/12/1 84/7/1
f 85/6/1 86/11/1 87/12/1 88/7/1
f 89/6/1 90/11/1 91/12/1 92/7/1
f 93/13/1 94/14/1 95/15/1 96/16/1
f 97/6/1 98/11/1 99/12/1 100/7/1
f 101/17/1 102/18/1 103/10/1 104/9/1
f 105/6/1 106/11/1 107/12/1 108/7/1
f 109/19/1 110/20/1 111/14/1 112/13/1
f 113/6/1 114/11/1 115/12/1 116/7/1
f 117/6/1 118/11/1 119/12/1 120/7/1
f 121/6/1 122/11/1 123/12/1 124/7/1
f 125/6/1 126/11/1 127/12/1 128/7/1
f 129/21/1 130/9/1 131/11/1 132/6/1
f 133/5/1 134/6/1 135/7/1 136/8/1
f 137/5/1 138/6/1 139/7/1 140/8/1
f 141/5/1 142/6/1 143/7/1 144/8/1
f 145/5/1 146/6/1 147/7/1 148/8/1
f 149/9/1 150/10/1 151/1/1 152/11/1
f 153/5/1 154/6/1 155/7/1 156/8/1
f 157/5/1 158/6/1 159/7/1 160/8/1
f 161/22/1 162/17/1 163/9/1 164/21/1
f 165/18/1 166/23/1 167/24/1 168/10/1
f 169/5/1 170/6/1 171/7/1 172/8/1
f 173/5/1 174/6/1 175/7/1 176/8/1
f 177/25/1 178/21/1 179/6/1 180/5/1
f 181/5/1 182/6/1 183/7/1 184/8/1
f 185/5/1 186/6/1 187/7/1 188/8/1
f 189/5/1 190/6/1 191/7/1 192/8/1
f 193/5/1 194/6/1 195/7/1 196/8/1
f 197/11/1 198/1/1 199/4/1 200/12/1
f 201/6/1 202/11/1 203/12/1 204/7/1
f 205/6/1 206/11/1 207/12/1 208/7/1
f 209/6/1 210/11/1 211/12/1 212/7/1
f 213/6/1 214/11/1 215/12/1 216/7/1
f 217/6/1 218/11/1 219/12/1 220/7/1
f 221/6/1 222/11/1 223/12/1 224/7/1
f 225/6/1 226/11/1 227/12/1 228/7/1
f 229/6/1 230/11/1 231/12/1 232/7/1
f 233/26/1 234/22/1 235/21/1 236/25/1
f 237/6/1 238/11/1 239/12/1 240/7/1
f 241/6/1 242/11/1 243/12/1 244/7/1
f 245/6/1 246/11/1 247/12/1 248/7/1
f 249/6/1 250/11/1 251/12/1 252/7/1
f 253/6/1 254/11/1 255/12/1 256/7/1
f 257/6/1 258/11/1 259/12/1 260/7/1
f 261/17/1 262/18/1 263/10/1 264/9/1
f 265/6/1 266/11/1 267/12/1 268/7/1
f 269/6/1 270/11/1 271/12/1 272/7/1
f 273/6/1 274/11/1 275/12/1 276/7/1
f 277/6/1 278/11/1 279/12/1 280/7/1
f 281/6/1 282/11/1 283/12/1 284/7/1
f 285/6/1 286/11/1 287/12/1 288/7/1
f 289/21/1 290/9/1 291/11/1 292/6/1
f 293/5/1 294/6/1 295/7/1 296/8/1
f 297/5/1 298/6/1 299/7/1 300/8/1
f 301/5/1 302/6/1 303/7/1 304/8/1
f 305/5/1 306/6/1 307/7/1 308/8/1
f 309/2/1 310/27/1 311/28/1 312/3/1
f 313/23/1 314/29/1 315/30/1 316/24/1
f 317/5/1 318/6/1 319/7/1 320/8/1
f 321/5/1 322/6/1 323/7/1 324/8/1
f 325/5/1 326/6/1 327/7/1 328/8/1
f 329/5/1 330/6/1 331/7/1 332/8/1
f 333/5/1 334/6/1 335/7/1 336/8/1
f 337/5/1 338/6/1 339/7/1 340/8/1
f 341/5/1 342/6/1 343/7/1 344/8/1
f 345/22/1 346/17/1 347/9/1 348/21/1
f 349/18/1 350/23/1 351/24/1 352/10/1
f 353/5/1 354/6/1 355/7/1 356/8/1
f 357/5/1 358/6/1 359/7/1 360/8/1
f 361/2/1 362/27/1 363/28/1 364/3/1

