# Tiled2Unity generated file. Do not modify by hand.
# Wavefront file for 'TownHouse1_mesh_0005.obj'

# Vertices (Count = 36)
v -19 -6 0
v -20 -6 0
v -20 -5 0
v -19 -5 0
v -14 -6 0
v -15 -6 0
v -15 -5 0
v -14 -5 0
v -11 -6 0
v -12 -6 0
v -12 -5 0
v -11 -5 0
v -4 -10 0
v -5 -10 0
v -5 -9 0
v -4 -9 0
v -5 -20 0
v -6 -20 0
v -6 -19 0
v -5 -19 0
v -19 -21 0
v -20 -21 0
v -20 -20 0
v -19 -20 0
v -18 -21 0
v -19 -21 0
v -19 -20 0
v -18 -20 0
v -14 -21 0
v -15 -21 0
v -15 -20 0
v -14 -20 0
v -10 -21 0
v -11 -21 0
v -11 -20 0
v -10 -20 0

# Texture cooridinates (Count = 18)
vt 0 0
vt 0.1 0
vt 0.1 0.1
vt 0 0.1
vt 0.8 0
vt 0.9 0
vt 0.9 0.1
vt 0.8 0.1
vt 0.2 0.1
vt 0.2 0.2
vt 0.1 0.2
vt 0.4 0
vt 0.5 0
vt 0.5 0.1
vt 0.4 0.1
vt 0.3 0.1
vt 0.3 0.2
vt 0 0.2

# Normal
vn 0 0 -1

# Mesh description
g TownHouse1_mesh_0005

# Faces
f 1/1/1 2/2/1 3/3/1 4/4/1
f 5/1/1 6/2/1 7/3/1 8/4/1
f 9/1/1 10/2/1 11/3/1 12/4/1
f 13/5/1 14/6/1 15/7/1 16/8/1
f 17/3/1 18/9/1 19/10/1 20/11/1
f 21/12/1 22/13/1 23/14/1 24/15/1
f 25/12/1 26/13/1 27/14/1 28/15/1
f 29/9/1 30/16/1 31/17/1 32/10/1
f 33/4/1 34/3/1 35/11/1 36/18/1

