# Tiled2Unity generated file. Do not modify by hand.
# Wavefront file for 'TownHouse1_mesh_0004.obj'

# Vertices (Count = 484)
v -20 -8 0
v -21 -8 0
v -21 -7 0
v -20 -7 0
v -19 -8 0
v -20 -8 0
v -20 -7 0
v -19 -7 0
v -18 -8 0
v -19 -8 0
v -19 -7 0
v -18 -7 0
v -15 -8 0
v -16 -8 0
v -16 -7 0
v -15 -7 0
v -14 -8 0
v -15 -8 0
v -15 -7 0
v -14 -7 0
v -13 -8 0
v -14 -8 0
v -14 -7 0
v -13 -7 0
v -12 -8 0
v -13 -8 0
v -13 -7 0
v -12 -7 0
v -11 -8 0
v -12 -8 0
v -12 -7 0
v -11 -7 0
v -10 -8 0
v -11 -8 0
v -11 -7 0
v -10 -7 0
v -9 -8 0
v -10 -8 0
v -10 -7 0
v -9 -7 0
v -20 -9 0
v -21 -9 0
v -21 -8 0
v -20 -8 0
v -19 -9 0
v -20 -9 0
v -20 -8 0
v -19 -8 0
v -18 -9 0
v -19 -9 0
v -19 -8 0
v -18 -8 0
v -15 -9 0
v -16 -9 0
v -16 -8 0
v -15 -8 0
v -14 -9 0
v -15 -9 0
v -15 -8 0
v -14 -8 0
v -13 -9 0
v -14 -9 0
v -14 -8 0
v -13 -8 0
v -12 -9 0
v -13 -9 0
v -13 -8 0
v -12 -8 0
v -11 -9 0
v -12 -9 0
v -12 -8 0
v -11 -8 0
v -10 -9 0
v -11 -9 0
v -11 -8 0
v -10 -8 0
v -9 -9 0
v -10 -9 0
v -10 -8 0
v -9 -8 0
v -20 -10 0
v -21 -10 0
v -21 -9 0
v -20 -9 0
v -19 -10 0
v -20 -10 0
v -20 -9 0
v -19 -9 0
v -18 -10 0
v -19 -10 0
v -19 -9 0
v -18 -9 0
v -15 -10 0
v -16 -10 0
v -16 -9 0
v -15 -9 0
v -14 -10 0
v -15 -10 0
v -15 -9 0
v -14 -9 0
v -13 -10 0
v -14 -10 0
v -14 -9 0
v -13 -9 0
v -12 -10 0
v -13 -10 0
v -13 -9 0
v -12 -9 0
v -11 -10 0
v -12 -10 0
v -12 -9 0
v -11 -9 0
v -10 -10 0
v -11 -10 0
v -11 -9 0
v -10 -9 0
v -9 -10 0
v -10 -10 0
v -10 -9 0
v -9 -9 0
v -20 -11 0
v -21 -11 0
v -21 -10 0
v -20 -10 0
v -19 -11 0
v -20 -11 0
v -20 -10 0
v -19 -10 0
v -18 -11 0
v -19 -11 0
v -19 -10 0
v -18 -10 0
v -17 -11 0
v -18 -11 0
v -18 -10 0
v -17 -10 0
v -16 -11 0
v -17 -11 0
v -17 -10 0
v -16 -10 0
v -15 -11 0
v -16 -11 0
v -16 -10 0
v -15 -10 0
v -14 -11 0
v -15 -11 0
v -15 -10 0
v -14 -10 0
v -13 -11 0
v -14 -11 0
v -14 -10 0
v -13 -10 0
v -12 -11 0
v -13 -11 0
v -13 -10 0
v -12 -10 0
v -11 -11 0
v -12 -11 0
v -12 -10 0
v -11 -10 0
v -10 -11 0
v -11 -11 0
v -11 -10 0
v -10 -10 0
v -9 -11 0
v -10 -11 0
v -10 -10 0
v -9 -10 0
v -8 -11 0
v -9 -11 0
v -9 -10 0
v -8 -10 0
v -12 -12 0
v -13 -12 0
v -13 -11 0
v -12 -11 0
v -12 -13 0
v -13 -13 0
v -13 -12 0
v -12 -12 0
v -20 -14 0
v -21 -14 0
v -21 -13 0
v -20 -13 0
v -19 -14 0
v -20 -14 0
v -20 -13 0
v -19 -13 0
v -18 -14 0
v -19 -14 0
v -19 -13 0
v -18 -13 0
v -17 -14 0
v -18 -14 0
v -18 -13 0
v -17 -13 0
v -15 -14 0
v -16 -14 0
v -16 -13 0
v -15 -13 0
v -14 -14 0
v -15 -14 0
v -15 -13 0
v -14 -13 0
v -13 -14 0
v -14 -14 0
v -14 -13 0
v -13 -13 0
v -12 -14 0
v -13 -14 0
v -13 -13 0
v -12 -13 0
v -11 -14 0
v -12 -14 0
v -12 -13 0
v -11 -13 0
v -9 -14 0
v -10 -14 0
v -10 -13 0
v -9 -13 0
v -8 -14 0
v -9 -14 0
v -9 -13 0
v -8 -13 0
v -7 -14 0
v -8 -14 0
v -8 -13 0
v -7 -13 0
v -6 -14 0
v -7 -14 0
v -7 -13 0
v -6 -13 0
v -5 -14 0
v -6 -14 0
v -6 -13 0
v -5 -13 0
v -4 -14 0
v -5 -14 0
v -5 -13 0
v -4 -13 0
v -20 -15 0
v -21 -15 0
v -21 -14 0
v -20 -14 0
v -19 -15 0
v -20 -15 0
v -20 -14 0
v -19 -14 0
v -18 -15 0
v -19 -15 0
v -19 -14 0
v -18 -14 0
v -17 -15 0
v -18 -15 0
v -18 -14 0
v -17 -14 0
v -15 -15 0
v -16 -15 0
v -16 -14 0
v -15 -14 0
v -14 -15 0
v -15 -15 0
v -15 -14 0
v -14 -14 0
v -13 -15 0
v -14 -15 0
v -14 -14 0
v -13 -14 0
v -12 -15 0
v -13 -15 0
v -13 -14 0
v -12 -14 0
v -11 -15 0
v -12 -15 0
v -12 -14 0
v -11 -14 0
v -10 -15 0
v -11 -15 0
v -11 -14 0
v -10 -14 0
v -9 -15 0
v -10 -15 0
v -10 -14 0
v -9 -14 0
v -8 -15 0
v -9 -15 0
v -9 -14 0
v -8 -14 0
v -7 -15 0
v -8 -15 0
v -8 -14 0
v -7 -14 0
v -6 -15 0
v -7 -15 0
v -7 -14 0
v -6 -14 0
v -5 -15 0
v -6 -15 0
v -6 -14 0
v -5 -14 0
v -4 -15 0
v -5 -15 0
v -5 -14 0
v -4 -14 0
v -20 -16 0
v -21 -16 0
v -21 -15 0
v -20 -15 0
v -19 -16 0
v -20 -16 0
v -20 -15 0
v -19 -15 0
v -18 -16 0
v -19 -16 0
v -19 -15 0
v -18 -15 0
v -17 -16 0
v -18 -16 0
v -18 -15 0
v -17 -15 0
v -16 -16 0
v -17 -16 0
v -17 -15 0
v -16 -15 0
v -15 -16 0
v -16 -16 0
v -16 -15 0
v -15 -15 0
v -14 -16 0
v -15 -16 0
v -15 -15 0
v -14 -15 0
v -13 -16 0
v -14 -16 0
v -14 -15 0
v -13 -15 0
v -12 -16 0
v -13 -16 0
v -13 -15 0
v -12 -15 0
v -11 -16 0
v -12 -16 0
v -12 -15 0
v -11 -15 0
v -9 -16 0
v -10 -16 0
v -10 -15 0
v -9 -15 0
v -8 -16 0
v -9 -16 0
v -9 -15 0
v -8 -15 0
v -7 -16 0
v -8 -16 0
v -8 -15 0
v -7 -15 0
v -6 -16 0
v -7 -16 0
v -7 -15 0
v -6 -15 0
v -5 -16 0
v -6 -16 0
v -6 -15 0
v -5 -15 0
v -4 -16 0
v -5 -16 0
v -5 -15 0
v -4 -15 0
v -20 -17 0
v -21 -17 0
v -21 -16 0
v -20 -16 0
v -19 -17 0
v -20 -17 0
v -20 -16 0
v -19 -16 0
v -18 -17 0
v -19 -17 0
v -19 -16 0
v -18 -16 0
v -17 -17 0
v -18 -17 0
v -18 -16 0
v -17 -16 0
v -15 -17 0
v -16 -17 0
v -16 -16 0
v -15 -16 0
v -14 -17 0
v -15 -17 0
v -15 -16 0
v -14 -16 0
v -13 -17 0
v -14 -17 0
v -14 -16 0
v -13 -16 0
v -12 -17 0
v -13 -17 0
v -13 -16 0
v -12 -16 0
v -11 -17 0
v -12 -17 0
v -12 -16 0
v -11 -16 0
v -9 -17 0
v -10 -17 0
v -10 -16 0
v -9 -16 0
v -8 -17 0
v -9 -17 0
v -9 -16 0
v -8 -16 0
v -7 -17 0
v -8 -17 0
v -8 -16 0
v -7 -16 0
v -6 -17 0
v -7 -17 0
v -7 -16 0
v -6 -16 0
v -5 -17 0
v -6 -17 0
v -6 -16 0
v -5 -16 0
v -4 -17 0
v -5 -17 0
v -5 -16 0
v -4 -16 0
v -15 -18 0
v -16 -18 0
v -16 -17 0
v -15 -17 0
v -14 -18 0
v -15 -18 0
v -15 -17 0
v -14 -17 0
v -13 -18 0
v -14 -18 0
v -14 -17 0
v -13 -17 0
v -12 -18 0
v -13 -18 0
v -13 -17 0
v -12 -17 0
v -11 -18 0
v -12 -18 0
v -12 -17 0
v -11 -17 0
v -15 -19 0
v -16 -19 0
v -16 -18 0
v -15 -18 0
v -14 -19 0
v -15 -19 0
v -15 -18 0
v -14 -18 0
v -13 -19 0
v -14 -19 0
v -14 -18 0
v -13 -18 0
v -12 -19 0
v -13 -19 0
v -13 -18 0
v -12 -18 0
v -11 -19 0
v -12 -19 0
v -12 -18 0
v -11 -18 0
v -10 -19 0
v -11 -19 0
v -11 -18 0
v -10 -18 0
v -12 -20 0
v -13 -20 0
v -13 -19 0
v -12 -19 0
v -12 -21 0
v -13 -21 0
v -13 -20 0
v -12 -20 0
v -12 -22 0
v -13 -22 0
v -13 -21 0
v -12 -21 0

# Texture cooridinates (Count = 14)
vt 0.9 0.6
vt 1 0.6
vt 1 0.7
vt 0.9 0.7
vt 0.5 0.7
vt 0.6 0.7
vt 0.6 0.8
vt 0.5 0.8
vt 0.7 0.7
vt 0.8 0.7
vt 0.8 0.8
vt 0.7 0.8
vt 0.8 0.9
vt 0.7 0.9

# Normal
vn 0 0 -1

# Mesh description
g TownHouse1_mesh_0004

# Faces
f 1/1/1 2/2/1 3/3/1 4/4/1
f 5/1/1 6/2/1 7/3/1 8/4/1
f 9/1/1 10/2/1 11/3/1 12/4/1
f 13/1/1 14/2/1 15/3/1 16/4/1
f 17/1/1 18/2/1 19/3/1 20/4/1
f 21/1/1 22/2/1 23/3/1 24/4/1
f 25/1/1 26/2/1 27/3/1 28/4/1
f 29/1/1 30/2/1 31/3/1 32/4/1
f 33/1/1 34/2/1 35/3/1 36/4/1
f 37/1/1 38/2/1 39/3/1 40/4/1
f 41/1/1 42/2/1 43/3/1 44/4/1
f 45/1/1 46/2/1 47/3/1 48/4/1
f 49/1/1 50/2/1 51/3/1 52/4/1
f 53/1/1 54/2/1 55/3/1 56/4/1
f 57/1/1 58/2/1 59/3/1 60/4/1
f 61/1/1 62/2/1 63/3/1 64/4/1
f 65/1/1 66/2/1 67/3/1 68/4/1
f 69/1/1 70/2/1 71/3/1 72/4/1
f 73/1/1 74/2/1 75/3/1 76/4/1
f 77/1/1 78/2/1 79/3/1 80/4/1
f 81/1/1 82/2/1 83/3/1 84/4/1
f 85/1/1 86/2/1 87/3/1 88/4/1
f 89/1/1 90/2/1 91/3/1 92/4/1
f 93/1/1 94/2/1 95/3/1 96/4/1
f 97/1/1 98/2/1 99/3/1 100/4/1
f 101/1/1 102/2/1 103/3/1 104/4/1
f 105/1/1 106/2/1 107/3/1 108/4/1
f 109/1/1 110/2/1 111/3/1 112/4/1
f 113/1/1 114/2/1 115/3/1 116/4/1
f 117/1/1 118/2/1 119/3/1 120/4/1
f 121/1/1 122/2/1 123/3/1 124/4/1
f 125/1/1 126/2/1 127/3/1 128/4/1
f 129/1/1 130/2/1 131/3/1 132/4/1
f 133/1/1 134/2/1 135/3/1 136/4/1
f 137/1/1 138/2/1 139/3/1 140/4/1
f 141/1/1 142/2/1 143/3/1 144/4/1
f 145/1/1 146/2/1 147/3/1 148/4/1
f 149/1/1 150/2/1 151/3/1 152/4/1
f 153/1/1 154/2/1 155/3/1 156/4/1
f 157/1/1 158/2/1 159/3/1 160/4/1
f 161/1/1 162/2/1 163/3/1 164/4/1
f 165/1/1 166/2/1 167/3/1 168/4/1
f 169/5/1 170/6/1 171/7/1 172/8/1
f 173/1/1 174/2/1 175/3/1 176/4/1
f 177/1/1 178/2/1 179/3/1 180/4/1
f 181/9/1 182/10/1 183/11/1 184/12/1
f 185/9/1 186/10/1 187/11/1 188/12/1
f 189/9/1 190/10/1 191/11/1 192/12/1
f 193/9/1 194/10/1 195/11/1 196/12/1
f 197/1/1 198/2/1 199/3/1 200/4/1
f 201/1/1 202/2/1 203/3/1 204/4/1
f 205/1/1 206/2/1 207/3/1 208/4/1
f 209/1/1 210/2/1 211/3/1 212/4/1
f 213/1/1 214/2/1 215/3/1 216/4/1
f 217/6/1 218/9/1 219/12/1 220/7/1
f 221/6/1 222/9/1 223/12/1 224/7/1
f 225/6/1 226/9/1 227/12/1 228/7/1
f 229/6/1 230/9/1 231/12/1 232/7/1
f 233/6/1 234/9/1 235/12/1 236/7/1
f 237/6/1 238/9/1 239/12/1 240/7/1
f 241/9/1 242/10/1 243/11/1 244/12/1
f 245/9/1 246/10/1 247/11/1 248/12/1
f 249/9/1 250/10/1 251/11/1 252/12/1
f 253/9/1 254/10/1 255/11/1 256/12/1
f 257/1/1 258/2/1 259/3/1 260/4/1
f 261/12/1 262/11/1 263/13/1 264/14/1
f 265/12/1 266/11/1 267/13/1 268/14/1
f 269/12/1 270/11/1 271/13/1 272/14/1
f 273/1/1 274/2/1 275/3/1 276/4/1
f 277/1/1 278/2/1 279/3/1 280/4/1
f 281/6/1 282/9/1 283/12/1 284/7/1
f 285/6/1 286/9/1 287/12/1 288/7/1
f 289/6/1 290/9/1 291/12/1 292/7/1
f 293/6/1 294/9/1 295/12/1 296/7/1
f 297/6/1 298/9/1 299/12/1 300/7/1
f 301/6/1 302/9/1 303/12/1 304/7/1
f 305/9/1 306/10/1 307/11/1 308/12/1
f 309/9/1 310/10/1 311/11/1 312/12/1
f 313/9/1 314/10/1 315/11/1 316/12/1
f 317/9/1 318/10/1 319/11/1 320/12/1
f 321/5/1 322/6/1 323/7/1 324/8/1
f 325/1/1 326/2/1 327/3/1 328/4/1
f 329/12/1 330/11/1 331/13/1 332/14/1
f 333/12/1 334/11/1 335/13/1 336/14/1
f 337/12/1 338/11/1 339/13/1 340/14/1
f 341/1/1 342/2/1 343/3/1 344/4/1
f 345/6/1 346/9/1 347/12/1 348/7/1
f 349/6/1 350/9/1 351/12/1 352/7/1
f 353/6/1 354/9/1 355/12/1 356/7/1
f 357/6/1 358/9/1 359/12/1 360/7/1
f 361/6/1 362/9/1 363/12/1 364/7/1
f 365/6/1 366/9/1 367/12/1 368/7/1
f 369/9/1 370/10/1 371/11/1 372/12/1
f 373/9/1 374/10/1 375/11/1 376/12/1
f 377/9/1 378/10/1 379/11/1 380/12/1
f 381/9/1 382/10/1 383/11/1 384/12/1
f 385/1/1 386/2/1 387/3/1 388/4/1
f 389/12/1 390/11/1 391/13/1 392/14/1
f 393/12/1 394/11/1 395/13/1 396/14/1
f 397/12/1 398/11/1 399/13/1 400/14/1
f 401/1/1 402/2/1 403/3/1 404/4/1
f 405/6/1 406/9/1 407/12/1 408/7/1
f 409/6/1 410/9/1 411/12/1 412/7/1
f 413/6/1 414/9/1 415/12/1 416/7/1
f 417/6/1 418/9/1 419/12/1 420/7/1
f 421/6/1 422/9/1 423/12/1 424/7/1
f 425/6/1 426/9/1 427/12/1 428/7/1
f 429/1/1 430/2/1 431/3/1 432/4/1
f 433/12/1 434/11/1 435/13/1 436/14/1
f 437/12/1 438/11/1 439/13/1 440/14/1
f 441/12/1 442/11/1 443/13/1 444/14/1
f 445/1/1 446/2/1 447/3/1 448/4/1
f 449/1/1 450/2/1 451/3/1 452/4/1
f 453/1/1 454/2/1 455/3/1 456/4/1
f 457/1/1 458/2/1 459/3/1 460/4/1
f 461/1/1 462/2/1 463/3/1 464/4/1
f 465/1/1 466/2/1 467/3/1 468/4/1
f 469/1/1 470/2/1 471/3/1 472/4/1
f 473/5/1 474/6/1 475/7/1 476/8/1
f 477/5/1 478/6/1 479/7/1 480/8/1
f 481/5/1 482/6/1 483/7/1 484/8/1

