# Tiled2Unity generated file. Do not modify by hand.
# Wavefront file for 'TownHouse1_mesh_0007.obj'

# Vertices (Count = 40)
v -12 -7 0
v -13 -7 0
v -13 -6 0
v -12 -6 0
v -12 -8 0
v -13 -8 0
v -13 -7 0
v -12 -7 0
v -9 -8 0
v -10 -8 0
v -10 -7 0
v -9 -7 0
v -19 -13 0
v -20 -13 0
v -20 -12 0
v -19 -12 0
v -17 -13 0
v -18 -13 0
v -18 -12 0
v -17 -12 0
v -11 -14 0
v -12 -14 0
v -12 -13 0
v -11 -13 0
v -7 -14 0
v -8 -14 0
v -8 -13 0
v -7 -13 0
v -6 -14 0
v -7 -14 0
v -7 -13 0
v -6 -13 0
v -5 -14 0
v -6 -14 0
v -6 -13 0
v -5 -13 0
v -4 -14 0
v -5 -14 0
v -5 -13 0
v -4 -13 0

# Texture cooridinates (Count = 14)
vt 0.3 0.9
vt 0.4 0.9
vt 0.4 1
vt 0.3 1
vt 0.3 0.8
vt 0.4 0.8
vt 0.2 0.9
vt 0.2 1
vt 0.1 0.9
vt 0.1 1
vt 0.7 0.7
vt 0.8 0.7
vt 0.8 0.8
vt 0.7 0.8

# Normal
vn 0 0 -1

# Mesh description
g TownHouse1_mesh_0007

# Faces
f 1/1/1 2/2/1 3/3/1 4/4/1
f 5/5/1 6/6/1 7/2/1 8/1/1
f 9/7/1 10/1/1 11/4/1 12/8/1
f 13/9/1 14/7/1 15/8/1 16/10/1
f 17/11/1 18/12/1 19/13/1 20/14/1
f 21/7/1 22/1/1 23/4/1 24/8/1
f 25/7/1 26/1/1 27/4/1 28/8/1
f 29/7/1 30/1/1 31/4/1 32/8/1
f 33/7/1 34/1/1 35/4/1 36/8/1
f 37/7/1 38/1/1 39/4/1 40/8/1

