# Tiled2Unity generated file. Do not modify by hand.
# Wavefront file for 'TownHouse1_mesh_0008.obj'

# Vertices (Count = 352)
v -21 -5 0
v -22 -5 0
v -22 -4 0
v -21 -4 0
v -20 -5 0
v -21 -5 0
v -21 -4 0
v -20 -4 0
v -19 -5 0
v -20 -5 0
v -20 -4 0
v -19 -4 0
v -18 -5 0
v -19 -5 0
v -19 -4 0
v -18 -4 0
v -17 -5 0
v -18 -5 0
v -18 -4 0
v -17 -4 0
v -16 -5 0
v -17 -5 0
v -17 -4 0
v -16 -4 0
v -15 -5 0
v -16 -5 0
v -16 -4 0
v -15 -4 0
v -14 -5 0
v -15 -5 0
v -15 -4 0
v -14 -4 0
v -13 -5 0
v -14 -5 0
v -14 -4 0
v -13 -4 0
v -12 -5 0
v -13 -5 0
v -13 -4 0
v -12 -4 0
v -11 -5 0
v -12 -5 0
v -12 -4 0
v -11 -4 0
v -10 -5 0
v -11 -5 0
v -11 -4 0
v -10 -4 0
v -9 -5 0
v -10 -5 0
v -10 -4 0
v -9 -4 0
v -8 -5 0
v -9 -5 0
v -9 -4 0
v -8 -4 0
v -21 -6 0
v -22 -6 0
v -22 -5 0
v -21 -5 0
v -17 -6 0
v -18 -6 0
v -18 -5 0
v -17 -5 0
v -8 -6 0
v -9 -6 0
v -9 -5 0
v -8 -5 0
v -21 -7 0
v -22 -7 0
v -22 -6 0
v -21 -6 0
v -17 -7 0
v -18 -7 0
v -18 -6 0
v -17 -6 0
v -8 -7 0
v -9 -7 0
v -9 -6 0
v -8 -6 0
v -21 -8 0
v -22 -8 0
v -22 -7 0
v -21 -7 0
v -17 -8 0
v -18 -8 0
v -18 -7 0
v -17 -7 0
v -8 -8 0
v -9 -8 0
v -9 -7 0
v -8 -7 0
v -21 -9 0
v -22 -9 0
v -22 -8 0
v -21 -8 0
v -17 -9 0
v -18 -9 0
v -18 -8 0
v -17 -8 0
v -8 -9 0
v -9 -9 0
v -9 -8 0
v -8 -8 0
v -21 -10 0
v -22 -10 0
v -22 -9 0
v -21 -9 0
v -8 -10 0
v -9 -10 0
v -9 -9 0
v -8 -9 0
v -21 -11 0
v -22 -11 0
v -22 -10 0
v -21 -10 0
v -8 -11 0
v -9 -11 0
v -9 -10 0
v -8 -10 0
v -21 -12 0
v -22 -12 0
v -22 -11 0
v -21 -11 0
v -20 -12 0
v -21 -12 0
v -21 -11 0
v -20 -11 0
v -19 -12 0
v -20 -12 0
v -20 -11 0
v -19 -11 0
v -18 -12 0
v -19 -12 0
v -19 -11 0
v -18 -11 0
v -17 -12 0
v -18 -12 0
v -18 -11 0
v -17 -11 0
v -16 -12 0
v -17 -12 0
v -17 -11 0
v -16 -11 0
v -15 -12 0
v -16 -12 0
v -16 -11 0
v -15 -11 0
v -14 -12 0
v -15 -12 0
v -15 -11 0
v -14 -11 0
v -13 -12 0
v -14 -12 0
v -14 -11 0
v -13 -11 0
v -11 -12 0
v -12 -12 0
v -12 -11 0
v -11 -11 0
v -10 -12 0
v -11 -12 0
v -11 -11 0
v -10 -11 0
v -9 -12 0
v -10 -12 0
v -10 -11 0
v -9 -11 0
v -8 -12 0
v -9 -12 0
v -9 -11 0
v -8 -11 0
v -7 -12 0
v -8 -12 0
v -8 -11 0
v -7 -11 0
v -6 -12 0
v -7 -12 0
v -7 -11 0
v -6 -11 0
v -5 -12 0
v -6 -12 0
v -6 -11 0
v -5 -11 0
v -4 -12 0
v -5 -12 0
v -5 -11 0
v -4 -11 0
v -3 -12 0
v -4 -12 0
v -4 -11 0
v -3 -11 0
v -21 -13 0
v -22 -13 0
v -22 -12 0
v -21 -12 0
v -16 -13 0
v -17 -13 0
v -17 -12 0
v -16 -12 0
v -10 -13 0
v -11 -13 0
v -11 -12 0
v -10 -12 0
v -3 -13 0
v -4 -13 0
v -4 -12 0
v -3 -12 0
v -21 -14 0
v -22 -14 0
v -22 -13 0
v -21 -13 0
v -16 -14 0
v -17 -14 0
v -17 -13 0
v -16 -13 0
v -3 -14 0
v -4 -14 0
v -4 -13 0
v -3 -13 0
v -21 -15 0
v -22 -15 0
v -22 -14 0
v -21 -14 0
v -16 -15 0
v -17 -15 0
v -17 -14 0
v -16 -14 0
v -3 -15 0
v -4 -15 0
v -4 -14 0
v -3 -14 0
v -21 -16 0
v -22 -16 0
v -22 -15 0
v -21 -15 0
v -16 -16 0
v -17 -16 0
v -17 -15 0
v -16 -15 0
v -10 -16 0
v -11 -16 0
v -11 -15 0
v -10 -15 0
v -3 -16 0
v -4 -16 0
v -4 -15 0
v -3 -15 0
v -21 -17 0
v -22 -17 0
v -22 -16 0
v -21 -16 0
v -16 -17 0
v -17 -17 0
v -17 -16 0
v -16 -16 0
v -10 -17 0
v -11 -17 0
v -11 -16 0
v -10 -16 0
v -9 -17 0
v -10 -17 0
v -10 -16 0
v -9 -16 0
v -8 -17 0
v -9 -17 0
v -9 -16 0
v -8 -16 0
v -7 -17 0
v -8 -17 0
v -8 -16 0
v -7 -16 0
v -6 -17 0
v -7 -17 0
v -7 -16 0
v -6 -16 0
v -5 -17 0
v -6 -17 0
v -6 -16 0
v -5 -16 0
v -4 -17 0
v -5 -17 0
v -5 -16 0
v -4 -16 0
v -3 -17 0
v -4 -17 0
v -4 -16 0
v -3 -16 0
v -21 -18 0
v -22 -18 0
v -22 -17 0
v -21 -17 0
v -9 -18 0
v -10 -18 0
v -10 -17 0
v -9 -17 0
v -21 -19 0
v -22 -19 0
v -22 -18 0
v -21 -18 0
v -9 -19 0
v -10 -19 0
v -10 -18 0
v -9 -18 0
v -21 -20 0
v -22 -20 0
v -22 -19 0
v -21 -19 0
v -20 -20 0
v -21 -20 0
v -21 -19 0
v -20 -19 0
v -19 -20 0
v -20 -20 0
v -20 -19 0
v -19 -19 0
v -18 -20 0
v -19 -20 0
v -19 -19 0
v -18 -19 0
v -17 -20 0
v -18 -20 0
v -18 -19 0
v -17 -19 0
v -16 -20 0
v -17 -20 0
v -17 -19 0
v -16 -19 0
v -15 -20 0
v -16 -20 0
v -16 -19 0
v -15 -19 0
v -14 -20 0
v -15 -20 0
v -15 -19 0
v -14 -19 0
v -13 -20 0
v -14 -20 0
v -14 -19 0
v -13 -19 0
v -11 -20 0
v -12 -20 0
v -12 -19 0
v -11 -19 0
v -10 -20 0
v -11 -20 0
v -11 -19 0
v -10 -19 0
v -9 -20 0
v -10 -20 0
v -10 -19 0
v -9 -19 0

# Texture cooridinates (Count = 24)
vt 0.0625 0.6875
vt 0.125 0.6875
vt 0.125 0.75
vt 0.0625 0.75
vt 0.0625 0.5625
vt 0.125 0.5625
vt 0.125 0.625
vt 0.0625 0.625
vt 0.1875 0.5625
vt 0.1875 0.625
vt 0 0.6875
vt 0 0.75
vt 0 0.5625
vt 0 0.625
vt 0.25 0.5625
vt 0.25 0.625
vt 0.1875 0.6875
vt 0.25 0.6875
vt 0.25 0.75
vt 0.1875 0.75
vt 0.3125 0.6875
vt 0.3125 0.75
vt 0.3125 0.625
vt 0.3125 0.5625

# Normal
vn 0 0 -1

# Mesh description
g TownHouse1_mesh_0008

# Faces
f 1/1/1 2/2/1 3/3/1 4/4/1
f 5/5/1 6/6/1 7/7/1 8/8/1
f 9/5/1 10/6/1 11/7/1 12/8/1
f 13/5/1 14/6/1 15/7/1 16/8/1
f 17/6/1 18/9/1 19/10/1 20/7/1
f 21/5/1 22/6/1 23/7/1 24/8/1
f 25/5/1 26/6/1 27/7/1 28/8/1
f 29/5/1 30/6/1 31/7/1 32/8/1
f 33/5/1 34/6/1 35/7/1 36/8/1
f 37/5/1 38/6/1 39/7/1 40/8/1
f 41/5/1 42/6/1 43/7/1 44/8/1
f 45/5/1 46/6/1 47/7/1 48/8/1
f 49/5/1 50/6/1 51/7/1 52/8/1
f 53/11/1 54/1/1 55/4/1 56/12/1
f 57/13/1 58/5/1 59/8/1 60/14/1
f 61/13/1 62/5/1 63/8/1 64/14/1
f 65/13/1 66/5/1 67/8/1 68/14/1
f 69/13/1 70/5/1 71/8/1 72/14/1
f 73/13/1 74/5/1 75/8/1 76/14/1
f 77/13/1 78/5/1 79/8/1 80/14/1
f 81/13/1 82/5/1 83/8/1 84/14/1
f 85/13/1 86/5/1 87/8/1 88/14/1
f 89/13/1 90/5/1 91/8/1 92/14/1
f 93/13/1 94/5/1 95/8/1 96/14/1
f 97/9/1 98/15/1 99/16/1 100/10/1
f 101/13/1 102/5/1 103/8/1 104/14/1
f 105/13/1 106/5/1 107/8/1 108/14/1
f 109/13/1 110/5/1 111/8/1 112/14/1
f 113/13/1 114/5/1 115/8/1 116/14/1
f 117/13/1 118/5/1 119/8/1 120/14/1
f 121/17/1 122/18/1 123/19/1 124/20/1
f 125/5/1 126/6/1 127/7/1 128/8/1
f 129/5/1 130/6/1 131/7/1 132/8/1
f 133/5/1 134/6/1 135/7/1 136/8/1
f 137/5/1 138/6/1 139/7/1 140/8/1
f 141/7/1 142/10/1 143/17/1 144/2/1
f 145/5/1 146/6/1 147/7/1 148/8/1
f 149/5/1 150/6/1 151/7/1 152/8/1
f 153/18/1 154/21/1 155/22/1 156/19/1
f 157/16/1 158/23/1 159/21/1 160/18/1
f 161/7/1 162/10/1 163/17/1 164/2/1
f 165/5/1 166/6/1 167/7/1 168/8/1
f 169/10/1 170/16/1 171/18/1 172/17/1
f 173/5/1 174/6/1 175/7/1 176/8/1
f 177/5/1 178/6/1 179/7/1 180/8/1
f 181/5/1 182/6/1 183/7/1 184/8/1
f 185/5/1 186/6/1 187/7/1 188/8/1
f 189/11/1 190/1/1 191/4/1 192/12/1
f 193/13/1 194/5/1 195/8/1 196/14/1
f 197/13/1 198/5/1 199/8/1 200/14/1
f 201/9/1 202/15/1 203/16/1 204/10/1
f 205/13/1 206/5/1 207/8/1 208/14/1
f 209/13/1 210/5/1 211/8/1 212/14/1
f 213/13/1 214/5/1 215/8/1 216/14/1
f 217/13/1 218/5/1 219/8/1 220/14/1
f 221/13/1 222/5/1 223/8/1 224/14/1
f 225/13/1 226/5/1 227/8/1 228/14/1
f 229/13/1 230/5/1 231/8/1 232/14/1
f 233/13/1 234/5/1 235/8/1 236/14/1
f 237/13/1 238/5/1 239/8/1 240/14/1
f 241/15/1 242/24/1 243/23/1 244/16/1
f 245/13/1 246/5/1 247/8/1 248/14/1
f 249/13/1 250/5/1 251/8/1 252/14/1
f 253/9/1 254/15/1 255/16/1 256/10/1
f 257/8/1 258/7/1 259/2/1 260/1/1
f 261/7/1 262/10/1 263/17/1 264/2/1
f 265/5/1 266/6/1 267/7/1 268/8/1
f 269/5/1 270/6/1 271/7/1 272/8/1
f 273/5/1 274/6/1 275/7/1 276/8/1
f 277/5/1 278/6/1 279/7/1 280/8/1
f 281/5/1 282/6/1 283/7/1 284/8/1
f 285/14/1 286/8/1 287/1/1 288/11/1
f 289/13/1 290/5/1 291/8/1 292/14/1
f 293/13/1 294/5/1 295/8/1 296/14/1
f 297/13/1 298/5/1 299/8/1 300/14/1
f 301/13/1 302/5/1 303/8/1 304/14/1
f 305/8/1 306/7/1 307/2/1 308/1/1
f 309/5/1 310/6/1 311/7/1 312/8/1
f 313/5/1 314/6/1 315/7/1 316/8/1
f 317/5/1 318/6/1 319/7/1 320/8/1
f 321/5/1 322/6/1 323/7/1 324/8/1
f 325/5/1 326/6/1 327/7/1 328/8/1
f 329/5/1 330/6/1 331/7/1 332/8/1
f 333/5/1 334/6/1 335/7/1 336/8/1
f 337/18/1 338/21/1 339/22/1 340/19/1
f 341/16/1 342/23/1 343/21/1 344/18/1
f 345/5/1 346/6/1 347/7/1 348/8/1
f 349/5/1 350/6/1 351/7/1 352/8/1

