# Tiled2Unity generated file. Do not modify by hand.
# Wavefront file for 'Cafe1_mesh_0006.obj'

# Vertices (Count = 100)
v -12 -6 0
v -13 -6 0
v -13 -5 0
v -12 -5 0
v -11 -6 0
v -12 -6 0
v -12 -5 0
v -11 -5 0
v -12 -7 0
v -13 -7 0
v -13 -6 0
v -12 -6 0
v -11 -7 0
v -12 -7 0
v -12 -6 0
v -11 -6 0
v -19 -8 0
v -20 -8 0
v -20 -7 0
v -19 -7 0
v -19 -9 0
v -20 -9 0
v -20 -8 0
v -19 -8 0
v -18 -9 0
v -19 -9 0
v -19 -8 0
v -18 -8 0
v -17 -9 0
v -18 -9 0
v -18 -8 0
v -17 -8 0
v -16 -9 0
v -17 -9 0
v -17 -8 0
v -16 -8 0
v -15 -9 0
v -16 -9 0
v -16 -8 0
v -15 -8 0
v -14 -9 0
v -15 -9 0
v -15 -8 0
v -14 -8 0
v -13 -9 0
v -14 -9 0
v -14 -8 0
v -13 -8 0
v -4 -9 0
v -5 -9 0
v -5 -8 0
v -4 -8 0
v -4 -10 0
v -5 -10 0
v -5 -9 0
v -4 -9 0
v -18 -12 0
v -19 -12 0
v -19 -11 0
v -18 -11 0
v -17 -12 0
v -18 -12 0
v -18 -11 0
v -17 -11 0
v -16 -12 0
v -17 -12 0
v -17 -11 0
v -16 -11 0
v -15 -12 0
v -16 -12 0
v -16 -11 0
v -15 -11 0
v -14 -12 0
v -15 -12 0
v -15 -11 0
v -14 -11 0
v -13 -12 0
v -14 -12 0
v -14 -11 0
v -13 -11 0
v -7 -12 0
v -8 -12 0
v -8 -11 0
v -7 -11 0
v -6 -12 0
v -7 -12 0
v -7 -11 0
v -6 -11 0
v -11 -15 0
v -12 -15 0
v -12 -14 0
v -11 -14 0
v -14 -16 0
v -15 -16 0
v -15 -15 0
v -14 -15 0
v -9 -16 0
v -10 -16 0
v -10 -15 0
v -9 -15 0

# Texture cooridinates (Count = 30)
vt 0.3 0.9
vt 0.4 0.9
vt 0.4 1
vt 0.3 1
vt 0.2 0.9
vt 0.2 1
vt 0.3 0.8
vt 0.4 0.8
vt 0 0.1
vt 0.1 0.1
vt 0.1 0.2
vt 0 0.2
vt 0.6 0.9
vt 0.7 0.9
vt 0.7 1
vt 0.6 1
vt 0.5 0.9
vt 0.5 1
vt 0.9 0.7
vt 1 0.7
vt 1 0.8
vt 0.9 0.8
vt 0.8 0.7
vt 0.8 0.8
vt 0.9 0
vt 1 0
vt 1 0.1
vt 0.9 0.1
vt 0.8 0
vt 0.8 0.1

# Normal
vn 0 0 -1

# Mesh description
g Cafe1_mesh_0006

# Faces
f 1/1/1 2/2/1 3/3/1 4/4/1
f 5/1/1 6/2/1 7/3/1 8/4/1
f 9/5/1 10/1/1 11/4/1 12/6/1
f 13/5/1 14/1/1 15/4/1 16/6/1
f 17/1/1 18/2/1 19/3/1 20/4/1
f 21/7/1 22/8/1 23/2/1 24/1/1
f 25/5/1 26/1/1 27/4/1 28/6/1
f 29/5/1 30/1/1 31/4/1 32/6/1
f 33/5/1 34/1/1 35/4/1 36/6/1
f 37/5/1 38/1/1 39/4/1 40/6/1
f 41/5/1 42/1/1 43/4/1 44/6/1
f 45/5/1 46/1/1 47/4/1 48/6/1
f 49/9/1 50/10/1 51/11/1 52/12/1
f 53/9/1 54/10/1 55/11/1 56/12/1
f 57/13/1 58/14/1 59/15/1 60/16/1
f 61/17/1 62/13/1 63/16/1 64/18/1
f 65/17/1 66/13/1 67/16/1 68/18/1
f 69/17/1 70/13/1 71/16/1 72/18/1
f 73/17/1 74/13/1 75/16/1 76/18/1
f 77/2/1 78/17/1 79/18/1 80/3/1
f 81/19/1 82/20/1 83/21/1 84/22/1
f 85/23/1 86/19/1 87/22/1 88/24/1
f 89/25/1 90/26/1 91/27/1 92/28/1
f 93/25/1 94/26/1 95/27/1 96/28/1
f 97/29/1 98/25/1 99/28/1 100/30/1

