# Tiled2Unity generated file. Do not modify by hand.
# Wavefront file for 'Cafe1_mesh_0006.obj'

# Vertices (Count = 264)
v -6 -6 0
v -7 -6 0
v -7 -5 0
v -6 -5 0
v -12 -7 0
v -13 -7 0
v -13 -6 0
v -12 -6 0
v -11 -7 0
v -12 -7 0
v -12 -6 0
v -11 -6 0
v -10 -7 0
v -11 -7 0
v -11 -6 0
v -10 -6 0
v -9 -7 0
v -10 -7 0
v -10 -6 0
v -9 -6 0
v -8 -7 0
v -9 -7 0
v -9 -6 0
v -8 -6 0
v -6 -7 0
v -7 -7 0
v -7 -6 0
v -6 -6 0
v -19 -8 0
v -20 -8 0
v -20 -7 0
v -19 -7 0
v -18 -8 0
v -19 -8 0
v -19 -7 0
v -18 -7 0
v -17 -8 0
v -18 -8 0
v -18 -7 0
v -17 -7 0
v -16 -8 0
v -17 -8 0
v -17 -7 0
v -16 -7 0
v -15 -8 0
v -16 -8 0
v -16 -7 0
v -15 -7 0
v -14 -8 0
v -15 -8 0
v -15 -7 0
v -14 -7 0
v -13 -8 0
v -14 -8 0
v -14 -7 0
v -13 -7 0
v -19 -9 0
v -20 -9 0
v -20 -8 0
v -19 -8 0
v -18 -9 0
v -19 -9 0
v -19 -8 0
v -18 -8 0
v -17 -9 0
v -18 -9 0
v -18 -8 0
v -17 -8 0
v -16 -9 0
v -17 -9 0
v -17 -8 0
v -16 -8 0
v -15 -9 0
v -16 -9 0
v -16 -8 0
v -15 -8 0
v -14 -9 0
v -15 -9 0
v -15 -8 0
v -14 -8 0
v -13 -9 0
v -14 -9 0
v -14 -8 0
v -13 -8 0
v -4 -9 0
v -5 -9 0
v -5 -8 0
v -4 -8 0
v -10 -10 0
v -11 -10 0
v -11 -9 0
v -10 -9 0
v -9 -10 0
v -10 -10 0
v -10 -9 0
v -9 -9 0
v -8 -10 0
v -9 -10 0
v -9 -9 0
v -8 -9 0
v -7 -10 0
v -8 -10 0
v -8 -9 0
v -7 -9 0
v -6 -10 0
v -7 -10 0
v -7 -9 0
v -6 -9 0
v -4 -10 0
v -5 -10 0
v -5 -9 0
v -4 -9 0
v -18 -12 0
v -19 -12 0
v -19 -11 0
v -18 -11 0
v -17 -12 0
v -18 -12 0
v -18 -11 0
v -17 -11 0
v -16 -12 0
v -17 -12 0
v -17 -11 0
v -16 -11 0
v -15 -12 0
v -16 -12 0
v -16 -11 0
v -15 -11 0
v -14 -12 0
v -15 -12 0
v -15 -11 0
v -14 -11 0
v -13 -12 0
v -14 -12 0
v -14 -11 0
v -13 -11 0
v -7 -12 0
v -8 -12 0
v -8 -11 0
v -7 -11 0
v -6 -12 0
v -7 -12 0
v -7 -11 0
v -6 -11 0
v -5 -12 0
v -6 -12 0
v -6 -11 0
v -5 -11 0
v -7 -13 0
v -8 -13 0
v -8 -12 0
v -7 -12 0
v -6 -13 0
v -7 -13 0
v -7 -12 0
v -6 -12 0
v -5 -13 0
v -6 -13 0
v -6 -12 0
v -5 -12 0
v -19 -14 0
v -20 -14 0
v -20 -13 0
v -19 -13 0
v -18 -14 0
v -19 -14 0
v -19 -13 0
v -18 -13 0
v -14 -14 0
v -15 -14 0
v -15 -13 0
v -14 -13 0
v -13 -14 0
v -14 -14 0
v -14 -13 0
v -13 -13 0
v -12 -14 0
v -13 -14 0
v -13 -13 0
v -12 -13 0
v -11 -14 0
v -12 -14 0
v -12 -13 0
v -11 -13 0
v -10 -14 0
v -11 -14 0
v -11 -13 0
v -10 -13 0
v -9 -14 0
v -10 -14 0
v -10 -13 0
v -9 -13 0
v -19 -16 0
v -20 -16 0
v -20 -15 0
v -19 -15 0
v -18 -16 0
v -19 -16 0
v -19 -15 0
v -18 -15 0
v -14 -16 0
v -15 -16 0
v -15 -15 0
v -14 -15 0
v -13 -16 0
v -14 -16 0
v -14 -15 0
v -13 -15 0
v -12 -16 0
v -13 -16 0
v -13 -15 0
v -12 -15 0
v -11 -16 0
v -12 -16 0
v -12 -15 0
v -11 -15 0
v -10 -16 0
v -11 -16 0
v -11 -15 0
v -10 -15 0
v -9 -16 0
v -10 -16 0
v -10 -15 0
v -9 -15 0
v -19 -18 0
v -20 -18 0
v -20 -17 0
v -19 -17 0
v -18 -18 0
v -19 -18 0
v -19 -17 0
v -18 -17 0
v -14 -18 0
v -15 -18 0
v -15 -17 0
v -14 -17 0
v -13 -18 0
v -14 -18 0
v -14 -17 0
v -13 -17 0
v -12 -18 0
v -13 -18 0
v -13 -17 0
v -12 -17 0
v -11 -18 0
v -12 -18 0
v -12 -17 0
v -11 -17 0
v -10 -18 0
v -11 -18 0
v -11 -17 0
v -10 -17 0
v -9 -18 0
v -10 -18 0
v -10 -17 0
v -9 -17 0
v -19 -20 0
v -20 -20 0
v -20 -19 0
v -19 -19 0
v -18 -20 0
v -19 -20 0
v -19 -19 0
v -18 -19 0

# Texture cooridinates (Count = 47)
vt 0.3 0.9
vt 0.4 0.9
vt 0.4 1
vt 0.3 1
vt 0.8 0.8
vt 0.9 0.8
vt 0.9 0.9
vt 0.8 0.9
vt 0.7 0.8
vt 0.7 0.9
vt 0.2 0.8
vt 0.3 0.8
vt 0.2 0.9
vt 0.1 0.8
vt 0.1 0.9
vt 0 0.8
vt 0 0.9
vt 0.4 0.8
vt 0 0.1
vt 0.1 0.1
vt 0.1 0.2
vt 0 0.2
vt 0.6 0.9
vt 0.7 1
vt 0.6 1
vt 0.5 0.9
vt 0.5 1
vt 1 0.9
vt 1 1
vt 0.9 1
vt 0.3 0.4
vt 0.4 0.4
vt 0.4 0.5
vt 0.3 0.5
vt 1 0.8
vt 0.3 0.3
vt 0.4 0.3
vt 0.6 0.5
vt 0.7 0.5
vt 0.7 0.6
vt 0.6 0.6
vt 0.8 0.5
vt 0.9 0.5
vt 0.9 0.6
vt 0.8 0.6
vt 1 0.5
vt 1 0.6

# Normal
vn 0 0 -1

# Mesh description
g Cafe1_mesh_0006

# Faces
f 1/1/1 2/2/1 3/3/1 4/4/1
f 5/5/1 6/6/1 7/7/1 8/8/1
f 9/9/1 10/5/1 11/8/1 12/10/1
f 13/11/1 14/12/1 15/1/1 16/13/1
f 17/14/1 18/11/1 19/13/1 20/15/1
f 21/16/1 22/14/1 23/15/1 24/17/1
f 25/12/1 26/18/1 27/2/1 28/1/1
f 29/1/1 30/2/1 31/3/1 32/4/1
f 33/1/1 34/2/1 35/3/1 36/4/1
f 37/1/1 38/2/1 39/3/1 40/4/1
f 41/1/1 42/2/1 43/3/1 44/4/1
f 45/1/1 46/2/1 47/3/1 48/4/1
f 49/1/1 50/2/1 51/3/1 52/4/1
f 53/1/1 54/2/1 55/3/1 56/4/1
f 57/12/1 58/18/1 59/2/1 60/1/1
f 61/11/1 62/12/1 63/1/1 64/13/1
f 65/14/1 66/11/1 67/13/1 68/15/1
f 69/14/1 70/11/1 71/13/1 72/15/1
f 73/14/1 74/11/1 75/13/1 76/15/1
f 77/14/1 78/11/1 79/13/1 80/15/1
f 81/16/1 82/14/1 83/15/1 84/17/1
f 85/19/1 86/20/1 87/21/1 88/22/1
f 89/11/1 90/12/1 91/1/1 92/13/1
f 93/14/1 94/11/1 95/13/1 96/15/1
f 97/14/1 98/11/1 99/13/1 100/15/1
f 101/14/1 102/11/1 103/13/1 104/15/1
f 105/16/1 106/14/1 107/15/1 108/17/1
f 109/19/1 110/20/1 111/21/1 112/22/1
f 113/23/1 114/10/1 115/24/1 116/25/1
f 117/26/1 118/23/1 119/25/1 120/27/1
f 121/26/1 122/23/1 123/25/1 124/27/1
f 125/26/1 126/23/1 127/25/1 128/27/1
f 129/26/1 130/23/1 131/25/1 132/27/1
f 133/2/1 134/26/1 135/27/1 136/3/1
f 137/7/1 138/28/1 139/29/1 140/30/1
f 141/7/1 142/28/1 143/29/1 144/30/1
f 145/31/1 146/32/1 147/33/1 148/34/1
f 149/6/1 150/35/1 151/28/1 152/7/1
f 153/6/1 154/35/1 155/28/1 156/7/1
f 157/36/1 158/37/1 159/32/1 160/31/1
f 161/38/1 162/39/1 163/40/1 164/41/1
f 165/42/1 166/43/1 167/44/1 168/45/1
f 169/43/1 170/46/1 171/47/1 172/44/1
f 173/38/1 174/39/1 175/40/1 176/41/1
f 177/42/1 178/43/1 179/44/1 180/45/1
f 181/43/1 182/46/1 183/47/1 184/44/1
f 185/38/1 186/39/1 187/40/1 188/41/1
f 189/42/1 190/43/1 191/44/1 192/45/1
f 193/38/1 194/39/1 195/40/1 196/41/1
f 197/42/1 198/43/1 199/44/1 200/45/1
f 201/43/1 202/46/1 203/47/1 204/44/1
f 205/38/1 206/39/1 207/40/1 208/41/1
f 209/42/1 210/43/1 211/44/1 212/45/1
f 213/43/1 214/46/1 215/47/1 216/44/1
f 217/38/1 218/39/1 219/40/1 220/41/1
f 221/42/1 222/43/1 223/44/1 224/45/1
f 225/38/1 226/39/1 227/40/1 228/41/1
f 229/42/1 230/43/1 231/44/1 232/45/1
f 233/43/1 234/46/1 235/47/1 236/44/1
f 237/38/1 238/39/1 239/40/1 240/41/1
f 241/42/1 242/43/1 243/44/1 244/45/1
f 245/43/1 246/46/1 247/47/1 248/44/1
f 249/38/1 250/39/1 251/40/1 252/41/1
f 253/42/1 254/43/1 255/44/1 256/45/1
f 257/38/1 258/39/1 259/40/1 260/41/1
f 261/42/1 262/43/1 263/44/1 264/45/1

