# Tiled2Unity generated file. Do not modify by hand.
# Wavefront file for 'Cafe1_mesh_0005.obj'

# Vertices (Count = 12)
v -8 -17 0
v -9 -17 0
v -9 -16 0
v -8 -16 0
v -7 -17 0
v -8 -17 0
v -8 -16 0
v -7 -16 0
v -5 -17 0
v -6 -17 0
v -6 -16 0
v -5 -16 0

# Texture cooridinates (Count = 6)
vt 0.1 0.2
vt 0.2 0.2
vt 0.2 0.3
vt 0.1 0.3
vt 0 0.2
vt 0 0.3

# Normal
vn 0 0 -1

# Mesh description
g Cafe1_mesh_0005

# Faces
f 1/1/1 2/2/1 3/3/1 4/4/1
f 5/5/1 6/1/1 7/4/1 8/6/1
f 9/1/1 10/2/1 11/3/1 12/4/1

