# Tiled2Unity generated file. Do not modify by hand.
# Wavefront file for 'dev_map_mesh_0004.obj'

# Vertices (Count = 32)
v -15 -20 0
v -16 -20 0
v -16 -19 0
v -15 -19 0
v -13 -20 0
v -14 -20 0
v -14 -19 0
v -13 -19 0
v -15 -19 0
v -16 -19 0
v -16 -18 0
v -15 -18 0
v -13 -19 0
v -14 -19 0
v -14 -18 0
v -13 -18 0
v -7 -19 0
v -8 -19 0
v -8 -18 0
v -7 -18 0
v -7 -18 0
v -8 -18 0
v -8 -17 0
v -7 -17 0
v -15 -9 0
v -16 -9 0
v -16 -8 0
v -15 -8 0
v -15 -8 0
v -16 -8 0
v -16 -7 0
v -15 -7 0

# Texture cooridinates (Count = 4)
vt 0.1 0.7
vt 0.2 0.7
vt 0.2 0.8
vt 0.1 0.8

# Normal
vn 0 0 -1

# Mesh description
g dev_map_mesh_0004

# Faces
f 1/1/1 2/2/1 3/3/1 4/4/1
f 5/1/1 6/2/1 7/3/1 8/4/1
f 9/1/1 10/2/1 11/3/1 12/4/1
f 13/1/1 14/2/1 15/3/1 16/4/1
f 17/1/1 18/2/1 19/3/1 20/4/1
f 21/1/1 22/2/1 23/3/1 24/4/1
f 25/1/1 26/2/1 27/3/1 28/4/1
f 29/1/1 30/2/1 31/3/1 32/4/1

