# Tiled2Unity generated file. Do not modify by hand.
# Wavefront file for 'dev_map_mesh_0007.obj'

# Vertices (Count = 28)
v -32 -18 0
v -33 -18 0
v -33 -17 0
v -32 -17 0
v -16 -18 0
v -17 -18 0
v -17 -17 0
v -16 -17 0
v -16 -17 0
v -17 -17 0
v -17 -16 0
v -16 -16 0
v -35 -16 0
v -36 -16 0
v -36 -15 0
v -35 -15 0
v -34 -16 0
v -35 -16 0
v -35 -15 0
v -34 -15 0
v -33 -16 0
v -34 -16 0
v -34 -15 0
v -33 -15 0
v -16 -16 0
v -17 -16 0
v -17 -15 0
v -16 -15 0

# Texture cooridinates (Count = 18)
vt 0.8 0.6
vt 0.9 0.6
vt 0.9 0.7
vt 0.8 0.7
vt 0.9 0.5
vt 1 0.5
vt 1 0.6
vt 1 0.7
vt 0.6 0.9
vt 0.7 0.9
vt 0.7 1
vt 0.6 1
vt 0.5 0.9
vt 0.5 1
vt 0.4 0.9
vt 0.4 1
vt 0.3 0.9
vt 0.3 1

# Normal
vn 0 0 -1

# Mesh description
g dev_map_mesh_0007

# Faces
f 1/1/1 2/2/1 3/3/1 4/4/1
f 5/5/1 6/6/1 7/7/1 8/2/1
f 9/2/1 10/7/1 11/8/1 12/3/1
f 13/9/1 14/10/1 15/11/1 16/12/1
f 17/13/1 18/9/1 19/12/1 20/14/1
f 21/15/1 22/13/1 23/14/1 24/16/1
f 25/17/1 26/15/1 27/16/1 28/18/1

