# Tiled2Unity generated file. Do not modify by hand.
# Wavefront file for 'TownHouse2_mesh_0005.obj'

# Vertices (Count = 244)
v -20 -5 0
v -21 -5 0
v -21 -4 0
v -20 -4 0
v -8 -5 0
v -9 -5 0
v -9 -4 0
v -8 -4 0
v -7 -5 0
v -8 -5 0
v -8 -4 0
v -7 -4 0
v -6 -5 0
v -7 -5 0
v -7 -4 0
v -6 -4 0
v -5 -5 0
v -6 -5 0
v -6 -4 0
v -5 -4 0
v -4 -5 0
v -5 -5 0
v -5 -4 0
v -4 -4 0
v -20 -6 0
v -21 -6 0
v -21 -5 0
v -20 -5 0
v -17 -6 0
v -18 -6 0
v -18 -5 0
v -17 -5 0
v -16 -6 0
v -17 -6 0
v -17 -5 0
v -16 -5 0
v -15 -6 0
v -16 -6 0
v -16 -5 0
v -15 -5 0
v -13 -6 0
v -14 -6 0
v -14 -5 0
v -13 -5 0
v -12 -6 0
v -13 -6 0
v -13 -5 0
v -12 -5 0
v -11 -6 0
v -12 -6 0
v -12 -5 0
v -11 -5 0
v -8 -6 0
v -9 -6 0
v -9 -5 0
v -8 -5 0
v -7 -6 0
v -8 -6 0
v -8 -5 0
v -7 -5 0
v -6 -6 0
v -7 -6 0
v -7 -5 0
v -6 -5 0
v -5 -6 0
v -6 -6 0
v -6 -5 0
v -5 -5 0
v -4 -6 0
v -5 -6 0
v -5 -5 0
v -4 -5 0
v -20 -7 0
v -21 -7 0
v -21 -6 0
v -20 -6 0
v -20 -8 0
v -21 -8 0
v -21 -7 0
v -20 -7 0
v -17 -8 0
v -18 -8 0
v -18 -7 0
v -17 -7 0
v -16 -8 0
v -17 -8 0
v -17 -7 0
v -16 -7 0
v -15 -8 0
v -16 -8 0
v -16 -7 0
v -15 -7 0
v -13 -8 0
v -14 -8 0
v -14 -7 0
v -13 -7 0
v -12 -8 0
v -13 -8 0
v -13 -7 0
v -12 -7 0
v -11 -8 0
v -12 -8 0
v -12 -7 0
v -11 -7 0
v -20 -9 0
v -21 -9 0
v -21 -8 0
v -20 -8 0
v -7 -9 0
v -8 -9 0
v -8 -8 0
v -7 -8 0
v -6 -9 0
v -7 -9 0
v -7 -8 0
v -6 -8 0
v -5 -9 0
v -6 -9 0
v -6 -8 0
v -5 -8 0
v -4 -9 0
v -5 -9 0
v -5 -8 0
v -4 -8 0
v -20 -12 0
v -21 -12 0
v -21 -11 0
v -20 -11 0
v -19 -12 0
v -20 -12 0
v -20 -11 0
v -19 -11 0
v -17 -12 0
v -18 -12 0
v -18 -11 0
v -17 -11 0
v -16 -12 0
v -17 -12 0
v -17 -11 0
v -16 -11 0
v -8 -12 0
v -9 -12 0
v -9 -11 0
v -8 -11 0
v -7 -12 0
v -8 -12 0
v -8 -11 0
v -7 -11 0
v -20 -13 0
v -21 -13 0
v -21 -12 0
v -20 -12 0
v -19 -13 0
v -20 -13 0
v -20 -12 0
v -19 -12 0
v -17 -13 0
v -18 -13 0
v -18 -12 0
v -17 -12 0
v -16 -13 0
v -17 -13 0
v -17 -12 0
v -16 -12 0
v -8 -13 0
v -9 -13 0
v -9 -12 0
v -8 -12 0
v -7 -13 0
v -8 -13 0
v -8 -12 0
v -7 -12 0
v -4 -13 0
v -5 -13 0
v -5 -12 0
v -4 -12 0
v -4 -14 0
v -5 -14 0
v -5 -13 0
v -4 -13 0
v -4 -15 0
v -5 -15 0
v -5 -14 0
v -4 -14 0
v -20 -16 0
v -21 -16 0
v -21 -15 0
v -20 -15 0
v -16 -16 0
v -17 -16 0
v -17 -15 0
v -16 -15 0
v -8 -16 0
v -9 -16 0
v -9 -15 0
v -8 -15 0
v -7 -16 0
v -8 -16 0
v -8 -15 0
v -7 -15 0
v -4 -16 0
v -5 -16 0
v -5 -15 0
v -4 -15 0
v -20 -17 0
v -21 -17 0
v -21 -16 0
v -20 -16 0
v -16 -17 0
v -17 -17 0
v -17 -16 0
v -16 -16 0
v -4 -17 0
v -5 -17 0
v -5 -16 0
v -4 -16 0
v -20 -18 0
v -21 -18 0
v -21 -17 0
v -20 -17 0
v -16 -18 0
v -17 -18 0
v -17 -17 0
v -16 -17 0
v -4 -18 0
v -5 -18 0
v -5 -17 0
v -4 -17 0
v -8 -19 0
v -9 -19 0
v -9 -18 0
v -8 -18 0
v -4 -19 0
v -5 -19 0
v -5 -18 0
v -4 -18 0
v -8 -20 0
v -9 -20 0
v -9 -19 0
v -8 -19 0
v -4 -20 0
v -5 -20 0
v -5 -19 0
v -4 -19 0

# Texture cooridinates (Count = 65)
vt 0.5 0.6
vt 0.6 0.6
vt 0.6 0.7
vt 0.5 0.7
vt 0.3 0.9
vt 0.4 0.9
vt 0.4 1
vt 0.3 1
vt 0.5 0.5
vt 0.6 0.5
vt 0.9 0.5
vt 1 0.5
vt 1 0.6
vt 0.9 0.6
vt 0.7 0.5
vt 0.7 0.6
vt 0.8 0.5
vt 0.8 0.6
vt 0.3 0.8
vt 0.4 0.8
vt 0.8 0.8
vt 0.9 0.8
vt 0.9 0.9
vt 0.8 0.9
vt 0.7 0.8
vt 0.7 0.9
vt 0.2 0.8
vt 0.2 0.9
vt 0 0.8
vt 0.1 0.8
vt 0.1 0.9
vt 0 0.9
vt 0.7 0
vt 0.8 0
vt 0.8 0.1
vt 0.7 0.1
vt 1 0.9
vt 1 1
vt 0.9 1
vt 0.3 0.4
vt 0.4 0.4
vt 0.4 0.5
vt 0.3 0.5
vt 1 0.8
vt 0.3 0.3
vt 0.4 0.3
vt 0.3 0.7
vt 0.4 0.7
vt 0.3 0.6
vt 0.4 0.6
vt 0 0.5
vt 0.1 0.5
vt 0.1 0.6
vt 0 0.6
vt 0.1 0.7
vt 0.2 0.7
vt 0 0.4
vt 0.1 0.4
vt 0.2 0.6
vt 0 0.3
vt 0.1 0.3
vt 0.6 0.8
vt 0.6 0.9
vt 0 0.7
vt 0.7 0.7

# Normal
vn 0 0 -1

# Mesh description
g TownHouse2_mesh_0005

# Faces
f 1/1/1 2/2/1 3/3/1 4/4/1
f 5/5/1 6/6/1 7/7/1 8/8/1
f 9/5/1 10/6/1 11/7/1 12/8/1
f 13/5/1 14/6/1 15/7/1 16/8/1
f 17/5/1 18/6/1 19/7/1 20/8/1
f 21/5/1 22/6/1 23/7/1 24/8/1
f 25/9/1 26/10/1 27/2/1 28/1/1
f 29/11/1 30/12/1 31/13/1 32/14/1
f 33/10/1 34/15/1 35/16/1 36/2/1
f 37/17/1 38/11/1 39/14/1 40/18/1
f 41/11/1 42/12/1 43/13/1 44/14/1
f 45/10/1 46/15/1 47/16/1 48/2/1
f 49/17/1 50/11/1 51/14/1 52/18/1
f 53/19/1 54/20/1 55/6/1 56/5/1
f 57/21/1 58/22/1 59/23/1 60/24/1
f 61/25/1 62/21/1 63/24/1 64/26/1
f 65/27/1 66/19/1 67/5/1 68/28/1
f 69/29/1 70/30/1 71/31/1 72/32/1
f 73/33/1 74/34/1 75/35/1 76/36/1
f 77/10/1 78/15/1 79/16/1 80/2/1
f 81/11/1 82/12/1 83/13/1 84/14/1
f 85/10/1 86/15/1 87/16/1 88/2/1
f 89/17/1 90/11/1 91/14/1 92/18/1
f 93/11/1 94/12/1 95/13/1 96/14/1
f 97/10/1 98/15/1 99/16/1 100/2/1
f 101/17/1 102/11/1 103/14/1 104/18/1
f 105/33/1 106/34/1 107/35/1 108/36/1
f 109/27/1 110/19/1 111/5/1 112/28/1
f 113/30/1 114/27/1 115/28/1 116/31/1
f 117/30/1 118/27/1 119/28/1 120/31/1
f 121/29/1 122/30/1 123/31/1 124/32/1
f 125/23/1 126/37/1 127/38/1 128/39/1
f 129/23/1 130/37/1 131/38/1 132/39/1
f 133/40/1 134/41/1 135/42/1 136/43/1
f 137/40/1 138/41/1 139/42/1 140/43/1
f 141/1/1 142/2/1 143/3/1 144/4/1
f 145/1/1 146/2/1 147/3/1 148/4/1
f 149/22/1 150/44/1 151/37/1 152/23/1
f 153/22/1 154/44/1 155/37/1 156/23/1
f 157/45/1 158/46/1 159/41/1 160/40/1
f 161/45/1 162/46/1 163/41/1 164/40/1
f 165/9/1 166/10/1 167/2/1 168/1/1
f 169/9/1 170/10/1 171/2/1 172/1/1
f 173/47/1 174/48/1 175/20/1 176/19/1
f 177/49/1 178/50/1 179/48/1 180/47/1
f 181/10/1 182/15/1 183/16/1 184/2/1
f 185/51/1 186/52/1 187/53/1 188/54/1
f 189/51/1 190/52/1 191/53/1 192/54/1
f 193/27/1 194/19/1 195/5/1 196/28/1
f 197/29/1 198/30/1 199/31/1 200/32/1
f 201/55/1 202/56/1 203/27/1 204/30/1
f 205/57/1 206/58/1 207/52/1 208/51/1
f 209/57/1 210/58/1 211/52/1 212/51/1
f 213/53/1 214/59/1 215/56/1 216/55/1
f 217/60/1 218/61/1 219/58/1 220/57/1
f 221/60/1 222/61/1 223/58/1 224/57/1
f 225/10/1 226/15/1 227/16/1 228/2/1
f 229/62/1 230/25/1 231/26/1 232/63/1
f 233/64/1 234/55/1 235/30/1 236/29/1
f 237/3/1 238/65/1 239/25/1 240/62/1
f 241/54/1 242/53/1 243/55/1 244/64/1

