# Tiled2Unity generated file. Do not modify by hand.
# Wavefront file for 'TownHouse2_mesh_0005.obj'

# Vertices (Count = 52)
v -5 -12 0
v -6 -12 0
v -6 -11 0
v -5 -11 0
v -4 -12 0
v -5 -12 0
v -5 -11 0
v -4 -11 0
v -16 -13 0
v -17 -13 0
v -17 -12 0
v -16 -12 0
v -5 -13 0
v -6 -13 0
v -6 -12 0
v -5 -12 0
v -4 -13 0
v -5 -13 0
v -5 -12 0
v -4 -12 0
v -16 -14 0
v -17 -14 0
v -17 -13 0
v -16 -13 0
v -16 -15 0
v -17 -15 0
v -17 -14 0
v -16 -14 0
v -5 -17 0
v -6 -17 0
v -6 -16 0
v -5 -16 0
v -4 -17 0
v -5 -17 0
v -5 -16 0
v -4 -16 0
v -5 -18 0
v -6 -18 0
v -6 -17 0
v -5 -17 0
v -4 -18 0
v -5 -18 0
v -5 -17 0
v -4 -17 0
v -5 -20 0
v -6 -20 0
v -6 -19 0
v -5 -19 0
v -4 -20 0
v -5 -20 0
v -5 -19 0
v -4 -19 0

# Texture cooridinates (Count = 25)
vt 0 0.9
vt 0.1 0.9
vt 0.1 1
vt 0 1
vt 0.7 0.6
vt 0.8 0.6
vt 0.8 0.7
vt 0.7 0.7
vt 0 0.8
vt 0.1 0.8
vt 0.7 0.5
vt 0.8 0.5
vt 0.7 0.4
vt 0.8 0.4
vt 0.9 0.3
vt 1 0.3
vt 1 0.4
vt 0.9 0.4
vt 0.8 0.3
vt 0.9 0.1
vt 1 0.1
vt 1 0.2
vt 0.9 0.2
vt 0.8 0.1
vt 0.8 0.2

# Normal
vn 0 0 -1

# Mesh description
g TownHouse2_mesh_0005

# Faces
f 1/1/1 2/2/1 3/3/1 4/4/1
f 5/1/1 6/2/1 7/3/1 8/4/1
f 9/5/1 10/6/1 11/7/1 12/8/1
f 13/9/1 14/10/1 15/2/1 16/1/1
f 17/9/1 18/10/1 19/2/1 20/1/1
f 21/11/1 22/12/1 23/6/1 24/5/1
f 25/13/1 26/14/1 27/12/1 28/11/1
f 29/15/1 30/16/1 31/17/1 32/18/1
f 33/19/1 34/15/1 35/18/1 36/14/1
f 37/20/1 38/21/1 39/22/1 40/23/1
f 41/24/1 42/20/1 43/23/1 44/25/1
f 45/15/1 46/16/1 47/17/1 48/18/1
f 49/19/1 50/15/1 51/18/1 52/14/1

