# Tiled2Unity generated file. Do not modify by hand.
# Wavefront file for 'TownHouse2_mesh_0006.obj'

# Vertices (Count = 52)
v -16 -5 0
v -17 -5 0
v -17 -4 0
v -16 -4 0
v -12 -5 0
v -13 -5 0
v -13 -4 0
v -12 -4 0
v -16 -6 0
v -17 -6 0
v -17 -5 0
v -16 -5 0
v -12 -6 0
v -13 -6 0
v -13 -5 0
v -12 -5 0
v -20 -8 0
v -21 -8 0
v -21 -7 0
v -20 -7 0
v -16 -8 0
v -17 -8 0
v -17 -7 0
v -16 -7 0
v -12 -8 0
v -13 -8 0
v -13 -7 0
v -12 -7 0
v -6 -9 0
v -7 -9 0
v -7 -8 0
v -6 -8 0
v -4 -9 0
v -5 -9 0
v -5 -8 0
v -4 -8 0
v -20 -12 0
v -21 -12 0
v -21 -11 0
v -20 -11 0
v -19 -12 0
v -20 -12 0
v -20 -11 0
v -19 -11 0
v -17 -16 0
v -18 -16 0
v -18 -15 0
v -17 -15 0
v -7 -16 0
v -8 -16 0
v -8 -15 0
v -7 -15 0

# Texture cooridinates (Count = 17)
vt 0.9 0.8
vt 1 0.8
vt 1 0.9
vt 0.9 0.9
vt 0.9 0.7
vt 1 0.7
vt 0.8 0.7
vt 0.8 0.8
vt 0.2 0.9
vt 0.3 0.9
vt 0.3 1
vt 0.2 1
vt 0.1 0.9
vt 0.1 1
vt 0 0.8
vt 0.1 0.8
vt 0 0.9

# Normal
vn 0 0 -1

# Mesh description
g TownHouse2_mesh_0006

# Faces
f 1/1/1 2/2/1 3/3/1 4/4/1
f 5/1/1 6/2/1 7/3/1 8/4/1
f 9/5/1 10/6/1 11/2/1 12/1/1
f 13/5/1 14/6/1 15/2/1 16/1/1
f 17/7/1 18/5/1 19/1/1 20/8/1
f 21/5/1 22/6/1 23/2/1 24/1/1
f 25/5/1 26/6/1 27/2/1 28/1/1
f 29/7/1 30/5/1 31/1/1 32/8/1
f 33/5/1 34/6/1 35/2/1 36/1/1
f 37/9/1 38/10/1 39/11/1 40/12/1
f 41/13/1 42/9/1 43/12/1 44/14/1
f 45/15/1 46/16/1 47/13/1 48/17/1
f 49/7/1 50/5/1 51/1/1 52/8/1

