# Tiled2Unity generated file. Do not modify by hand.
# Wavefront file for 'TownHouse2_mesh_0006.obj'

# Vertices (Count = 44)
v -8 -5 0
v -9 -5 0
v -9 -4 0
v -8 -4 0
v -20 -6 0
v -21 -6 0
v -21 -5 0
v -20 -5 0
v -7 -6 0
v -8 -6 0
v -8 -5 0
v -7 -5 0
v -6 -6 0
v -7 -6 0
v -7 -5 0
v -6 -5 0
v -5 -6 0
v -6 -6 0
v -6 -5 0
v -5 -5 0
v -4 -6 0
v -5 -6 0
v -5 -5 0
v -4 -5 0
v -20 -8 0
v -21 -8 0
v -21 -7 0
v -20 -7 0
v -20 -12 0
v -21 -12 0
v -21 -11 0
v -20 -11 0
v -19 -12 0
v -20 -12 0
v -20 -11 0
v -19 -11 0
v -5 -12 0
v -6 -12 0
v -6 -11 0
v -5 -11 0
v -17 -16 0
v -18 -16 0
v -18 -15 0
v -17 -15 0

# Texture cooridinates (Count = 18)
vt 0.1 0.9
vt 0.2 0.9
vt 0.2 1
vt 0.1 1
vt 0.7 0
vt 0.8 0
vt 0.8 0.1
vt 0.7 0.1
vt 0.3 0.9
vt 0.3 1
vt 0.9 0.7
vt 1 0.7
vt 1 0.8
vt 0.9 0.8
vt 0.8 0.7
vt 0.8 0.8
vt 0 0.9
vt 0 1

# Normal
vn 0 0 -1

# Mesh description
g TownHouse2_mesh_0006

# Faces
f 1/1/1 2/2/1 3/3/1 4/4/1
f 5/5/1 6/6/1 7/7/1 8/8/1
f 9/2/1 10/9/1 11/10/1 12/3/1
f 13/2/1 14/9/1 15/10/1 16/3/1
f 17/2/1 18/9/1 19/10/1 20/3/1
f 21/2/1 22/9/1 23/10/1 24/3/1
f 25/5/1 26/6/1 27/7/1 28/8/1
f 29/11/1 30/12/1 31/13/1 32/14/1
f 33/15/1 34/11/1 35/14/1 36/16/1
f 37/17/1 38/1/1 39/4/1 40/18/1
f 41/1/1 42/2/1 43/3/1 44/4/1

