# Tiled2Unity generated file. Do not modify by hand.
# Wavefront file for 'TownHouse2_mesh_0007.obj'

# Vertices (Count = 16)
v -7 -6 0
v -8 -6 0
v -8 -5 0
v -7 -5 0
v -6 -6 0
v -7 -6 0
v -7 -5 0
v -6 -5 0
v -5 -6 0
v -6 -6 0
v -6 -5 0
v -5 -5 0
v -4 -6 0
v -5 -6 0
v -5 -5 0
v -4 -5 0

# Texture cooridinates (Count = 4)
vt 0.2 0.9
vt 0.3 0.9
vt 0.3 1
vt 0.2 1

# Normal
vn 0 0 -1

# Mesh description
g TownHouse2_mesh_0007

# Faces
f 1/1/1 2/2/1 3/3/1 4/4/1
f 5/1/1 6/2/1 7/3/1 8/4/1
f 9/1/1 10/2/1 11/3/1 12/4/1
f 13/1/1 14/2/1 15/3/1 16/4/1

