# Tiled2Unity generated file. Do not modify by hand.
# Wavefront file for 'TownHouse4_mesh_0007.obj'

# Vertices (Count = 16)
v -13 -15 0
v -14 -15 0
v -14 -14 0
v -13 -14 0
v -12 -15 0
v -13 -15 0
v -13 -14 0
v -12 -14 0
v -13 -16 0
v -14 -16 0
v -14 -15 0
v -13 -15 0
v -12 -16 0
v -13 -16 0
v -13 -15 0
v -12 -15 0

# Texture cooridinates (Count = 6)
vt 0.3 0.9
vt 0.4 0.9
vt 0.4 1
vt 0.3 1
vt 0.2 0.9
vt 0.2 1

# Normal
vn 0 0 -1

# Mesh description
g TownHouse4_mesh_0007

# Faces
f 1/1/1 2/2/1 3/3/1 4/4/1
f 5/1/1 6/2/1 7/3/1 8/4/1
f 9/5/1 10/1/1 11/4/1 12/6/1
f 13/5/1 14/1/1 15/4/1 16/6/1

