# Tiled2Unity generated file. Do not modify by hand.
# Wavefront file for 'TownHouse4_mesh_0004.obj'

# Vertices (Count = 168)
v -12 -5 0
v -13 -5 0
v -13 -4 0
v -12 -4 0
v -11 -5 0
v -12 -5 0
v -12 -4 0
v -11 -4 0
v -10 -5 0
v -11 -5 0
v -11 -4 0
v -10 -4 0
v -9 -5 0
v -10 -5 0
v -10 -4 0
v -9 -4 0
v -7 -5 0
v -8 -5 0
v -8 -4 0
v -7 -4 0
v -6 -5 0
v -7 -5 0
v -7 -4 0
v -6 -4 0
v -5 -5 0
v -6 -5 0
v -6 -4 0
v -5 -4 0
v -4 -5 0
v -5 -5 0
v -5 -4 0
v -4 -4 0
v -12 -10 0
v -13 -10 0
v -13 -9 0
v -12 -9 0
v -11 -10 0
v -12 -10 0
v -12 -9 0
v -11 -9 0
v -9 -10 0
v -10 -10 0
v -10 -9 0
v -9 -9 0
v -8 -10 0
v -9 -10 0
v -9 -9 0
v -8 -9 0
v -7 -10 0
v -8 -10 0
v -8 -9 0
v -7 -9 0
v -5 -10 0
v -6 -10 0
v -6 -9 0
v -5 -9 0
v -4 -10 0
v -5 -10 0
v -5 -9 0
v -4 -9 0
v -13 -11 0
v -14 -11 0
v -14 -10 0
v -13 -10 0
v -14 -15 0
v -15 -15 0
v -15 -14 0
v -14 -14 0
v -13 -15 0
v -14 -15 0
v -14 -14 0
v -13 -14 0
v -12 -15 0
v -13 -15 0
v -13 -14 0
v -12 -14 0
v -11 -15 0
v -12 -15 0
v -12 -14 0
v -11 -14 0
v -10 -15 0
v -11 -15 0
v -11 -14 0
v -10 -14 0
v -9 -15 0
v -10 -15 0
v -10 -14 0
v -9 -14 0
v -8 -15 0
v -9 -15 0
v -9 -14 0
v -8 -14 0
v -7 -15 0
v -8 -15 0
v -8 -14 0
v -7 -14 0
v -6 -15 0
v -7 -15 0
v -7 -14 0
v -6 -14 0
v -4 -15 0
v -5 -15 0
v -5 -14 0
v -4 -14 0
v -9 -18 0
v -10 -18 0
v -10 -17 0
v -9 -17 0
v -8 -18 0
v -9 -18 0
v -9 -17 0
v -8 -17 0
v -7 -18 0
v -8 -18 0
v -8 -17 0
v -7 -17 0
v -6 -19 0
v -7 -19 0
v -7 -18 0
v -6 -18 0
v -15 -22 0
v -16 -22 0
v -16 -21 0
v -15 -21 0
v -14 -22 0
v -15 -22 0
v -15 -21 0
v -14 -21 0
v -13 -22 0
v -14 -22 0
v -14 -21 0
v -13 -21 0
v -12 -22 0
v -13 -22 0
v -13 -21 0
v -12 -21 0
v -11 -22 0
v -12 -22 0
v -12 -21 0
v -11 -21 0
v -10 -22 0
v -11 -22 0
v -11 -21 0
v -10 -21 0
v -9 -22 0
v -10 -22 0
v -10 -21 0
v -9 -21 0
v -8 -22 0
v -9 -22 0
v -9 -21 0
v -8 -21 0
v -7 -22 0
v -8 -22 0
v -8 -21 0
v -7 -21 0
v -6 -22 0
v -7 -22 0
v -7 -21 0
v -6 -21 0
v -4 -22 0
v -5 -22 0
v -5 -21 0
v -4 -21 0
v -3 -22 0
v -4 -22 0
v -4 -21 0
v -3 -21 0

# Texture cooridinates (Count = 24)
vt 0.0625 0.25
vt 0.125 0.25
vt 0.125 0.3125
vt 0.0625 0.3125
vt 0.125 0.375
vt 0.0625 0.375
vt 0.0625 0.5
vt 0.125 0.5
vt 0.125 0.5625
vt 0.0625 0.5625
vt 0 0.5
vt 0 0.5625
vt 0.1875 0.5
vt 0.1875 0.5625
vt 0.1875 0.375
vt 0.25 0.375
vt 0.25 0.4375
vt 0.1875 0.4375
vt 0.125 0.4375
vt 0.0625 0.4375
vt 0 0.375
vt 0 0.4375
vt 0.1875 0.3125
vt 0.25 0.3125

# Normal
vn 0 0 -1

# Mesh description
g TownHouse4_mesh_0004

# Faces
f 1/1/1 2/2/1 3/3/1 4/4/1
f 5/1/1 6/2/1 7/3/1 8/4/1
f 9/1/1 10/2/1 11/3/1 12/4/1
f 13/1/1 14/2/1 15/3/1 16/4/1
f 17/4/1 18/3/1 19/5/1 20/6/1
f 21/4/1 22/3/1 23/5/1 24/6/1
f 25/4/1 26/3/1 27/5/1 28/6/1
f 29/4/1 30/3/1 31/5/1 32/6/1
f 33/7/1 34/8/1 35/9/1 36/10/1
f 37/11/1 38/7/1 39/10/1 40/12/1
f 41/8/1 42/13/1 43/14/1 44/9/1
f 45/7/1 46/8/1 47/9/1 48/10/1
f 49/11/1 50/7/1 51/10/1 52/12/1
f 53/8/1 54/13/1 55/14/1 56/9/1
f 57/7/1 58/8/1 59/9/1 60/10/1
f 61/15/1 62/16/1 63/17/1 64/18/1
f 65/6/1 66/5/1 67/19/1 68/20/1
f 69/6/1 70/5/1 71/19/1 72/20/1
f 73/6/1 74/5/1 75/19/1 76/20/1
f 77/6/1 78/5/1 79/19/1 80/20/1
f 81/6/1 82/5/1 83/19/1 84/20/1
f 85/6/1 86/5/1 87/19/1 88/20/1
f 89/6/1 90/5/1 91/19/1 92/20/1
f 93/6/1 94/5/1 95/19/1 96/20/1
f 97/21/1 98/6/1 99/20/1 100/22/1
f 101/5/1 102/15/1 103/18/1 104/19/1
f 105/4/1 106/3/1 107/5/1 108/6/1
f 109/4/1 110/3/1 111/5/1 112/6/1
f 113/4/1 114/3/1 115/5/1 116/6/1
f 117/23/1 118/24/1 119/16/1 120/15/1
f 121/5/1 122/15/1 123/18/1 124/19/1
f 125/6/1 126/5/1 127/19/1 128/20/1
f 129/6/1 130/5/1 131/19/1 132/20/1
f 133/6/1 134/5/1 135/19/1 136/20/1
f 137/6/1 138/5/1 139/19/1 140/20/1
f 141/6/1 142/5/1 143/19/1 144/20/1
f 145/6/1 146/5/1 147/19/1 148/20/1
f 149/6/1 150/5/1 151/19/1 152/20/1
f 153/6/1 154/5/1 155/19/1 156/20/1
f 157/21/1 158/6/1 159/20/1 160/22/1
f 161/5/1 162/15/1 163/18/1 164/19/1
f 165/21/1 166/6/1 167/20/1 168/22/1

