# Tiled2Unity generated file. Do not modify by hand.
# Wavefront file for 'TownHouse3_mesh_0008.obj'

# Vertices (Count = 388)
v -21 -4 0
v -22 -4 0
v -22 -3 0
v -21 -3 0
v -20 -4 0
v -21 -4 0
v -21 -3 0
v -20 -3 0
v -19 -4 0
v -20 -4 0
v -20 -3 0
v -19 -3 0
v -18 -4 0
v -19 -4 0
v -19 -3 0
v -18 -3 0
v -17 -4 0
v -18 -4 0
v -18 -3 0
v -17 -3 0
v -16 -4 0
v -17 -4 0
v -17 -3 0
v -16 -3 0
v -15 -4 0
v -16 -4 0
v -16 -3 0
v -15 -3 0
v -14 -4 0
v -15 -4 0
v -15 -3 0
v -14 -3 0
v -13 -4 0
v -14 -4 0
v -14 -3 0
v -13 -3 0
v -12 -4 0
v -13 -4 0
v -13 -3 0
v -12 -3 0
v -11 -4 0
v -12 -4 0
v -12 -3 0
v -11 -3 0
v -10 -4 0
v -11 -4 0
v -11 -3 0
v -10 -3 0
v -9 -4 0
v -10 -4 0
v -10 -3 0
v -9 -3 0
v -8 -4 0
v -9 -4 0
v -9 -3 0
v -8 -3 0
v -7 -4 0
v -8 -4 0
v -8 -3 0
v -7 -3 0
v -6 -4 0
v -7 -4 0
v -7 -3 0
v -6 -3 0
v -5 -4 0
v -6 -4 0
v -6 -3 0
v -5 -3 0
v -21 -5 0
v -22 -5 0
v -22 -4 0
v -21 -4 0
v -18 -5 0
v -19 -5 0
v -19 -4 0
v -18 -4 0
v -16 -5 0
v -17 -5 0
v -17 -4 0
v -16 -4 0
v -10 -5 0
v -11 -5 0
v -11 -4 0
v -10 -4 0
v -5 -5 0
v -6 -5 0
v -6 -4 0
v -5 -4 0
v -21 -6 0
v -22 -6 0
v -22 -5 0
v -21 -5 0
v -18 -6 0
v -19 -6 0
v -19 -5 0
v -18 -5 0
v -16 -6 0
v -17 -6 0
v -17 -5 0
v -16 -5 0
v -10 -6 0
v -11 -6 0
v -11 -5 0
v -10 -5 0
v -5 -6 0
v -6 -6 0
v -6 -5 0
v -5 -5 0
v -5 -7 0
v -6 -7 0
v -6 -6 0
v -5 -6 0
v -5 -8 0
v -6 -8 0
v -6 -7 0
v -5 -7 0
v -21 -9 0
v -22 -9 0
v -22 -8 0
v -21 -8 0
v -5 -9 0
v -6 -9 0
v -6 -8 0
v -5 -8 0
v -21 -10 0
v -22 -10 0
v -22 -9 0
v -21 -9 0
v -20 -10 0
v -21 -10 0
v -21 -9 0
v -20 -9 0
v -19 -10 0
v -20 -10 0
v -20 -9 0
v -19 -9 0
v -18 -10 0
v -19 -10 0
v -19 -9 0
v -18 -9 0
v -17 -10 0
v -18 -10 0
v -18 -9 0
v -17 -9 0
v -16 -10 0
v -17 -10 0
v -17 -9 0
v -16 -9 0
v -15 -10 0
v -16 -10 0
v -16 -9 0
v -15 -9 0
v -14 -10 0
v -15 -10 0
v -15 -9 0
v -14 -9 0
v -13 -10 0
v -14 -10 0
v -14 -9 0
v -13 -9 0
v -12 -10 0
v -13 -10 0
v -13 -9 0
v -12 -9 0
v -11 -10 0
v -12 -10 0
v -12 -9 0
v -11 -9 0
v -10 -10 0
v -11 -10 0
v -11 -9 0
v -10 -9 0
v -9 -10 0
v -10 -10 0
v -10 -9 0
v -9 -9 0
v -8 -10 0
v -9 -10 0
v -9 -9 0
v -8 -9 0
v -7 -10 0
v -8 -10 0
v -8 -9 0
v -7 -9 0
v -6 -10 0
v -7 -10 0
v -7 -9 0
v -6 -9 0
v -5 -10 0
v -6 -10 0
v -6 -9 0
v -5 -9 0
v -21 -14 0
v -22 -14 0
v -22 -13 0
v -21 -13 0
v -20 -14 0
v -21 -14 0
v -21 -13 0
v -20 -13 0
v -19 -14 0
v -20 -14 0
v -20 -13 0
v -19 -13 0
v -18 -14 0
v -19 -14 0
v -19 -13 0
v -18 -13 0
v -17 -14 0
v -18 -14 0
v -18 -13 0
v -17 -13 0
v -16 -14 0
v -17 -14 0
v -17 -13 0
v -16 -13 0
v -15 -14 0
v -16 -14 0
v -16 -13 0
v -15 -13 0
v -14 -14 0
v -15 -14 0
v -15 -13 0
v -14 -13 0
v -13 -14 0
v -14 -14 0
v -14 -13 0
v -13 -13 0
v -12 -14 0
v -13 -14 0
v -13 -13 0
v -12 -13 0
v -11 -14 0
v -12 -14 0
v -12 -13 0
v -11 -13 0
v -10 -14 0
v -11 -14 0
v -11 -13 0
v -10 -13 0
v -9 -14 0
v -10 -14 0
v -10 -13 0
v -9 -13 0
v -8 -14 0
v -9 -14 0
v -9 -13 0
v -8 -13 0
v -7 -14 0
v -8 -14 0
v -8 -13 0
v -7 -13 0
v -6 -14 0
v -7 -14 0
v -7 -13 0
v -6 -13 0
v -5 -14 0
v -6 -14 0
v -6 -13 0
v -5 -13 0
v -21 -15 0
v -22 -15 0
v -22 -14 0
v -21 -14 0
v -18 -15 0
v -19 -15 0
v -19 -14 0
v -18 -14 0
v -16 -15 0
v -17 -15 0
v -17 -14 0
v -16 -14 0
v -10 -15 0
v -11 -15 0
v -11 -14 0
v -10 -14 0
v -5 -15 0
v -6 -15 0
v -6 -14 0
v -5 -14 0
v -21 -16 0
v -22 -16 0
v -22 -15 0
v -21 -15 0
v -18 -16 0
v -19 -16 0
v -19 -15 0
v -18 -15 0
v -16 -16 0
v -17 -16 0
v -17 -15 0
v -16 -15 0
v -10 -16 0
v -11 -16 0
v -11 -15 0
v -10 -15 0
v -5 -16 0
v -6 -16 0
v -6 -15 0
v -5 -15 0
v -5 -17 0
v -6 -17 0
v -6 -16 0
v -5 -16 0
v -5 -18 0
v -6 -18 0
v -6 -17 0
v -5 -17 0
v -21 -19 0
v -22 -19 0
v -22 -18 0
v -21 -18 0
v -10 -19 0
v -11 -19 0
v -11 -18 0
v -10 -18 0
v -5 -19 0
v -6 -19 0
v -6 -18 0
v -5 -18 0
v -21 -20 0
v -22 -20 0
v -22 -19 0
v -21 -19 0
v -20 -20 0
v -21 -20 0
v -21 -19 0
v -20 -19 0
v -19 -20 0
v -20 -20 0
v -20 -19 0
v -19 -19 0
v -18 -20 0
v -19 -20 0
v -19 -19 0
v -18 -19 0
v -17 -20 0
v -18 -20 0
v -18 -19 0
v -17 -19 0
v -16 -20 0
v -17 -20 0
v -17 -19 0
v -16 -19 0
v -15 -20 0
v -16 -20 0
v -16 -19 0
v -15 -19 0
v -14 -20 0
v -15 -20 0
v -15 -19 0
v -14 -19 0
v -13 -20 0
v -14 -20 0
v -14 -19 0
v -13 -19 0
v -12 -20 0
v -13 -20 0
v -13 -19 0
v -12 -19 0
v -11 -20 0
v -12 -20 0
v -12 -19 0
v -11 -19 0
v -10 -20 0
v -11 -20 0
v -11 -19 0
v -10 -19 0
v -9 -20 0
v -10 -20 0
v -10 -19 0
v -9 -19 0
v -8 -20 0
v -9 -20 0
v -9 -19 0
v -8 -19 0
v -7 -20 0
v -8 -20 0
v -8 -19 0
v -7 -19 0
v -6 -20 0
v -7 -20 0
v -7 -19 0
v -6 -19 0
v -5 -20 0
v -6 -20 0
v -6 -19 0
v -5 -19 0

# Texture cooridinates (Count = 20)
vt 0.0625 0.6875
vt 0.125 0.6875
vt 0.125 0.75
vt 0.0625 0.75
vt 0.0625 0.5625
vt 0.125 0.5625
vt 0.125 0.625
vt 0.0625 0.625
vt 0.1875 0.5625
vt 0.1875 0.625
vt 0 0.6875
vt 0 0.75
vt 0 0.5625
vt 0 0.625
vt 0.25 0.5625
vt 0.25 0.625
vt 0.3125 0.5625
vt 0.3125 0.625
vt 0.1875 0.6875
vt 0.25 0.6875

# Normal
vn 0 0 -1

# Mesh description
g TownHouse3_mesh_0008

# Faces
f 1/1/1 2/2/1 3/3/1 4/4/1
f 5/5/1 6/6/1 7/7/1 8/8/1
f 9/5/1 10/6/1 11/7/1 12/8/1
f 13/6/1 14/9/1 15/10/1 16/7/1
f 17/5/1 18/6/1 19/7/1 20/8/1
f 21/6/1 22/9/1 23/10/1 24/7/1
f 25/5/1 26/6/1 27/7/1 28/8/1
f 29/5/1 30/6/1 31/7/1 32/8/1
f 33/5/1 34/6/1 35/7/1 36/8/1
f 37/5/1 38/6/1 39/7/1 40/8/1
f 41/5/1 42/6/1 43/7/1 44/8/1
f 45/6/1 46/9/1 47/10/1 48/7/1
f 49/5/1 50/6/1 51/7/1 52/8/1
f 53/5/1 54/6/1 55/7/1 56/8/1
f 57/5/1 58/6/1 59/7/1 60/8/1
f 61/5/1 62/6/1 63/7/1 64/8/1
f 65/11/1 66/1/1 67/4/1 68/12/1
f 69/13/1 70/5/1 71/8/1 72/14/1
f 73/13/1 74/5/1 75/8/1 76/14/1
f 77/13/1 78/5/1 79/8/1 80/14/1
f 81/13/1 82/5/1 83/8/1 84/14/1
f 85/13/1 86/5/1 87/8/1 88/14/1
f 89/9/1 90/15/1 91/16/1 92/10/1
f 93/9/1 94/15/1 95/16/1 96/10/1
f 97/9/1 98/15/1 99/16/1 100/10/1
f 101/9/1 102/15/1 103/16/1 104/10/1
f 105/13/1 106/5/1 107/8/1 108/14/1
f 109/13/1 110/5/1 111/8/1 112/14/1
f 113/13/1 114/5/1 115/8/1 116/14/1
f 117/15/1 118/17/1 119/18/1 120/16/1
f 121/13/1 122/5/1 123/8/1 124/14/1
f 125/8/1 126/7/1 127/2/1 128/1/1
f 129/5/1 130/6/1 131/7/1 132/8/1
f 133/5/1 134/6/1 135/7/1 136/8/1
f 137/5/1 138/6/1 139/7/1 140/8/1
f 141/5/1 142/6/1 143/7/1 144/8/1
f 145/5/1 146/6/1 147/7/1 148/8/1
f 149/5/1 150/6/1 151/7/1 152/8/1
f 153/5/1 154/6/1 155/7/1 156/8/1
f 157/5/1 158/6/1 159/7/1 160/8/1
f 161/5/1 162/6/1 163/7/1 164/8/1
f 165/5/1 166/6/1 167/7/1 168/8/1
f 169/5/1 170/6/1 171/7/1 172/8/1
f 173/5/1 174/6/1 175/7/1 176/8/1
f 177/5/1 178/6/1 179/7/1 180/8/1
f 181/5/1 182/6/1 183/7/1 184/8/1
f 185/5/1 186/6/1 187/7/1 188/8/1
f 189/14/1 190/8/1 191/1/1 192/11/1
f 193/1/1 194/2/1 195/3/1 196/4/1
f 197/5/1 198/6/1 199/7/1 200/8/1
f 201/5/1 202/6/1 203/7/1 204/8/1
f 205/7/1 206/10/1 207/19/1 208/2/1
f 209/5/1 210/6/1 211/7/1 212/8/1
f 213/6/1 214/9/1 215/10/1 216/7/1
f 217/5/1 218/6/1 219/7/1 220/8/1
f 221/5/1 222/6/1 223/7/1 224/8/1
f 225/5/1 226/6/1 227/7/1 228/8/1
f 229/5/1 230/6/1 231/7/1 232/8/1
f 233/5/1 234/6/1 235/7/1 236/8/1
f 237/7/1 238/10/1 239/19/1 240/2/1
f 241/5/1 242/6/1 243/7/1 244/8/1
f 245/5/1 246/6/1 247/7/1 248/8/1
f 249/5/1 250/6/1 251/7/1 252/8/1
f 253/5/1 254/6/1 255/7/1 256/8/1
f 257/11/1 258/1/1 259/4/1 260/12/1
f 261/13/1 262/5/1 263/8/1 264/14/1
f 265/13/1 266/5/1 267/8/1 268/14/1
f 269/13/1 270/5/1 271/8/1 272/14/1
f 273/13/1 274/5/1 275/8/1 276/14/1
f 277/13/1 278/5/1 279/8/1 280/14/1
f 281/9/1 282/15/1 283/16/1 284/10/1
f 285/9/1 286/15/1 287/16/1 288/10/1
f 289/9/1 290/15/1 291/16/1 292/10/1
f 293/9/1 294/15/1 295/16/1 296/10/1
f 297/13/1 298/5/1 299/8/1 300/14/1
f 301/13/1 302/5/1 303/8/1 304/14/1
f 305/13/1 306/5/1 307/8/1 308/14/1
f 309/13/1 310/5/1 311/8/1 312/14/1
f 313/15/1 314/17/1 315/18/1 316/16/1
f 317/13/1 318/5/1 319/8/1 320/14/1
f 321/8/1 322/7/1 323/2/1 324/1/1
f 325/5/1 326/6/1 327/7/1 328/8/1
f 329/5/1 330/6/1 331/7/1 332/8/1
f 333/5/1 334/6/1 335/7/1 336/8/1
f 337/5/1 338/6/1 339/7/1 340/8/1
f 341/5/1 342/6/1 343/7/1 344/8/1
f 345/5/1 346/6/1 347/7/1 348/8/1
f 349/5/1 350/6/1 351/7/1 352/8/1
f 353/5/1 354/6/1 355/7/1 356/8/1
f 357/5/1 358/6/1 359/7/1 360/8/1
f 361/5/1 362/6/1 363/7/1 364/8/1
f 365/10/1 366/16/1 367/20/1 368/19/1
f 369/5/1 370/6/1 371/7/1 372/8/1
f 373/5/1 374/6/1 375/7/1 376/8/1
f 377/5/1 378/6/1 379/7/1 380/8/1
f 381/5/1 382/6/1 383/7/1 384/8/1
f 385/14/1 386/8/1 387/1/1 388/11/1

